<svg id="kity_svg_6" xmlns="http://www.w3.org/2000/svg" xmlns:xlink="http://www.w3.org/1999/xlink" version="1.1" width="846" height="1030" style="background: rgb(251, 251, 251); visibility: visible;" viewBox="0 0 846 1030"><defs id="kity_defs_7"><linearGradient id="kity_linearGradient_17" x1="0" y1="0" x2="0" y2="1"><stop id="kity_stop_18" offset="0" stop-color="rgb(255, 255, 255)"></stop><stop id="kity_stop_19" offset="1" stop-color="rgb(204, 204, 204)"></stop></linearGradient><marker id="kity_marker_2" orient="auto" refX="6" refY="0" viewBox="-7 -7 14 14" markerWidth="7" markerHeight="7" markerUnits="userSpaceOnUse"><path id="kity_path_3" fill="rgb(115, 161, 191)" stroke="none" d="M6,0A6,6,0,1,1,-6,0A6,6,0,1,1,6,0"></path></marker></defs><g id="kity_g_8"><g id="minder1" text-rendering="optimize-speed"><g id="minder_connect_group1"><path id="kity_path_31" fill="none" stroke="rgb(115, 161, 191)" stroke-width="1" d="M36.50000587850809,566.500000141561A116,475,0,0,1,152.5000058785081,91.50000014156103"></path><path id="kity_path_33" fill="none" stroke="rgb(115, 161, 191)" stroke-width="1" d="M326.5000058785081,91.50000014156103C366.5000058785081,91.50000014156103,366.5000058785081,59.50000014156103,406.5000058785081,59.50000014156103"></path><path id="kity_path_35" fill="none" stroke="rgb(115, 161, 191)" stroke-width="1" d="M483.5000058785081,59.50000014156103C500.5000058785081,59.50000014156103,500.5000058785081,54.50000014156103,517.5000058785081,54.50000014156103"></path><path id="kity_path_37" fill="none" stroke="rgb(115, 161, 191)" stroke-width="1" d="M538.5000058785081,54.50000014156103C546.5000058785081,54.50000014156103,546.5000058785081,28.50000014156103,554.5000058785081,28.50000014156103"></path><path id="kity_path_39" fill="none" stroke="rgb(115, 161, 191)" stroke-width="1" d="M538.5000058785081,54.50000014156103C546.5000058785081,54.50000014156103,546.5000058785081,54.50000014156103,554.5000058785081,54.50000014156103"></path><path id="kity_path_41" fill="none" stroke="rgb(115, 161, 191)" stroke-width="1" d="M538.5000058785081,54.50000014156103C546.5000058785081,54.50000014156103,546.5000058785081,80.50000014156103,554.5000058785081,80.50000014156103"></path><path id="kity_path_43" fill="none" stroke="rgb(115, 161, 191)" stroke-width="1" d="M483.5000058785081,59.50000014156103C307.0000058785081,59.50000014156103,307.0000058785081,252.50000014156103,130.5000058785081,252.50000014156103"></path><path id="kity_path_45" fill="none" stroke="rgb(115, 161, 191)" stroke-width="1" d="M281.5000058785081,252.50000014156103C289.5000058785081,252.50000014156103,289.5000058785081,252.50000014156103,297.5000058785081,252.50000014156103"></path><path id="kity_path_47" fill="none" stroke="rgb(115, 161, 191)" stroke-width="1" d="M339.5000058785081,252.50000014156103C347.5000058785081,252.50000014156103,347.5000058785081,168.50000014156103,355.5000058785081,168.50000014156103"></path><path id="kity_path_49" fill="none" stroke="rgb(115, 161, 191)" stroke-width="1" d="M414.5000058785081,168.50000014156103C422.5000058785081,168.50000014156103,422.5000058785081,168.50000014156103,430.5000058785081,168.50000014156103"></path><path id="kity_path_51" fill="none" stroke="rgb(115, 161, 191)" stroke-width="1" d="M339.5000058785081,252.50000014156103C347.5000058785081,252.50000014156103,347.5000058785081,194.50000014156103,355.5000058785081,194.50000014156103"></path><path id="kity_path_53" fill="none" stroke="rgb(115, 161, 191)" stroke-width="1" d="M462.5000058785081,194.50000014156103C470.5000058785081,194.50000014156103,470.5000058785081,194.50000014156103,478.5000058785081,194.50000014156103"></path><path id="kity_path_55" fill="none" stroke="rgb(115, 161, 191)" stroke-width="1" d="M339.5000058785081,252.50000014156103C347.5000058785081,252.50000014156103,347.5000058785081,259.50000014156103,355.5000058785081,259.50000014156103"></path><path id="kity_path_57" fill="none" stroke="rgb(115, 161, 191)" stroke-width="1" d="M435.5000058785081,259.50000014156103C443.5000058785081,259.50000014156103,443.5000058785081,259.50000014156103,451.5000058785081,259.50000014156103"></path><path id="kity_path_59" fill="none" stroke="rgb(115, 161, 191)" stroke-width="1" d="M571.5000058785081,259.50000014156103C579.5000058785081,259.50000014156103,579.5000058785081,220.50000014156103,587.5000058785081,220.50000014156103"></path><path id="kity_path_61" fill="none" stroke="rgb(115, 161, 191)" stroke-width="1" d="M571.5000058785081,259.50000014156103C579.5000058785081,259.50000014156103,579.5000058785081,246.50000014156103,587.5000058785081,246.50000014156103"></path><path id="kity_path_63" fill="none" stroke="rgb(115, 161, 191)" stroke-width="1" d="M571.5000058785081,259.50000014156103C579.5000058785081,259.50000014156103,579.5000058785081,272.50000014156103,587.5000058785081,272.50000014156103"></path><path id="kity_path_65" fill="none" stroke="rgb(115, 161, 191)" stroke-width="1" d="M571.5000058785081,259.50000014156103C579.5000058785081,259.50000014156103,579.5000058785081,298.50000014156103,587.5000058785081,298.50000014156103"></path><path id="kity_path_67" fill="none" stroke="rgb(115, 161, 191)" stroke-width="1" d="M339.5000058785081,252.50000014156103C347.5000058785081,252.50000014156103,347.5000058785081,337.50000014156103,355.5000058785081,337.50000014156103"></path><path id="kity_path_69" fill="none" stroke="rgb(115, 161, 191)" stroke-width="1" d="M481.5000058785081,337.50000014156103C489.5000058785081,337.50000014156103,489.5000058785081,337.50000014156103,497.5000058785081,337.50000014156103"></path><path id="kity_path_71" fill="none" stroke="rgb(115, 161, 191)" stroke-width="1" d="M617.5000058785081,337.50000014156103C625.5000058785081,337.50000014156103,625.5000058785081,324.50000014156103,633.5000058785081,324.50000014156103"></path><path id="kity_path_73" fill="none" stroke="rgb(115, 161, 191)" stroke-width="1" d="M617.5000058785081,337.50000014156103C625.5000058785081,337.50000014156103,625.5000058785081,350.50000014156103,633.5000058785081,350.50000014156103"></path><path id="kity_path_75" fill="none" stroke="rgb(115, 161, 191)" stroke-width="1" d="M326.5000058785081,91.50000014156103C364.5000058785081,91.50000014156103,364.5000058785081,111.50000014156103,402.5000058785081,111.50000014156103"></path><path id="kity_path_77" fill="none" stroke="rgb(115, 161, 191)" stroke-width="1" d="M487.5000058785081,111.50000014156103C504.5000058785081,111.50000014156103,504.5000058785081,125.50000014156103,521.5000058785081,125.50000014156103"></path><path id="kity_path_79" fill="none" stroke="rgb(115, 161, 191)" stroke-width="1" d="M542.5000058785081,125.50000014156103C550.5000058785081,125.50000014156103,550.5000058785081,99.50000014156103,558.5000058785081,99.50000014156103"></path><path id="kity_path_81" fill="none" stroke="rgb(115, 161, 191)" stroke-width="1" d="M542.5000058785081,125.50000014156103C550.5000058785081,125.50000014156103,550.5000058785081,125.50000014156103,558.5000058785081,125.50000014156103"></path><path id="kity_path_83" fill="none" stroke="rgb(115, 161, 191)" stroke-width="1" d="M542.5000058785081,125.50000014156103C550.5000058785081,125.50000014156103,550.5000058785081,151.50000014156103,558.5000058785081,151.50000014156103"></path><path id="kity_path_85" fill="none" stroke="rgb(115, 161, 191)" stroke-width="1" d="M487.5000058785081,111.50000014156103C302.5000058785081,111.50000014156103,302.5000058785081,418.50000014156103,117.50000587850809,418.50000014156103"></path><path id="kity_path_87" fill="none" stroke="rgb(115, 161, 191)" stroke-width="1" d="M333.5000058785081,418.50000014156103C341.5000058785081,418.50000014156103,341.5000058785081,373.50000014156103,349.5000058785081,373.50000014156103"></path><path id="kity_path_89" fill="none" stroke="rgb(115, 161, 191)" stroke-width="1" d="M333.5000058785081,418.50000014156103C341.5000058785081,418.50000014156103,341.5000058785081,399.50000014156103,349.5000058785081,399.50000014156103"></path><path id="kity_path_91" fill="none" stroke="rgb(115, 161, 191)" stroke-width="1" d="M333.5000058785081,418.50000014156103C341.5000058785081,418.50000014156103,341.5000058785081,464.50000014156103,349.5000058785081,464.50000014156103"></path><path id="kity_path_93" fill="none" stroke="rgb(115, 161, 191)" stroke-width="1" d="M453.5000058785081,464.50000014156103C461.5000058785081,464.50000014156103,461.5000058785081,425.50000014156103,469.5000058785081,425.50000014156103"></path><path id="kity_path_95" fill="none" stroke="rgb(115, 161, 191)" stroke-width="1" d="M529.5000058785081,425.50000014156103C537.5000058785081,425.50000014156103,537.5000058785081,425.50000014156103,545.5000058785081,425.50000014156103"></path><path id="kity_path_97" fill="none" stroke="rgb(115, 161, 191)" stroke-width="1" d="M453.5000058785081,464.50000014156103C461.5000058785081,464.50000014156103,461.5000058785081,451.50000014156103,469.5000058785081,451.50000014156103"></path><path id="kity_path_99" fill="none" stroke="rgb(115, 161, 191)" stroke-width="1" d="M529.5000058785081,451.50000014156103C537.5000058785081,451.50000014156103,537.5000058785081,451.50000014156103,545.5000058785081,451.50000014156103"></path><path id="kity_path_101" fill="none" stroke="rgb(115, 161, 191)" stroke-width="1" d="M453.5000058785081,464.50000014156103C461.5000058785081,464.50000014156103,461.5000058785081,477.50000014156103,469.5000058785081,477.50000014156103"></path><path id="kity_path_103" fill="none" stroke="rgb(115, 161, 191)" stroke-width="1" d="M551.5000058785081,477.50000014156103C559.5000058785081,477.50000014156103,559.5000058785081,477.50000014156103,567.5000058785081,477.50000014156103"></path><path id="kity_path_105" fill="none" stroke="rgb(115, 161, 191)" stroke-width="1" d="M453.5000058785081,464.50000014156103C461.5000058785081,464.50000014156103,461.5000058785081,503.50000014156103,469.5000058785081,503.50000014156103"></path><path id="kity_path_107" fill="none" stroke="rgb(115, 161, 191)" stroke-width="1" d="M546.5000058785081,503.50000014156103C554.5000058785081,503.50000014156103,554.5000058785081,503.50000014156103,562.5000058785081,503.50000014156103"></path><path id="kity_path_109" fill="none" stroke="rgb(115, 161, 191)" stroke-width="1" d="M36.50000587850809,566.500000141561A92,85,0,0,0,128.5000058785081,651.500000141561"></path><path id="kity_path_111" fill="none" stroke="rgb(115, 161, 191)" stroke-width="1" d="M488.5000058785081,651.500000141561C496.5000058785081,651.500000141561,496.5000058785081,651.500000141561,504.5000058785081,651.500000141561"></path><path id="kity_path_113" fill="none" stroke="rgb(115, 161, 191)" stroke-width="1" d="M36.50000587850809,566.500000141561A93,122,0,0,0,129.5000058785081,688.500000141561"></path><path id="kity_path_115" fill="none" stroke="rgb(115, 161, 191)" stroke-width="1" d="M485.5000058785081,688.500000141561C493.5000058785081,688.500000141561,493.5000058785081,688.500000141561,501.5000058785081,688.500000141561"></path><path id="kity_path_117" fill="none" stroke="rgb(115, 161, 191)" stroke-width="1" d="M36.50000587850809,566.500000141561A94,33,0,0,0,130.5000058785081,599.500000141561"></path><path id="kity_path_119" fill="none" stroke="rgb(115, 161, 191)" stroke-width="1" d="M414.5000058785081,599.500000141561C422.5000058785081,599.500000141561,422.5000058785081,586.500000141561,430.5000058785081,586.500000141561"></path><path id="kity_path_121" fill="none" stroke="rgb(115, 161, 191)" stroke-width="1" d="M414.5000058785081,599.500000141561C422.5000058785081,599.500000141561,422.5000058785081,612.500000141561,430.5000058785081,612.500000141561"></path><path id="kity_path_123" fill="none" stroke="rgb(115, 161, 191)" stroke-width="1" d="M36.50000587850809,566.500000141561A95,14,0,0,1,131.5000058785081,552.500000141561"></path><path id="kity_path_125" fill="none" stroke="rgb(115, 161, 191)" stroke-width="1" d="M418.5000058785081,552.500000141561C426.5000058785081,552.500000141561,426.5000058785081,539.500000141561,434.5000058785081,539.500000141561"></path><path id="kity_path_127" fill="none" stroke="rgb(115, 161, 191)" stroke-width="1" d="M418.5000058785081,552.500000141561C426.5000058785081,552.500000141561,426.5000058785081,565.500000141561,434.5000058785081,565.500000141561"></path><path id="kity_path_129" fill="none" stroke="rgb(115, 161, 191)" stroke-width="1" d="M36.50000587850809,566.500000141561A102,340,0,0,0,138.5000058785081,906.500000141561"></path><path id="kity_path_131" fill="none" stroke="rgb(115, 161, 191)" stroke-width="1" d="M391.5000058785081,906.500000141561C399.5000058785081,906.500000141561,399.5000058785081,779.500000141561,407.5000058785081,779.500000141561"></path><path id="kity_path_133" fill="none" stroke="rgb(115, 161, 191)" stroke-width="1" d="M449.5000058785081,779.500000141561C457.5000058785081,779.500000141561,457.5000058785081,721.500000141561,465.5000058785081,721.500000141561"></path><path id="kity_path_135" fill="none" stroke="rgb(115, 161, 191)" stroke-width="1" d="M449.5000058785081,779.500000141561C457.5000058785081,779.500000141561,457.5000058785081,747.500000141561,465.5000058785081,747.500000141561"></path><path id="kity_path_137" fill="none" stroke="rgb(115, 161, 191)" stroke-width="1" d="M524.5000058785081,747.500000141561C532.5000058785081,747.500000141561,532.5000058785081,747.500000141561,540.5000058785081,747.500000141561"></path><path id="kity_path_139" fill="none" stroke="rgb(115, 161, 191)" stroke-width="1" d="M449.5000058785081,779.500000141561C457.5000058785081,779.500000141561,457.5000058785081,773.500000141561,465.5000058785081,773.500000141561"></path><path id="kity_path_141" fill="none" stroke="rgb(115, 161, 191)" stroke-width="1" d="M572.5000058785081,773.500000141561C580.5000058785081,773.500000141561,580.5000058785081,773.500000141561,588.5000058785081,773.500000141561"></path><path id="kity_path_143" fill="none" stroke="rgb(115, 161, 191)" stroke-width="1" d="M449.5000058785081,779.500000141561C457.5000058785081,779.500000141561,457.5000058785081,838.500000141561,465.5000058785081,838.500000141561"></path><path id="kity_path_145" fill="none" stroke="rgb(115, 161, 191)" stroke-width="1" d="M545.5000058785081,838.500000141561C553.5000058785081,838.500000141561,553.5000058785081,838.500000141561,561.5000058785081,838.500000141561"></path><path id="kity_path_147" fill="none" stroke="rgb(115, 161, 191)" stroke-width="1" d="M681.5000058785081,838.500000141561C689.5000058785081,838.500000141561,689.5000058785081,799.500000141561,697.5000058785081,799.500000141561"></path><path id="kity_path_149" fill="none" stroke="rgb(115, 161, 191)" stroke-width="1" d="M681.5000058785081,838.500000141561C689.5000058785081,838.500000141561,689.5000058785081,825.500000141561,697.5000058785081,825.500000141561"></path><path id="kity_path_151" fill="none" stroke="rgb(115, 161, 191)" stroke-width="1" d="M681.5000058785081,838.500000141561C689.5000058785081,838.500000141561,689.5000058785081,851.500000141561,697.5000058785081,851.500000141561"></path><path id="kity_path_153" fill="none" stroke="rgb(115, 161, 191)" stroke-width="1" d="M681.5000058785081,838.500000141561C689.5000058785081,838.500000141561,689.5000058785081,877.500000141561,697.5000058785081,877.500000141561"></path><path id="kity_path_155" fill="none" stroke="rgb(115, 161, 191)" stroke-width="1" d="M391.5000058785081,906.500000141561C402.5000058785081,906.500000141561,402.5000058785081,904.500000141561,413.5000058785081,904.500000141561"></path><path id="kity_path_157" fill="none" stroke="rgb(115, 161, 191)" stroke-width="1" d="M468.5000058785081,904.500000141561C476.5000058785081,904.500000141561,476.5000058785081,865.500000141561,484.5000058785081,865.500000141561"></path><path id="kity_path_159" fill="none" stroke="rgb(115, 161, 191)" stroke-width="1" d="M468.5000058785081,904.500000141561C476.5000058785081,904.500000141561,476.5000058785081,891.500000141561,484.5000058785081,891.500000141561"></path><path id="kity_path_161" fill="none" stroke="rgb(115, 161, 191)" stroke-width="1" d="M468.5000058785081,904.500000141561C476.5000058785081,904.500000141561,476.5000058785081,917.500000141561,484.5000058785081,917.500000141561"></path><path id="kity_path_163" fill="none" stroke="rgb(115, 161, 191)" stroke-width="1" d="M468.5000058785081,904.500000141561C476.5000058785081,904.500000141561,476.5000058785081,943.500000141561,484.5000058785081,943.500000141561"></path><path id="kity_path_165" fill="none" stroke="rgb(115, 161, 191)" stroke-width="1" d="M391.5000058785081,906.500000141561C401.5000058785081,906.500000141561,401.5000058785081,974.500000141561,411.5000058785081,974.500000141561"></path><path id="kity_path_167" fill="none" stroke="rgb(115, 161, 191)" stroke-width="1" d="M391.5000058785081,906.500000141561C401.5000058785081,906.500000141561,401.5000058785081,1000.500000141561,411.5000058785081,1000.500000141561"></path></g><g id="minder_node1"><path id="node_outline1" fill="#f79646" stroke="rgb(115, 161, 191)" d="M25.50000587850809,552.500000141561h22a5,5,0,0,1,5,5v18a5,5,0,0,1,-5,5h-22a5,5,0,0,1,-5,-5v-18a5,5,0,0,1,5,-5z" stroke-width="3"></path><g id="node_text1" fill="white"><text id="kity_text_22" text-rendering="inherit" font-size="16" dy=".8em" y="556.1000001057982" x="32.50000587850809">/</text></g></g><g id="kity_g_12"><path id="kity_path_13" fill="none" stroke="none" d="M32.50000587850809,566.500000141561h0v0h0z"></path></g><g id="kity_g_14"><path id="kity_path_15" fill="none" stroke="none" d="M32.50000587850809,566.500000141561h0v0h0z"></path><path id="kity_path_16" fill="none" stroke="none"></path></g><g id="minder_node2"><g id="node_expander39" style="cursor: pointer;"><path id="kity_path_490" fill="white" stroke="gray" d="M153.50000759214163,91.49999306350946A6,6,0,1,1,141.50000759214163,91.49999306350946A6,6,0,1,1,153.50000759214163,91.49999306350946"></path><path id="kity_path_491" fill="none" stroke="gray" d="M143.00000759214163,91.49999306350946L152.00000759214163,91.49999306350946"></path></g><path id="node_outline40" fill="#f79646" stroke="rgb(115, 161, 191)" d="M157.50000799447298,79.49999306350946h166a3,3,0,0,1,3,3v18a3,3,0,0,1,-3,3h-166a3,3,0,0,1,-3,-3v-18a3,3,0,0,1,3,-3z" stroke-width="1"></path><g id="node_text40" fill="black"><text id="kity_text_245" text-rendering="inherit" font-size="12" dy=".8em" y="83.69999303668737" x="174.50000799447298">/ci-cd/azure-pipelines/</text></g></g><g id="minder_node3"><g id="node_expander21" style="cursor: pointer;"><path id="kity_path_436" fill="white" stroke="gray" d="M406.5000113621354,59.499992586672306A6,6,0,1,1,394.5000113621354,59.499992586672306A6,6,0,1,1,406.5000113621354,59.499992586672306"></path><path id="kity_path_437" fill="none" stroke="gray" d="M396.0000113621354,59.499992586672306L405.0000113621354,59.499992586672306"></path></g><path id="node_outline22" fill="none" stroke="none" d="M411.5000115260482,50.499992586672306h67a5,5,0,0,1,5,5v8a5,5,0,0,1,-5,5h-67a5,5,0,0,1,-5,-5v-8a5,5,0,0,1,5,-5z"></path><g id="node_text22" fill="black"><text id="kity_text_209" text-rendering="inherit" font-size="12" dy=".8em" y="51.699992559850216" x="411.5000115260482">cli/train.yml</text></g></g><g id="minder_node4"><g id="node_expander4" style="cursor: pointer;"><path id="kity_path_385" fill="white" stroke="gray" d="M517.5000130161643,54.4999925121665A6,6,0,1,1,505.5000130161643,54.4999925121665A6,6,0,1,1,517.5000130161643,54.4999925121665"></path><path id="kity_path_386" fill="none" stroke="gray" d="M507.0000130161643,54.4999925121665L516.0000130161643,54.4999925121665"></path></g><path id="node_outline5" fill="#f79646" stroke="none" d="M522.5000131800771,45.4999925121665h11a5,5,0,0,1,5,5v8a5,5,0,0,1,-5,5h-11a5,5,0,0,1,-5,-5v-8a5,5,0,0,1,5,-5z"></path><g id="node_text5" fill="black"><text id="kity_text_175" text-rendering="inherit" font-size="12" dy=".8em" y="46.69999248534441" x="522.5000131800771">../</text></g></g><g id="minder_node5"><g id="node_expander1" display="none" style="cursor: pointer;"><path id="kity_path_376" fill="white" stroke="gray" d="M554.5000135675073,28.49999212473631A6,6,0,1,1,542.5000135675073,28.49999212473631A6,6,0,1,1,554.5000135675073,28.49999212473631"></path><path id="kity_path_377" fill="none" stroke="gray"></path></g><path id="node_outline2" fill="none" stroke="none" d="M559.50001373142,19.49999212473631h120a5,5,0,0,1,5,5v8a5,5,0,0,1,-5,5h-120a5,5,0,0,1,-5,-5v-8a5,5,0,0,1,5,-5z"></path><g id="node_text2" fill="black"><text id="kity_text_169" text-rendering="inherit" font-size="12" dy=".8em" y="20.69999209791422" x="559.50001373142">dev-requirements.txt</text></g></g><g id="minder_node6"><g id="node_expander2" display="none" style="cursor: pointer;"><path id="kity_path_379" fill="white" stroke="gray" d="M554.5000135675073,54.4999925121665A6,6,0,1,1,542.5000135675073,54.4999925121665A6,6,0,1,1,554.5000135675073,54.4999925121665"></path><path id="kity_path_380" fill="none" stroke="gray"></path></g><path id="node_outline3" fill="none" stroke="none" d="M559.50001373142,45.4999925121665h73a5,5,0,0,1,5,5v8a5,5,0,0,1,-5,5h-73a5,5,0,0,1,-5,-5v-8a5,5,0,0,1,5,-5z"></path><g id="node_text3" fill="black"><text id="kity_text_171" text-rendering="inherit" font-size="12" dy=".8em" y="46.69999248534441" x="559.50001373142">setup-sdk.sh</text></g></g><g id="minder_node7"><g id="node_expander3" display="none" style="cursor: pointer;"><path id="kity_path_382" fill="white" stroke="gray" d="M554.5000135675073,80.49999289959669A6,6,0,1,1,542.5000135675073,80.49999289959669A6,6,0,1,1,554.5000135675073,80.49999289959669"></path><path id="kity_path_383" fill="none" stroke="gray"></path></g><path id="node_outline4" fill="none" stroke="none" d="M559.50001373142,71.49999289959669h65a5,5,0,0,1,5,5v8a5,5,0,0,1,-5,5h-65a5,5,0,0,1,-5,-5v-8a5,5,0,0,1,5,-5z"></path><g id="node_text4" fill="black"><text id="kity_text_173" text-rendering="inherit" font-size="12" dy=".8em" y="72.6999928727746" x="559.50001373142">setup-cli.sh</text></g></g><g id="minder_node8"><g id="node_expander20" style="cursor: pointer;"><path id="kity_path_433" fill="white" stroke="gray" d="M130.50000724941492,252.49999546259642A6,6,0,1,1,118.50000724941492,252.49999546259642A6,6,0,1,1,130.50000724941492,252.49999546259642"></path><path id="kity_path_434" fill="none" stroke="gray" d="M120.00000724941492,252.49999546259642L129.00000724941492,252.49999546259642"></path></g><path id="node_outline21" fill="none" stroke="none" d="M135.5000074133277,243.49999546259642h141a5,5,0,0,1,5,5v8a5,5,0,0,1,-5,5h-141a5,5,0,0,1,-5,-5v-8a5,5,0,0,1,5,-5z"></path><g id="node_text21" fill="black"><text id="kity_text_207" text-rendering="inherit" font-size="12" dy=".8em" y="244.69999543577433" x="135.5000074133277">/ml-pipelines/cli/train.sh</text></g></g><g id="minder_node9"><g id="node_expander19" style="cursor: pointer;"><path id="kity_path_430" fill="white" stroke="gray" d="M297.50000973790884,252.49999546259642A6,6,0,1,1,285.50000973790884,252.49999546259642A6,6,0,1,1,297.50000973790884,252.49999546259642"></path><path id="kity_path_431" fill="none" stroke="gray" d="M287.00000973790884,252.49999546259642L296.00000973790884,252.49999546259642"></path></g><path id="node_outline20" fill="#f79646" stroke="none" d="M302.5000099018216,243.49999546259642h32a5,5,0,0,1,5,5v8a5,5,0,0,1,-5,5h-32a5,5,0,0,1,-5,-5v-8a5,5,0,0,1,5,-5z"></path><g id="node_text20" fill="black"><text id="kity_text_205" text-rendering="inherit" font-size="12" dy=".8em" y="244.69999543577433" x="302.5000099018216">train/</text></g></g><g id="minder_node10"><g id="node_expander6" style="cursor: pointer;"><path id="kity_path_391" fill="white" stroke="gray" d="M355.5000106021762,168.49999421089888A6,6,0,1,1,343.5000106021762,168.49999421089888A6,6,0,1,1,355.5000106021762,168.49999421089888"></path><path id="kity_path_392" fill="none" stroke="gray" d="M345.0000106021762,168.49999421089888L354.0000106021762,168.49999421089888"></path></g><path id="node_outline7" fill="none" stroke="none" d="M360.50001076608896,159.49999421089888h49a5,5,0,0,1,5,5v8a5,5,0,0,1,-5,5h-49a5,5,0,0,1,-5,-5v-8a5,5,0,0,1,5,-5z"></path><g id="node_text7" fill="black"><text id="kity_text_179" text-rendering="inherit" font-size="12" dy=".8em" y="160.6999941840768" x="360.50001076608896">data.yml</text></g></g><g id="minder_node11"><g id="node_expander5" display="none" style="cursor: pointer;"><path id="kity_path_388" fill="white" stroke="gray" d="M430.5000117197633,168.49999421089888A6,6,0,1,1,418.5000117197633,168.49999421089888A6,6,0,1,1,430.5000117197633,168.49999421089888"></path><path id="kity_path_389" fill="none" stroke="gray"></path></g><path id="node_outline6" fill="none" stroke="none" d="M435.50001188367605,159.49999421089888h135a5,5,0,0,1,5,5v8a5,5,0,0,1,-5,5h-135a5,5,0,0,1,-5,-5v-8a5,5,0,0,1,5,-5z"></path><g id="node_text6" fill="black"><text id="kity_text_177" text-rendering="inherit" font-size="12" dy=".8em" y="160.6999941840768" x="435.50001188367605">../../../data/taxi-data.csv</text></g></g><g id="minder_node12"><g id="node_expander8" style="cursor: pointer;"><path id="kity_path_397" fill="white" stroke="gray" d="M355.5000106021762,194.49999459832907A6,6,0,1,1,343.5000106021762,194.49999459832907A6,6,0,1,1,355.5000106021762,194.49999459832907"></path><path id="kity_path_398" fill="none" stroke="gray" d="M345.0000106021762,194.49999459832907L354.0000106021762,194.49999459832907"></path></g><path id="node_outline9" fill="none" stroke="none" d="M360.50001076608896,185.49999459832907h97a5,5,0,0,1,5,5v8a5,5,0,0,1,-5,5h-97a5,5,0,0,1,-5,-5v-8a5,5,0,0,1,5,-5z"></path><g id="node_text9" fill="black"><text id="kity_text_183" text-rendering="inherit" font-size="12" dy=".8em" y="186.69999457150698" x="360.50001076608896">environment.yml</text></g></g><g id="minder_node13"><g id="node_expander7" display="none" style="cursor: pointer;"><path id="kity_path_394" fill="white" stroke="gray" d="M478.500012435019,194.49999459832907A6,6,0,1,1,466.500012435019,194.49999459832907A6,6,0,1,1,478.500012435019,194.49999459832907"></path><path id="kity_path_395" fill="none" stroke="gray"></path></g><path id="node_outline8" fill="none" stroke="none" d="M483.5000125989318,185.49999459832907h202a5,5,0,0,1,5,5v8a5,5,0,0,1,-5,5h-202a5,5,0,0,1,-5,-5v-8a5,5,0,0,1,5,-5z"></path><g id="node_text8" fill="black"><text id="kity_text_181" text-rendering="inherit" font-size="12" dy=".8em" y="186.69999457150698" x="483.5000125989318">../../../environment/train-conda.yml</text></g></g><g id="minder_node14"><g id="node_expander14" style="cursor: pointer;"><path id="kity_path_415" fill="white" stroke="gray" d="M355.5000106021762,259.49999556690454A6,6,0,1,1,343.5000106021762,259.49999556690454A6,6,0,1,1,355.5000106021762,259.49999556690454"></path><path id="kity_path_416" fill="none" stroke="gray" d="M345.0000106021762,259.49999556690454L354.0000106021762,259.49999556690454"></path></g><path id="node_outline15" fill="none" stroke="none" d="M360.50001076608896,250.49999556690454h70a5,5,0,0,1,5,5v8a5,5,0,0,1,-5,5h-70a5,5,0,0,1,-5,-5v-8a5,5,0,0,1,5,-5z"></path><g id="node_text15" fill="black"><text id="kity_text_195" text-rendering="inherit" font-size="12" dy=".8em" y="251.69999554008245" x="360.50001076608896">pipeline.yml</text></g></g><g id="minder_node15"><g id="node_expander13" style="cursor: pointer;"><path id="kity_path_412" fill="white" stroke="gray" d="M451.50001203268766,259.49999556690454A6,6,0,1,1,439.50001203268766,259.49999556690454A6,6,0,1,1,451.50001203268766,259.49999556690454"></path><path id="kity_path_413" fill="none" stroke="gray" d="M441.00001203268766,259.49999556690454L450.00001203268766,259.49999556690454"></path></g><path id="node_outline14" fill="#f79646" stroke="none" d="M456.50001219660044,250.49999556690454h110a5,5,0,0,1,5,5v8a5,5,0,0,1,-5,5h-110a5,5,0,0,1,-5,-5v-8a5,5,0,0,1,5,-5z"></path><g id="node_text14" fill="black"><text id="kity_text_193" text-rendering="inherit" font-size="12" dy=".8em" y="251.69999554008245" x="456.50001219660044">../../../components/</text></g></g><g id="minder_node16"><g id="node_expander9" display="none" style="cursor: pointer;"><path id="kity_path_400" fill="white" stroke="gray" d="M587.5000140592456,220.49999498575926A6,6,0,1,1,575.5000140592456,220.49999498575926A6,6,0,1,1,587.5000140592456,220.49999498575926"></path><path id="kity_path_401" fill="none" stroke="gray"></path></g><path id="node_outline10" fill="none" stroke="none" d="M592.5000142231584,211.49999498575926h76a5,5,0,0,1,5,5v8a5,5,0,0,1,-5,5h-76a5,5,0,0,1,-5,-5v-8a5,5,0,0,1,5,-5z"></path><g id="node_text10" fill="black"><text id="kity_text_185" text-rendering="inherit" font-size="12" dy=".8em" y="212.69999495893717" x="592.5000142231584">prep/prep.py</text></g></g><g id="minder_node17"><g id="node_expander10" display="none" style="cursor: pointer;"><path id="kity_path_403" fill="white" stroke="gray" d="M587.5000140592456,246.49999537318945A6,6,0,1,1,575.5000140592456,246.49999537318945A6,6,0,1,1,587.5000140592456,246.49999537318945"></path><path id="kity_path_404" fill="none" stroke="gray"></path></g><path id="node_outline11" fill="none" stroke="none" d="M592.5000142231584,237.49999537318945h75a5,5,0,0,1,5,5v8a5,5,0,0,1,-5,5h-75a5,5,0,0,1,-5,-5v-8a5,5,0,0,1,5,-5z"></path><g id="node_text11" fill="black"><text id="kity_text_187" text-rendering="inherit" font-size="12" dy=".8em" y="238.69999534636736" x="592.5000142231584">train/train.py</text></g></g><g id="minder_node18"><g id="node_expander11" display="none" style="cursor: pointer;"><path id="kity_path_406" fill="white" stroke="gray" d="M587.5000140592456,272.49999576061964A6,6,0,1,1,575.5000140592456,272.49999576061964A6,6,0,1,1,587.5000140592456,272.49999576061964"></path><path id="kity_path_407" fill="none" stroke="gray"></path></g><path id="node_outline12" fill="none" stroke="none" d="M592.5000142231584,263.49999576061964h119a5,5,0,0,1,5,5v8a5,5,0,0,1,-5,5h-119a5,5,0,0,1,-5,-5v-8a5,5,0,0,1,5,-5z"></path><g id="node_text12" fill="black"><text id="kity_text_189" text-rendering="inherit" font-size="12" dy=".8em" y="264.69999573379755" x="592.5000142231584">evaluate/evaluate.py</text></g></g><g id="minder_node19"><g id="node_expander12" display="none" style="cursor: pointer;"><path id="kity_path_409" fill="white" stroke="gray" d="M587.5000140592456,298.49999614804983A6,6,0,1,1,575.5000140592456,298.49999614804983A6,6,0,1,1,587.5000140592456,298.49999614804983"></path><path id="kity_path_410" fill="none" stroke="gray"></path></g><path id="node_outline13" fill="none" stroke="none" d="M592.5000142231584,289.49999614804983h110a5,5,0,0,1,5,5v8a5,5,0,0,1,-5,5h-110a5,5,0,0,1,-5,-5v-8a5,5,0,0,1,5,-5z"></path><g id="node_text13" fill="black"><text id="kity_text_191" text-rendering="inherit" font-size="12" dy=".8em" y="290.69999612122774" x="592.5000142231584">register/register.py</text></g></g><g id="minder_node20"><g id="node_expander18" style="cursor: pointer;"><path id="kity_path_427" fill="white" stroke="gray" d="M355.5000106021762,337.4999967291951A6,6,0,1,1,343.5000106021762,337.4999967291951A6,6,0,1,1,355.5000106021762,337.4999967291951"></path><path id="kity_path_428" fill="none" stroke="gray" d="M345.0000106021762,337.4999967291951L354.0000106021762,337.4999967291951"></path></g><path id="node_outline19" fill="none" stroke="none" d="M360.50001076608896,328.4999967291951h116a5,5,0,0,1,5,5v8a5,5,0,0,1,-5,5h-116a5,5,0,0,1,-5,-5v-8a5,5,0,0,1,5,-5z"></path><g id="node_text19" fill="black"><text id="kity_text_203" text-rendering="inherit" font-size="12" dy=".8em" y="329.699996702373" x="360.50001076608896">pipeline_automl.yml</text></g></g><g id="minder_node21"><g id="node_expander17" style="cursor: pointer;"><path id="kity_path_424" fill="white" stroke="gray" d="M497.5000127181411,337.4999967291951A6,6,0,1,1,485.5000127181411,337.4999967291951A6,6,0,1,1,497.5000127181411,337.4999967291951"></path><path id="kity_path_425" fill="none" stroke="gray" d="M487.0000127181411,337.4999967291951L496.0000127181411,337.4999967291951"></path></g><path id="node_outline18" fill="#f79646" stroke="none" d="M502.50001288205385,328.4999967291951h110a5,5,0,0,1,5,5v8a5,5,0,0,1,-5,5h-110a5,5,0,0,1,-5,-5v-8a5,5,0,0,1,5,-5z"></path><g id="node_text18" fill="black"><text id="kity_text_201" text-rendering="inherit" font-size="12" dy=".8em" y="329.699996702373" x="502.50001288205385">../../../components/</text></g></g><g id="minder_node22"><g id="node_expander15" display="none" style="cursor: pointer;"><path id="kity_path_418" fill="white" stroke="gray" d="M633.500014744699,324.49999653548A6,6,0,1,1,621.500014744699,324.49999653548A6,6,0,1,1,633.500014744699,324.49999653548"></path><path id="kity_path_419" fill="none" stroke="gray"></path></g><path id="node_outline16" fill="none" stroke="none" d="M638.5000149086118,315.49999653548h76a5,5,0,0,1,5,5v8a5,5,0,0,1,-5,5h-76a5,5,0,0,1,-5,-5v-8a5,5,0,0,1,5,-5z"></path><g id="node_text16" fill="black"><text id="kity_text_197" text-rendering="inherit" font-size="12" dy=".8em" y="316.69999650865793" x="638.5000149086118">prep/prep.py</text></g></g><g id="minder_node23"><g id="node_expander16" display="none" style="cursor: pointer;"><path id="kity_path_421" fill="white" stroke="gray" d="M633.500014744699,350.4999969229102A6,6,0,1,1,621.500014744699,350.4999969229102A6,6,0,1,1,633.500014744699,350.4999969229102"></path><path id="kity_path_422" fill="none" stroke="gray"></path></g><path id="node_outline17" fill="none" stroke="none" d="M638.5000149086118,341.4999969229102h156a5,5,0,0,1,5,5v8a5,5,0,0,1,-5,5h-156a5,5,0,0,1,-5,-5v-8a5,5,0,0,1,5,-5z"></path><g id="node_text17" fill="black"><text id="kity_text_199" text-rendering="inherit" font-size="12" dy=".8em" y="342.6999968960881" x="638.5000149086118">register/register_automl.py</text></g></g><g id="minder_node24"><g id="node_expander38" style="cursor: pointer;"><path id="kity_path_487" fill="white" stroke="gray" d="M402.50001130253077,111.49999336153269A6,6,0,1,1,390.50001130253077,111.49999336153269A6,6,0,1,1,402.50001130253077,111.49999336153269"></path><path id="kity_path_488" fill="none" stroke="gray" d="M392.00001130253077,111.49999336153269L401.00001130253077,111.49999336153269"></path></g><path id="node_outline39" fill="none" stroke="none" d="M407.50001146644354,102.49999336153269h75a5,5,0,0,1,5,5v8a5,5,0,0,1,-5,5h-75a5,5,0,0,1,-5,-5v-8a5,5,0,0,1,5,-5z"></path><g id="node_text39" fill="black"><text id="kity_text_243" text-rendering="inherit" font-size="12" dy=".8em" y="103.6999933347106" x="407.50001146644354">sdk/train.yml</text></g></g><g id="minder_node25"><g id="node_expander25" style="cursor: pointer;"><path id="kity_path_448" fill="white" stroke="gray" d="M521.500013075769,125.49999357014894A6,6,0,1,1,509.50001307576895,125.49999357014894A6,6,0,1,1,521.500013075769,125.49999357014894"></path><path id="kity_path_449" fill="none" stroke="gray" d="M511.00001307576895,125.49999357014894L520.000013075769,125.49999357014894"></path></g><path id="node_outline26" fill="#f79646" stroke="none" d="M526.5000132396817,116.49999357014894h11a5,5,0,0,1,5,5v8a5,5,0,0,1,-5,5h-11a5,5,0,0,1,-5,-5v-8a5,5,0,0,1,5,-5z"></path><g id="node_text26" fill="black"><text id="kity_text_217" text-rendering="inherit" font-size="12" dy=".8em" y="117.69999354332685" x="526.5000132396817">../</text></g></g><g id="minder_node26"><g id="node_expander22" display="none" style="cursor: pointer;"><path id="kity_path_439" fill="white" stroke="gray" d="M558.5000136271119,99.49999318271875A6,6,0,1,1,546.5000136271119,99.49999318271875A6,6,0,1,1,558.5000136271119,99.49999318271875"></path><path id="kity_path_440" fill="none" stroke="gray"></path></g><path id="node_outline23" fill="none" stroke="none" d="M563.5000137910247,90.49999318271875h120a5,5,0,0,1,5,5v8a5,5,0,0,1,-5,5h-120a5,5,0,0,1,-5,-5v-8a5,5,0,0,1,5,-5z"></path><g id="node_text23" fill="black"><text id="kity_text_211" text-rendering="inherit" font-size="12" dy=".8em" y="91.69999315589666" x="563.5000137910247">dev-requirements.txt</text></g></g><g id="minder_node27"><g id="node_expander23" display="none" style="cursor: pointer;"><path id="kity_path_442" fill="white" stroke="gray" d="M558.5000136271119,125.49999357014894A6,6,0,1,1,546.5000136271119,125.49999357014894A6,6,0,1,1,558.5000136271119,125.49999357014894"></path><path id="kity_path_443" fill="none" stroke="gray"></path></g><path id="node_outline24" fill="none" stroke="none" d="M563.5000137910247,116.49999357014894h73a5,5,0,0,1,5,5v8a5,5,0,0,1,-5,5h-73a5,5,0,0,1,-5,-5v-8a5,5,0,0,1,5,-5z"></path><g id="node_text24" fill="black"><text id="kity_text_213" text-rendering="inherit" font-size="12" dy=".8em" y="117.69999354332685" x="563.5000137910247">setup-sdk.sh</text></g></g><g id="minder_node28"><g id="node_expander24" display="none" style="cursor: pointer;"><path id="kity_path_445" fill="white" stroke="gray" d="M558.5000136271119,151.49999395757914A6,6,0,1,1,546.5000136271119,151.49999395757914A6,6,0,1,1,558.5000136271119,151.49999395757914"></path><path id="kity_path_446" fill="none" stroke="gray"></path></g><path id="node_outline25" fill="none" stroke="none" d="M563.5000137910247,142.49999395757914h65a5,5,0,0,1,5,5v8a5,5,0,0,1,-5,5h-65a5,5,0,0,1,-5,-5v-8a5,5,0,0,1,5,-5z"></path><g id="node_text25" fill="black"><text id="kity_text_215" text-rendering="inherit" font-size="12" dy=".8em" y="143.69999393075705" x="563.5000137910247">setup-cli.sh</text></g></g><g id="minder_node29"><g id="node_expander37" style="cursor: pointer;"><path id="kity_path_484" fill="white" stroke="gray" d="M117.50000705569983,418.4999979361892A6,6,0,1,1,105.50000705569983,418.4999979361892A6,6,0,1,1,117.50000705569983,418.4999979361892"></path><path id="kity_path_485" fill="none" stroke="gray" d="M107.00000705569983,418.4999979361892L116.00000705569983,418.4999979361892"></path></g><path id="node_outline38" fill="none" stroke="none" d="M122.5000072196126,409.4999979361892h206a5,5,0,0,1,5,5v8a5,5,0,0,1,-5,5h-206a5,5,0,0,1,-5,-5v-8a5,5,0,0,1,5,-5z"></path><g id="node_text38" fill="black"><text id="kity_text_241" text-rendering="inherit" font-size="12" dy=".8em" y="410.6999979093671" x="122.5000072196126">/ml-pipelines/sdk/train-sdkv2.ipynb</text></g></g><g id="minder_node30"><g id="node_expander26" display="none" style="cursor: pointer;"><path id="kity_path_451" fill="white" stroke="gray" d="M349.5000105127692,373.4999972656369A6,6,0,1,1,337.5000105127692,373.4999972656369A6,6,0,1,1,349.5000105127692,373.4999972656369"></path><path id="kity_path_452" fill="none" stroke="gray"></path></g><path id="node_outline27" fill="none" stroke="none" d="M354.500010676682,364.4999972656369h124a5,5,0,0,1,5,5v8a5,5,0,0,1,-5,5h-124a5,5,0,0,1,-5,-5v-8a5,5,0,0,1,5,-5z"></path><g id="node_text27" fill="black"><text id="kity_text_219" text-rendering="inherit" font-size="12" dy=".8em" y="365.69999723881483" x="354.500010676682">../../data/taxi-data.csv</text></g></g><g id="minder_node31"><g id="node_expander27" display="none" style="cursor: pointer;"><path id="kity_path_454" fill="white" stroke="gray" d="M349.5000105127692,399.4999976530671A6,6,0,1,1,337.5000105127692,399.4999976530671A6,6,0,1,1,349.5000105127692,399.4999976530671"></path><path id="kity_path_455" fill="none" stroke="gray"></path></g><path id="node_outline28" fill="none" stroke="none" d="M354.500010676682,390.4999976530671h191a5,5,0,0,1,5,5v8a5,5,0,0,1,-5,5h-191a5,5,0,0,1,-5,-5v-8a5,5,0,0,1,5,-5z"></path><g id="node_text28" fill="black"><text id="kity_text_221" text-rendering="inherit" font-size="12" dy=".8em" y="391.699997626245" x="354.500010676682">../../environment/train-conda.yml</text></g></g><g id="minder_node32"><g id="node_expander36" style="cursor: pointer;"><path id="kity_path_481" fill="white" stroke="gray" d="M349.5000105127692,464.4999986216426A6,6,0,1,1,337.5000105127692,464.4999986216426A6,6,0,1,1,349.5000105127692,464.4999986216426"></path><path id="kity_path_482" fill="none" stroke="gray" d="M339.0000105127692,464.4999986216426L348.0000105127692,464.4999986216426"></path></g><path id="node_outline37" fill="#f79646" stroke="none" d="M354.500010676682,455.4999986216426h94a5,5,0,0,1,5,5v8a5,5,0,0,1,-5,5h-94a5,5,0,0,1,-5,-5v-8a5,5,0,0,1,5,-5z"></path><g id="node_text37" fill="black"><text id="kity_text_239" text-rendering="inherit" font-size="12" dy=".8em" y="456.6999985948205" x="354.500010676682">../../components</text></g></g><g id="minder_node33"><g id="node_expander29" style="cursor: pointer;"><path id="kity_path_460" fill="white" stroke="gray" d="M469.50001230090857,425.4999980404973A6,6,0,1,1,457.50001230090857,425.4999980404973A6,6,0,1,1,469.50001230090857,425.4999980404973"></path><path id="kity_path_461" fill="none" stroke="gray" d="M459.00001230090857,425.4999980404973L468.00001230090857,425.4999980404973"></path></g><path id="node_outline30" fill="none" stroke="none" d="M474.50001246482134,416.4999980404973h50a5,5,0,0,1,5,5v8a5,5,0,0,1,-5,5h-50a5,5,0,0,1,-5,-5v-8a5,5,0,0,1,5,-5z"></path><g id="node_text30" fill="black"><text id="kity_text_225" text-rendering="inherit" font-size="12" dy=".8em" y="417.6999980136752" x="474.50001246482134">prep.yml</text></g></g><g id="minder_node34"><g id="node_expander28" display="none" style="cursor: pointer;"><path id="kity_path_457" fill="white" stroke="gray" d="M545.5000134333968,425.4999980404973A6,6,0,1,1,533.5000134333968,425.4999980404973A6,6,0,1,1,545.5000134333968,425.4999980404973"></path><path id="kity_path_458" fill="none" stroke="gray"></path></g><path id="node_outline29" fill="none" stroke="none" d="M550.5000135973096,416.4999980404973h76a5,5,0,0,1,5,5v8a5,5,0,0,1,-5,5h-76a5,5,0,0,1,-5,-5v-8a5,5,0,0,1,5,-5z"></path><g id="node_text29" fill="black"><text id="kity_text_223" text-rendering="inherit" font-size="12" dy=".8em" y="417.6999980136752" x="550.5000135973096">prep/prep.py</text></g></g><g id="minder_node35"><g id="node_expander31" style="cursor: pointer;"><path id="kity_path_466" fill="white" stroke="gray" d="M469.50001230090857,451.4999984279275A6,6,0,1,1,457.50001230090857,451.4999984279275A6,6,0,1,1,469.50001230090857,451.4999984279275"></path><path id="kity_path_467" fill="none" stroke="gray" d="M459.00001230090857,451.4999984279275L468.00001230090857,451.4999984279275"></path></g><path id="node_outline32" fill="none" stroke="none" d="M474.50001246482134,442.4999984279275h50a5,5,0,0,1,5,5v8a5,5,0,0,1,-5,5h-50a5,5,0,0,1,-5,-5v-8a5,5,0,0,1,5,-5z"></path><g id="node_text32" fill="black"><text id="kity_text_229" text-rendering="inherit" font-size="12" dy=".8em" y="443.6999984011054" x="474.50001246482134">train.yml</text></g></g><g id="minder_node36"><g id="node_expander30" display="none" style="cursor: pointer;"><path id="kity_path_463" fill="white" stroke="gray" d="M545.5000134333968,451.4999984279275A6,6,0,1,1,533.5000134333968,451.4999984279275A6,6,0,1,1,545.5000134333968,451.4999984279275"></path><path id="kity_path_464" fill="none" stroke="gray"></path></g><path id="node_outline31" fill="none" stroke="none" d="M550.5000135973096,442.4999984279275h75a5,5,0,0,1,5,5v8a5,5,0,0,1,-5,5h-75a5,5,0,0,1,-5,-5v-8a5,5,0,0,1,5,-5z"></path><g id="node_text31" fill="black"><text id="kity_text_227" text-rendering="inherit" font-size="12" dy=".8em" y="443.6999984011054" x="550.5000135973096">train/train.py</text></g></g><g id="minder_node37"><g id="node_expander33" style="cursor: pointer;"><path id="kity_path_472" fill="white" stroke="gray" d="M469.50001230090857,477.4999988153577A6,6,0,1,1,457.50001230090857,477.4999988153577A6,6,0,1,1,469.50001230090857,477.4999988153577"></path><path id="kity_path_473" fill="none" stroke="gray" d="M459.00001230090857,477.4999988153577L468.00001230090857,477.4999988153577"></path></g><path id="node_outline34" fill="none" stroke="none" d="M474.50001246482134,468.4999988153577h72a5,5,0,0,1,5,5v8a5,5,0,0,1,-5,5h-72a5,5,0,0,1,-5,-5v-8a5,5,0,0,1,5,-5z"></path><g id="node_text34" fill="black"><text id="kity_text_233" text-rendering="inherit" font-size="12" dy=".8em" y="469.6999987885356" x="474.50001246482134">evaluate.yml</text></g></g><g id="minder_node38"><g id="node_expander32" display="none" style="cursor: pointer;"><path id="kity_path_469" fill="white" stroke="gray" d="M567.5000137612224,477.4999988153577A6,6,0,1,1,555.5000137612224,477.4999988153577A6,6,0,1,1,567.5000137612224,477.4999988153577"></path><path id="kity_path_470" fill="none" stroke="gray"></path></g><path id="node_outline33" fill="none" stroke="none" d="M572.5000139251351,468.4999988153577h119a5,5,0,0,1,5,5v8a5,5,0,0,1,-5,5h-119a5,5,0,0,1,-5,-5v-8a5,5,0,0,1,5,-5z"></path><g id="node_text33" fill="black"><text id="kity_text_231" text-rendering="inherit" font-size="12" dy=".8em" y="469.6999987885356" x="572.5000139251351">evaluate/evaluate.py</text></g></g><g id="minder_node39"><g id="node_expander35" style="cursor: pointer;"><path id="kity_path_478" fill="white" stroke="gray" d="M469.50001230090857,503.4999992027879A6,6,0,1,1,457.50001230090857,503.4999992027879A6,6,0,1,1,469.50001230090857,503.4999992027879"></path><path id="kity_path_479" fill="none" stroke="gray" d="M459.00001230090857,503.4999992027879L468.00001230090857,503.4999992027879"></path></g><path id="node_outline36" fill="none" stroke="none" d="M474.50001246482134,494.4999992027879h67a5,5,0,0,1,5,5v8a5,5,0,0,1,-5,5h-67a5,5,0,0,1,-5,-5v-8a5,5,0,0,1,5,-5z"></path><g id="node_text36" fill="black"><text id="kity_text_237" text-rendering="inherit" font-size="12" dy=".8em" y="495.6999991759658" x="474.50001246482134">register.yml</text></g></g><g id="minder_node40"><g id="node_expander34" display="none" style="cursor: pointer;"><path id="kity_path_475" fill="white" stroke="gray" d="M562.5000136867166,503.4999992027879A6,6,0,1,1,550.5000136867166,503.4999992027879A6,6,0,1,1,562.5000136867166,503.4999992027879"></path><path id="kity_path_476" fill="none" stroke="gray"></path></g><path id="node_outline35" fill="none" stroke="none" d="M567.5000138506293,494.4999992027879h110a5,5,0,0,1,5,5v8a5,5,0,0,1,-5,5h-110a5,5,0,0,1,-5,-5v-8a5,5,0,0,1,5,-5z"></path><g id="node_text35" fill="black"><text id="kity_text_235" text-rendering="inherit" font-size="12" dy=".8em" y="495.6999991759658" x="567.5000138506293">register/register.py</text></g></g><g id="minder_node41"><g id="node_expander41" style="cursor: pointer;"><path id="kity_path_496" fill="white" stroke="gray" d="M129.50000723451376,651.5000014081597A6,6,0,1,1,117.50000723451376,651.5000014081597A6,6,0,1,1,129.50000723451376,651.5000014081597"></path><path id="kity_path_497" fill="none" stroke="gray" d="M119.00000723451376,651.5000014081597L128.00000723451376,651.5000014081597"></path></g><path id="node_outline42" fill="none" stroke="rgb(115, 161, 191)" d="M133.5000076368451,639.5000014081597h352a3,3,0,0,1,3,3v18a3,3,0,0,1,-3,3h-352a3,3,0,0,1,-3,-3v-18a3,3,0,0,1,3,-3z" stroke-width="1"></path><g id="node_text42" fill="black"><text id="kity_text_249" text-rendering="inherit" font-size="12" dy=".8em" y="643.7000013813376" x="150.5000076368451">/ml-pipelines/sdk/deploy-online-endpoint-sdkv2.ipynb</text></g></g><g id="minder_node42"><g id="node_expander40" display="none" style="cursor: pointer;"><path id="kity_path_493" fill="white" stroke="gray" d="M504.5000128224492,651.5000014081597A6,6,0,1,1,492.5000128224492,651.5000014081597A6,6,0,1,1,504.5000128224492,651.5000014081597"></path><path id="kity_path_494" fill="none" stroke="gray"></path></g><path id="node_outline41" fill="none" stroke="none" d="M509.500012986362,642.5000014081597h148a5,5,0,0,1,5,5v8a5,5,0,0,1,-5,5h-148a5,5,0,0,1,-5,-5v-8a5,5,0,0,1,5,-5z"></path><g id="node_text41" fill="black"><text id="kity_text_247" text-rendering="inherit" font-size="12" dy=".8em" y="643.7000013813376" x="509.500012986362">../../data/taxi-request.json</text></g></g><g id="minder_node43"><g id="node_expander43" style="cursor: pointer;"><path id="kity_path_502" fill="white" stroke="gray" d="M130.50000724941492,688.5000019595027A6,6,0,1,1,118.50000724941492,688.5000019595027A6,6,0,1,1,130.50000724941492,688.5000019595027"></path><path id="kity_path_503" fill="none" stroke="gray" d="M120.00000724941492,688.5000019595027L129.00000724941492,688.5000019595027"></path></g><path id="node_outline44" fill="none" stroke="rgb(115, 161, 191)" d="M134.50000765174627,676.5000019595027h348a3,3,0,0,1,3,3v18a3,3,0,0,1,-3,3h-348a3,3,0,0,1,-3,-3v-18a3,3,0,0,1,3,-3z" stroke-width="1"></path><g id="node_text44" fill="black"><text id="kity_text_253" text-rendering="inherit" font-size="12" dy=".8em" y="680.7000019326806" x="151.50000765174627">/ml-pipelines/sdk/deploy-batch-endpoint-sdkv2.ipynb</text></g></g><g id="minder_node44"><g id="node_expander42" display="none" style="cursor: pointer;"><path id="kity_path_499" fill="white" stroke="gray" d="M501.5000127777457,688.5000019595027A6,6,0,1,1,489.5000127777457,688.5000019595027A6,6,0,1,1,501.5000127777457,688.5000019595027"></path><path id="kity_path_500" fill="none" stroke="gray"></path></g><path id="node_outline43" fill="none" stroke="none" d="M506.5000129416585,679.5000019595027h131a5,5,0,0,1,5,5v8a5,5,0,0,1,-5,5h-131a5,5,0,0,1,-5,-5v-8a5,5,0,0,1,5,-5z"></path><g id="node_text43" fill="black"><text id="kity_text_251" text-rendering="inherit" font-size="12" dy=".8em" y="680.7000019326806" x="506.5000129416585">../../data/taxi-batch.csv</text></g></g><g id="minder_node45"><g id="node_expander46" style="cursor: pointer;"><path id="kity_path_511" fill="white" stroke="gray" d="M131.50000726431608,599.5000006332994A6,6,0,1,1,119.50000726431608,599.5000006332994A6,6,0,1,1,131.50000726431608,599.5000006332994"></path><path id="kity_path_512" fill="none" stroke="gray" d="M121.00000726431608,599.5000006332994L130.00000726431608,599.5000006332994"></path></g><path id="node_outline47" fill="none" stroke="rgb(115, 161, 191)" d="M135.50000766664743,587.5000006332994h276a3,3,0,0,1,3,3v18a3,3,0,0,1,-3,3h-276a3,3,0,0,1,-3,-3v-18a3,3,0,0,1,3,-3z" stroke-width="1"></path><g id="node_text47" fill="black"><text id="kity_text_259" text-rendering="inherit" font-size="12" dy=".8em" y="591.7000006064773" x="152.50000766664743">/ml-pipelines/cli/deploy-batch-endpint.sh</text></g></g><g id="minder_node46"><g id="node_expander44" display="none" style="cursor: pointer;"><path id="kity_path_505" fill="white" stroke="gray" d="M430.5000117197633,586.5000004395843A6,6,0,1,1,418.5000117197633,586.5000004395843A6,6,0,1,1,430.5000117197633,586.5000004395843"></path><path id="kity_path_506" fill="none" stroke="gray"></path></g><path id="node_outline45" fill="none" stroke="none" d="M435.50001188367605,577.5000004395843h195a5,5,0,0,1,5,5v8a5,5,0,0,1,-5,5h-195a5,5,0,0,1,-5,-5v-8a5,5,0,0,1,5,-5z"></path><g id="node_text45" fill="black"><text id="kity_text_255" text-rendering="inherit" font-size="12" dy=".8em" y="578.7000004127622" x="435.50001188367605">deploy/batch/batch-endpoint.yml</text></g></g><g id="minder_node47"><g id="node_expander45" display="none" style="cursor: pointer;"><path id="kity_path_508" fill="white" stroke="gray" d="M430.5000117197633,612.5000008270144A6,6,0,1,1,418.5000117197633,612.5000008270144A6,6,0,1,1,430.5000117197633,612.5000008270144"></path><path id="kity_path_509" fill="none" stroke="gray"></path></g><path id="node_outline46" fill="none" stroke="none" d="M435.50001188367605,603.5000008270144h212a5,5,0,0,1,5,5v8a5,5,0,0,1,-5,5h-212a5,5,0,0,1,-5,-5v-8a5,5,0,0,1,5,-5z"></path><g id="node_text46" fill="black"><text id="kity_text_257" text-rendering="inherit" font-size="12" dy=".8em" y="604.7000008001924" x="435.50001188367605">deploy/batch/batch-deployment.yml</text></g></g><g id="minder_node48"><g id="node_expander49" style="cursor: pointer;"><path id="kity_path_520" fill="white" stroke="gray" d="M132.50000727921724,552.4999999329448A6,6,0,1,1,120.50000727921724,552.4999999329448A6,6,0,1,1,132.50000727921724,552.4999999329448"></path><path id="kity_path_521" fill="none" stroke="gray" d="M122.00000727921724,552.4999999329448L131.00000727921724,552.4999999329448"></path></g><path id="node_outline50" fill="none" stroke="rgb(115, 161, 191)" d="M136.5000076815486,540.4999999329448h279a3,3,0,0,1,3,3v18a3,3,0,0,1,-3,3h-279a3,3,0,0,1,-3,-3v-18a3,3,0,0,1,3,-3z" stroke-width="1"></path><g id="node_text50" fill="black"><text id="kity_text_265" text-rendering="inherit" font-size="12" dy=".8em" y="544.6999999061227" x="153.5000076815486">/ml-pipelines/cli/deploy-online-endpint.sh</text></g></g><g id="minder_node49"><g id="node_expander47" display="none" style="cursor: pointer;"><path id="kity_path_514" fill="white" stroke="gray" d="M434.5000117793679,539.4999997392297A6,6,0,1,1,422.5000117793679,539.4999997392297A6,6,0,1,1,434.5000117793679,539.4999997392297"></path><path id="kity_path_515" fill="none" stroke="gray"></path></g><path id="node_outline48" fill="none" stroke="none" d="M439.5000119432807,530.4999997392297h202a5,5,0,0,1,5,5v8a5,5,0,0,1,-5,5h-202a5,5,0,0,1,-5,-5v-8a5,5,0,0,1,5,-5z"></path><g id="node_text48" fill="black"><text id="kity_text_261" text-rendering="inherit" font-size="12" dy=".8em" y="531.6999997124076" x="439.5000119432807">deploy/online/online-endpoint.yml</text></g></g><g id="minder_node50"><g id="node_expander48" display="none" style="cursor: pointer;"><path id="kity_path_517" fill="white" stroke="gray" d="M434.5000117793679,565.5000001266599A6,6,0,1,1,422.5000117793679,565.5000001266599A6,6,0,1,1,434.5000117793679,565.5000001266599"></path><path id="kity_path_518" fill="none" stroke="gray"></path></g><path id="node_outline49" fill="none" stroke="none" d="M439.5000119432807,556.5000001266599h219a5,5,0,0,1,5,5v8a5,5,0,0,1,-5,5h-219a5,5,0,0,1,-5,-5v-8a5,5,0,0,1,5,-5z"></path><g id="node_text49" fill="black"><text id="kity_text_263" text-rendering="inherit" font-size="12" dy=".8em" y="557.7000000998378" x="439.5000119432807">deploy/online/online-deployment.yml</text></g></g><g id="minder_node51"><g id="node_expander69" style="cursor: pointer;"><path id="kity_path_580" fill="white" stroke="gray" d="M139.50000738352537,906.5000052079558A6,6,0,1,1,127.50000738352537,906.5000052079558A6,6,0,1,1,139.50000738352537,906.5000052079558"></path><path id="kity_path_581" fill="none" stroke="gray" d="M129.00000738352537,906.5000052079558L138.00000738352537,906.5000052079558"></path></g><path id="node_outline70" fill="none" stroke="rgb(115, 161, 191)" d="M143.50000778585672,894.5000052079558h245a3,3,0,0,1,3,3v18a3,3,0,0,1,-3,3h-245a3,3,0,0,1,-3,-3v-18a3,3,0,0,1,3,-3z" stroke-width="1"></path><g id="node_text70" fill="black"><text id="kity_text_305" text-rendering="inherit" font-size="12" dy=".8em" y="898.7000051811337" x="160.50000778585672">/ml-pipelines/cli/azureml-cliv2.ipynb</text></g></g><g id="minder_node52"><g id="node_expander61" style="cursor: pointer;"><path id="kity_path_556" fill="white" stroke="gray" d="M407.50001137703657,779.5000033155084A6,6,0,1,1,395.50001137703657,779.5000033155084A6,6,0,1,1,407.50001137703657,779.5000033155084"></path><path id="kity_path_557" fill="none" stroke="gray" d="M397.00001137703657,779.5000033155084L406.00001137703657,779.5000033155084"></path></g><path id="node_outline62" fill="#f79646" stroke="none" d="M412.50001154094934,770.5000033155084h32a5,5,0,0,1,5,5v8a5,5,0,0,1,-5,5h-32a5,5,0,0,1,-5,-5v-8a5,5,0,0,1,5,-5z"></path><g id="node_text62" fill="black"><text id="kity_text_289" text-rendering="inherit" font-size="12" dy=".8em" y="771.7000032886863" x="412.50001154094934">train/</text></g></g><g id="minder_node53"><g id="node_expander50" display="none" style="cursor: pointer;"><path id="kity_path_523" fill="white" stroke="gray" d="M465.5000122413039,721.500002451241A6,6,0,1,1,453.5000122413039,721.500002451241A6,6,0,1,1,465.5000122413039,721.500002451241"></path><path id="kity_path_524" fill="none" stroke="gray"></path></g><path id="node_outline51" fill="none" stroke="none" d="M470.5000124052167,712.500002451241h75a5,5,0,0,1,5,5v8a5,5,0,0,1,-5,5h-75a5,5,0,0,1,-5,-5v-8a5,5,0,0,1,5,-5z"></path><g id="node_text51" fill="black"><text id="kity_text_267" text-rendering="inherit" font-size="12" dy=".8em" y="713.7000024244189" x="470.5000124052167">compute.yml</text></g></g><g id="minder_node54"><g id="node_expander52" style="cursor: pointer;"><path id="kity_path_529" fill="white" stroke="gray" d="M465.5000122413039,747.5000028386712A6,6,0,1,1,453.5000122413039,747.5000028386712A6,6,0,1,1,465.5000122413039,747.5000028386712"></path><path id="kity_path_530" fill="none" stroke="gray" d="M455.0000122413039,747.5000028386712L464.0000122413039,747.5000028386712"></path></g><path id="node_outline53" fill="none" stroke="none" d="M470.5000124052167,738.5000028386712h49a5,5,0,0,1,5,5v8a5,5,0,0,1,-5,5h-49a5,5,0,0,1,-5,-5v-8a5,5,0,0,1,5,-5z"></path><g id="node_text53" fill="black"><text id="kity_text_271" text-rendering="inherit" font-size="12" dy=".8em" y="739.7000028118491" x="470.5000124052167">data.yml</text></g></g><g id="minder_node55"><g id="node_expander51" display="none" style="cursor: pointer;"><path id="kity_path_526" fill="white" stroke="gray" d="M540.500013358891,747.5000028386712A6,6,0,1,1,528.500013358891,747.5000028386712A6,6,0,1,1,540.500013358891,747.5000028386712"></path><path id="kity_path_527" fill="none" stroke="gray"></path></g><path id="node_outline52" fill="none" stroke="none" d="M545.5000135228038,738.5000028386712h135a5,5,0,0,1,5,5v8a5,5,0,0,1,-5,5h-135a5,5,0,0,1,-5,-5v-8a5,5,0,0,1,5,-5z"></path><g id="node_text52" fill="black"><text id="kity_text_269" text-rendering="inherit" font-size="12" dy=".8em" y="739.7000028118491" x="545.5000135228038">../../../data/taxi-data.csv</text></g></g><g id="minder_node56"><g id="node_expander54" style="cursor: pointer;"><path id="kity_path_535" fill="white" stroke="gray" d="M465.5000122413039,773.5000032261014A6,6,0,1,1,453.5000122413039,773.5000032261014A6,6,0,1,1,465.5000122413039,773.5000032261014"></path><path id="kity_path_536" fill="none" stroke="gray" d="M455.0000122413039,773.5000032261014L464.0000122413039,773.5000032261014"></path></g><path id="node_outline55" fill="none" stroke="none" d="M470.5000124052167,764.5000032261014h97a5,5,0,0,1,5,5v8a5,5,0,0,1,-5,5h-97a5,5,0,0,1,-5,-5v-8a5,5,0,0,1,5,-5z"></path><g id="node_text55" fill="black"><text id="kity_text_275" text-rendering="inherit" font-size="12" dy=".8em" y="765.7000031992793" x="470.5000124052167">environment.yml</text></g></g><g id="minder_node57"><g id="node_expander53" display="none" style="cursor: pointer;"><path id="kity_path_532" fill="white" stroke="gray" d="M588.5000140741467,773.5000032261014A6,6,0,1,1,576.5000140741467,773.5000032261014A6,6,0,1,1,588.5000140741467,773.5000032261014"></path><path id="kity_path_533" fill="none" stroke="gray"></path></g><path id="node_outline54" fill="none" stroke="none" d="M593.5000142380595,764.5000032261014h202a5,5,0,0,1,5,5v8a5,5,0,0,1,-5,5h-202a5,5,0,0,1,-5,-5v-8a5,5,0,0,1,5,-5z"></path><g id="node_text54" fill="black"><text id="kity_text_273" text-rendering="inherit" font-size="12" dy=".8em" y="765.7000031992793" x="593.5000142380595">../../../environment/train-conda.yml</text></g></g><g id="minder_node58"><g id="node_expander60" style="cursor: pointer;"><path id="kity_path_553" fill="white" stroke="gray" d="M465.5000122413039,838.5000041946769A6,6,0,1,1,453.5000122413039,838.5000041946769A6,6,0,1,1,465.5000122413039,838.5000041946769"></path><path id="kity_path_554" fill="none" stroke="gray" d="M455.0000122413039,838.5000041946769L464.0000122413039,838.5000041946769"></path></g><path id="node_outline61" fill="none" stroke="none" d="M470.5000124052167,829.5000041946769h70a5,5,0,0,1,5,5v8a5,5,0,0,1,-5,5h-70a5,5,0,0,1,-5,-5v-8a5,5,0,0,1,5,-5z"></path><g id="node_text61" fill="black"><text id="kity_text_287" text-rendering="inherit" font-size="12" dy=".8em" y="830.7000041678548" x="470.5000124052167">pipeline.yml</text></g></g><g id="minder_node59"><g id="node_expander59" style="cursor: pointer;"><path id="kity_path_550" fill="white" stroke="gray" d="M561.5000136718154,838.5000041946769A6,6,0,1,1,549.5000136718154,838.5000041946769A6,6,0,1,1,561.5000136718154,838.5000041946769"></path><path id="kity_path_551" fill="none" stroke="gray" d="M551.0000136718154,838.5000041946769L560.0000136718154,838.5000041946769"></path></g><path id="node_outline60" fill="#f79646" stroke="none" d="M566.5000138357282,829.5000041946769h110a5,5,0,0,1,5,5v8a5,5,0,0,1,-5,5h-110a5,5,0,0,1,-5,-5v-8a5,5,0,0,1,5,-5z"></path><g id="node_text60" fill="black"><text id="kity_text_285" text-rendering="inherit" font-size="12" dy=".8em" y="830.7000041678548" x="566.5000138357282">../../../components/</text></g></g><g id="minder_node60"><g id="node_expander55" display="none" style="cursor: pointer;"><path id="kity_path_538" fill="white" stroke="gray" d="M697.5000156983733,799.5000036135316A6,6,0,1,1,685.5000156983733,799.5000036135316A6,6,0,1,1,697.5000156983733,799.5000036135316"></path><path id="kity_path_539" fill="none" stroke="gray"></path></g><path id="node_outline56" fill="none" stroke="none" d="M702.5000158622861,790.5000036135316h76a5,5,0,0,1,5,5v8a5,5,0,0,1,-5,5h-76a5,5,0,0,1,-5,-5v-8a5,5,0,0,1,5,-5z"></path><g id="node_text56" fill="black"><text id="kity_text_277" text-rendering="inherit" font-size="12" dy=".8em" y="791.7000035867095" x="702.5000158622861">prep/prep.py</text></g></g><g id="minder_node61"><g id="node_expander56" display="none" style="cursor: pointer;"><path id="kity_path_541" fill="white" stroke="gray" d="M697.5000156983733,825.5000040009618A6,6,0,1,1,685.5000156983733,825.5000040009618A6,6,0,1,1,697.5000156983733,825.5000040009618"></path><path id="kity_path_542" fill="none" stroke="gray"></path></g><path id="node_outline57" fill="none" stroke="none" d="M702.5000158622861,816.5000040009618h75a5,5,0,0,1,5,5v8a5,5,0,0,1,-5,5h-75a5,5,0,0,1,-5,-5v-8a5,5,0,0,1,5,-5z"></path><g id="node_text57" fill="black"><text id="kity_text_279" text-rendering="inherit" font-size="12" dy=".8em" y="817.7000039741397" x="702.5000158622861">train/train.py</text></g></g><g id="minder_node62"><g id="node_expander57" display="none" style="cursor: pointer;"><path id="kity_path_544" fill="white" stroke="gray" d="M697.5000156983733,851.500004388392A6,6,0,1,1,685.5000156983733,851.500004388392A6,6,0,1,1,697.5000156983733,851.500004388392"></path><path id="kity_path_545" fill="none" stroke="gray"></path></g><path id="node_outline58" fill="none" stroke="none" d="M702.5000158622861,842.500004388392h119a5,5,0,0,1,5,5v8a5,5,0,0,1,-5,5h-119a5,5,0,0,1,-5,-5v-8a5,5,0,0,1,5,-5z"></path><g id="node_text58" fill="black"><text id="kity_text_281" text-rendering="inherit" font-size="12" dy=".8em" y="843.7000043615699" x="702.5000158622861">evaluate/evaluate.py</text></g></g><g id="minder_node63"><g id="node_expander58" display="none" style="cursor: pointer;"><path id="kity_path_547" fill="white" stroke="gray" d="M697.5000156983733,877.5000047758222A6,6,0,1,1,685.5000156983733,877.5000047758222A6,6,0,1,1,697.5000156983733,877.5000047758222"></path><path id="kity_path_548" fill="none" stroke="gray"></path></g><path id="node_outline59" fill="none" stroke="none" d="M702.5000158622861,868.5000047758222h110a5,5,0,0,1,5,5v8a5,5,0,0,1,-5,5h-110a5,5,0,0,1,-5,-5v-8a5,5,0,0,1,5,-5z"></path><g id="node_text59" fill="black"><text id="kity_text_283" text-rendering="inherit" font-size="12" dy=".8em" y="869.7000047490001" x="702.5000158622861">register/register.py</text></g></g><g id="minder_node64"><g id="node_expander66" style="cursor: pointer;"><path id="kity_path_571" fill="white" stroke="gray" d="M413.50001146644354,904.5000051781535A6,6,0,1,1,401.50001146644354,904.5000051781535A6,6,0,1,1,413.50001146644354,904.5000051781535"></path><path id="kity_path_572" fill="none" stroke="gray" d="M403.00001146644354,904.5000051781535L412.00001146644354,904.5000051781535"></path></g><path id="node_outline67" fill="#f79646" stroke="none" d="M418.5000116303563,895.5000051781535h45a5,5,0,0,1,5,5v8a5,5,0,0,1,-5,5h-45a5,5,0,0,1,-5,-5v-8a5,5,0,0,1,5,-5z"></path><g id="node_text67" fill="black"><text id="kity_text_299" text-rendering="inherit" font-size="12" dy=".8em" y="896.7000051513314" x="418.5000116303563">deploy/</text></g></g><g id="minder_node65"><g id="node_expander62" display="none" style="cursor: pointer;"><path id="kity_path_559" fill="white" stroke="gray" d="M484.500012524426,865.5000045970082A6,6,0,1,1,472.500012524426,865.5000045970082A6,6,0,1,1,484.500012524426,865.5000045970082"></path><path id="kity_path_560" fill="none" stroke="gray"></path></g><path id="node_outline63" fill="none" stroke="none" d="M489.50001268833876,856.5000045970082h157a5,5,0,0,1,5,5v8a5,5,0,0,1,-5,5h-157a5,5,0,0,1,-5,-5v-8a5,5,0,0,1,5,-5z"></path><g id="node_text63" fill="black"><text id="kity_text_291" text-rendering="inherit" font-size="12" dy=".8em" y="857.7000045701861" x="489.50001268833876">online/online-endpoint.yml</text></g></g><g id="minder_node66"><g id="node_expander63" display="none" style="cursor: pointer;"><path id="kity_path_562" fill="white" stroke="gray" d="M484.500012524426,891.5000049844384A6,6,0,1,1,472.500012524426,891.5000049844384A6,6,0,1,1,484.500012524426,891.5000049844384"></path><path id="kity_path_563" fill="none" stroke="gray"></path></g><path id="node_outline64" fill="none" stroke="none" d="M489.50001268833876,882.5000049844384h174a5,5,0,0,1,5,5v8a5,5,0,0,1,-5,5h-174a5,5,0,0,1,-5,-5v-8a5,5,0,0,1,5,-5z"></path><g id="node_text64" fill="black"><text id="kity_text_293" text-rendering="inherit" font-size="12" dy=".8em" y="883.7000049576163" x="489.50001268833876">online/online-deployment.yml</text></g></g><g id="minder_node67"><g id="node_expander64" display="none" style="cursor: pointer;"><path id="kity_path_565" fill="white" stroke="gray" d="M484.500012524426,917.5000053718686A6,6,0,1,1,472.500012524426,917.5000053718686A6,6,0,1,1,484.500012524426,917.5000053718686"></path><path id="kity_path_566" fill="none" stroke="gray"></path></g><path id="node_outline65" fill="none" stroke="none" d="M489.50001268833876,908.5000053718686h151a5,5,0,0,1,5,5v8a5,5,0,0,1,-5,5h-151a5,5,0,0,1,-5,-5v-8a5,5,0,0,1,5,-5z"></path><g id="node_text65" fill="black"><text id="kity_text_295" text-rendering="inherit" font-size="12" dy=".8em" y="909.7000053450465" x="489.50001268833876">batch/batch-endpoint.yml</text></g></g><g id="minder_node68"><g id="node_expander65" display="none" style="cursor: pointer;"><path id="kity_path_568" fill="white" stroke="gray" d="M484.500012524426,943.5000057592988A6,6,0,1,1,472.500012524426,943.5000057592988A6,6,0,1,1,484.500012524426,943.5000057592988"></path><path id="kity_path_569" fill="none" stroke="gray"></path></g><path id="node_outline66" fill="none" stroke="none" d="M489.50001268833876,934.5000057592988h168a5,5,0,0,1,5,5v8a5,5,0,0,1,-5,5h-168a5,5,0,0,1,-5,-5v-8a5,5,0,0,1,5,-5z"></path><g id="node_text66" fill="black"><text id="kity_text_297" text-rendering="inherit" font-size="12" dy=".8em" y="935.7000057324767" x="489.50001268833876">batch/batch-deployment.yml</text></g></g><g id="minder_node69"><g id="node_expander67" display="none" style="cursor: pointer;"><path id="kity_path_574" fill="white" stroke="gray" d="M411.5000114366412,974.5000062212348A6,6,0,1,1,399.5000114366412,974.5000062212348A6,6,0,1,1,411.5000114366412,974.5000062212348"></path><path id="kity_path_575" fill="none" stroke="gray"></path></g><path id="node_outline68" fill="none" stroke="none" d="M416.500011600554,965.5000062212348h148a5,5,0,0,1,5,5v8a5,5,0,0,1,-5,5h-148a5,5,0,0,1,-5,-5v-8a5,5,0,0,1,5,-5z"></path><g id="node_text68" fill="black"><text id="kity_text_301" text-rendering="inherit" font-size="12" dy=".8em" y="966.7000061944127" x="416.500011600554">../../data/taxi-request.json</text></g></g><g id="minder_node70"><g id="node_expander68" display="none" style="cursor: pointer;"><path id="kity_path_577" fill="white" stroke="gray" d="M411.5000114366412,1000.500006608665A6,6,0,1,1,399.5000114366412,1000.500006608665A6,6,0,1,1,411.5000114366412,1000.500006608665"></path><path id="kity_path_578" fill="none" stroke="gray"></path></g><path id="node_outline69" fill="none" stroke="none" d="M416.500011600554,991.500006608665h131a5,5,0,0,1,5,5v8a5,5,0,0,1,-5,5h-131a5,5,0,0,1,-5,-5v-8a5,5,0,0,1,5,-5z"></path><g id="node_text69" fill="black"><text id="kity_text_303" text-rendering="inherit" font-size="12" dy=".8em" y="992.7000065818429" x="416.500011600554">../../data/taxi-batch.csv</text></g></g></g></g></svg>