<svg id="kity_svg_6" xmlns="http://www.w3.org/2000/svg" xmlns:xlink="http://www.w3.org/1999/xlink" version="1.1" width="881" height="1030" style="background: rgb(251, 251, 251); visibility: visible;" viewBox="0 0 881 1030"><defs id="kity_defs_7"><linearGradient id="kity_linearGradient_17" x1="0" y1="0" x2="0" y2="1"><stop id="kity_stop_18" offset="0" stop-color="rgb(255, 255, 255)"></stop><stop id="kity_stop_19" offset="1" stop-color="rgb(204, 204, 204)"></stop></linearGradient><marker id="kity_marker_2" orient="auto" refX="6" refY="0" viewBox="-7 -7 14 14" markerWidth="7" markerHeight="7" markerUnits="userSpaceOnUse"><path id="kity_path_3" fill="rgb(115, 161, 191)" stroke="none" d="M6,0A6,6,0,1,1,-6,0A6,6,0,1,1,6,0"></path></marker></defs><g id="kity_g_8"><g id="minder1" text-rendering="optimize-speed"><g id="minder_connect_group1"><path id="kity_path_31" fill="none" stroke="rgb(115, 161, 191)" stroke-width="1" d="M36.500003688037395,566.5000069513917A116,475,0,0,1,152.5000036880374,91.5000069513917"></path><path id="kity_path_33" fill="none" stroke="rgb(115, 161, 191)" stroke-width="1" d="M348.5000036880374,91.5000069513917C388.5000036880374,91.5000069513917,388.5000036880374,59.5000069513917,428.5000036880374,59.5000069513917"></path><path id="kity_path_35" fill="none" stroke="rgb(115, 161, 191)" stroke-width="1" d="M505.5000036880374,59.5000069513917C522.5000036880374,59.5000069513917,522.5000036880374,54.5000069513917,539.5000036880374,54.5000069513917"></path><path id="kity_path_37" fill="none" stroke="rgb(115, 161, 191)" stroke-width="1" d="M560.5000036880374,54.5000069513917C568.5000036880374,54.5000069513917,568.5000036880374,28.500006951391697,576.5000036880374,28.500006951391697"></path><path id="kity_path_39" fill="none" stroke="rgb(115, 161, 191)" stroke-width="1" d="M560.5000036880374,54.5000069513917C568.5000036880374,54.5000069513917,568.5000036880374,54.5000069513917,576.5000036880374,54.5000069513917"></path><path id="kity_path_41" fill="none" stroke="rgb(115, 161, 191)" stroke-width="1" d="M560.5000036880374,54.5000069513917C568.5000036880374,54.5000069513917,568.5000036880374,80.5000069513917,576.5000036880374,80.5000069513917"></path><path id="kity_path_43" fill="none" stroke="rgb(115, 161, 191)" stroke-width="1" d="M505.5000036880374,59.5000069513917C329.0000036880374,59.5000069513917,329.0000036880374,252.5000069513917,152.5000036880374,252.5000069513917"></path><path id="kity_path_45" fill="none" stroke="rgb(115, 161, 191)" stroke-width="1" d="M303.5000036880374,252.5000069513917C311.5000036880374,252.5000069513917,311.5000036880374,252.5000069513917,319.5000036880374,252.5000069513917"></path><path id="kity_path_47" fill="none" stroke="rgb(115, 161, 191)" stroke-width="1" d="M361.5000036880374,252.5000069513917C369.5000036880374,252.5000069513917,369.5000036880374,168.5000069513917,377.5000036880374,168.5000069513917"></path><path id="kity_path_49" fill="none" stroke="rgb(115, 161, 191)" stroke-width="1" d="M436.5000036880374,168.5000069513917C444.5000036880374,168.5000069513917,444.5000036880374,168.5000069513917,452.5000036880374,168.5000069513917"></path><path id="kity_path_51" fill="none" stroke="rgb(115, 161, 191)" stroke-width="1" d="M361.5000036880374,252.5000069513917C369.5000036880374,252.5000069513917,369.5000036880374,194.5000069513917,377.5000036880374,194.5000069513917"></path><path id="kity_path_53" fill="none" stroke="rgb(115, 161, 191)" stroke-width="1" d="M484.5000036880374,194.5000069513917C492.5000036880374,194.5000069513917,492.5000036880374,194.5000069513917,500.5000036880374,194.5000069513917"></path><path id="kity_path_55" fill="none" stroke="rgb(115, 161, 191)" stroke-width="1" d="M361.5000036880374,252.5000069513917C369.5000036880374,252.5000069513917,369.5000036880374,259.5000069513917,377.5000036880374,259.5000069513917"></path><path id="kity_path_57" fill="none" stroke="rgb(115, 161, 191)" stroke-width="1" d="M457.5000036880374,259.5000069513917C465.5000036880374,259.5000069513917,465.5000036880374,259.5000069513917,473.5000036880374,259.5000069513917"></path><path id="kity_path_59" fill="none" stroke="rgb(115, 161, 191)" stroke-width="1" d="M593.5000036880374,259.5000069513917C601.5000036880374,259.5000069513917,601.5000036880374,220.5000069513917,609.5000036880374,220.5000069513917"></path><path id="kity_path_61" fill="none" stroke="rgb(115, 161, 191)" stroke-width="1" d="M593.5000036880374,259.5000069513917C601.5000036880374,259.5000069513917,601.5000036880374,246.5000069513917,609.5000036880374,246.5000069513917"></path><path id="kity_path_63" fill="none" stroke="rgb(115, 161, 191)" stroke-width="1" d="M593.5000036880374,259.5000069513917C601.5000036880374,259.5000069513917,601.5000036880374,272.5000069513917,609.5000036880374,272.5000069513917"></path><path id="kity_path_65" fill="none" stroke="rgb(115, 161, 191)" stroke-width="1" d="M593.5000036880374,259.5000069513917C601.5000036880374,259.5000069513917,601.5000036880374,298.5000069513917,609.5000036880374,298.5000069513917"></path><path id="kity_path_67" fill="none" stroke="rgb(115, 161, 191)" stroke-width="1" d="M361.5000036880374,252.5000069513917C369.5000036880374,252.5000069513917,369.5000036880374,337.5000069513917,377.5000036880374,337.5000069513917"></path><path id="kity_path_69" fill="none" stroke="rgb(115, 161, 191)" stroke-width="1" d="M503.5000036880374,337.5000069513917C511.5000036880374,337.5000069513917,511.5000036880374,337.5000069513917,519.5000036880374,337.5000069513917"></path><path id="kity_path_71" fill="none" stroke="rgb(115, 161, 191)" stroke-width="1" d="M639.5000036880374,337.5000069513917C647.5000036880374,337.5000069513917,647.5000036880374,324.5000069513917,655.5000036880374,324.5000069513917"></path><path id="kity_path_73" fill="none" stroke="rgb(115, 161, 191)" stroke-width="1" d="M639.5000036880374,337.5000069513917C647.5000036880374,337.5000069513917,647.5000036880374,350.5000069513917,655.5000036880374,350.5000069513917"></path><path id="kity_path_75" fill="none" stroke="rgb(115, 161, 191)" stroke-width="1" d="M348.5000036880374,91.5000069513917C386.5000036880374,91.5000069513917,386.5000036880374,111.5000069513917,424.5000036880374,111.5000069513917"></path><path id="kity_path_77" fill="none" stroke="rgb(115, 161, 191)" stroke-width="1" d="M509.5000036880374,111.5000069513917C526.5000036880374,111.5000069513917,526.5000036880374,125.5000069513917,543.5000036880374,125.5000069513917"></path><path id="kity_path_79" fill="none" stroke="rgb(115, 161, 191)" stroke-width="1" d="M564.5000036880374,125.5000069513917C572.5000036880374,125.5000069513917,572.5000036880374,99.5000069513917,580.5000036880374,99.5000069513917"></path><path id="kity_path_81" fill="none" stroke="rgb(115, 161, 191)" stroke-width="1" d="M564.5000036880374,125.5000069513917C572.5000036880374,125.5000069513917,572.5000036880374,125.5000069513917,580.5000036880374,125.5000069513917"></path><path id="kity_path_83" fill="none" stroke="rgb(115, 161, 191)" stroke-width="1" d="M564.5000036880374,125.5000069513917C572.5000036880374,125.5000069513917,572.5000036880374,151.5000069513917,580.5000036880374,151.5000069513917"></path><path id="kity_path_85" fill="none" stroke="rgb(115, 161, 191)" stroke-width="1" d="M509.5000036880374,111.5000069513917C324.5000036880374,111.5000069513917,324.5000036880374,418.5000069513917,139.5000036880374,418.5000069513917"></path><path id="kity_path_109" fill="none" stroke="rgb(115, 161, 191)" stroke-width="1" d="M36.500003688037395,566.5000069513917A92,85,0,0,0,128.5000036880374,651.5000069513917"></path><path id="kity_path_113" fill="none" stroke="rgb(115, 161, 191)" stroke-width="1" d="M36.500003688037395,566.5000069513917A93,122,0,0,0,129.5000036880374,688.5000069513917"></path><path id="kity_path_117" fill="none" stroke="rgb(115, 161, 191)" stroke-width="1" d="M36.500003688037395,566.5000069513917A94,33,0,0,0,130.5000036880374,599.5000069513917"></path><path id="kity_path_123" fill="none" stroke="rgb(115, 161, 191)" stroke-width="1" d="M36.500003688037395,566.5000069513917A95,14,0,0,1,131.5000036880374,552.5000069513917"></path><path id="kity_path_129" fill="none" stroke="rgb(115, 161, 191)" stroke-width="1" d="M36.500003688037395,566.5000069513917A102,340,0,0,0,138.5000036880374,906.5000069513917"></path><path id="kity_path_643" fill="none" stroke="rgb(115, 161, 191)" stroke-width="1" d="M459.5000036880374,552.5000069513917C467.5000036880374,552.5000069513917,467.5000036880374,539.5000069513917,475.5000036880374,539.5000069513917"></path><path id="kity_path_644" fill="none" stroke="rgb(115, 161, 191)" stroke-width="1" d="M459.5000036880374,552.5000069513917C467.5000036880374,552.5000069513917,467.5000036880374,565.5000069513917,475.5000036880374,565.5000069513917"></path><path id="kity_path_645" fill="none" stroke="rgb(115, 161, 191)" stroke-width="1" d="M454.5000036880374,599.5000069513917C462.5000036880374,599.5000069513917,462.5000036880374,586.5000069513917,470.5000036880374,586.5000069513917"></path><path id="kity_path_646" fill="none" stroke="rgb(115, 161, 191)" stroke-width="1" d="M454.5000036880374,599.5000069513917C462.5000036880374,599.5000069513917,462.5000036880374,612.5000069513917,470.5000036880374,612.5000069513917"></path><path id="kity_path_647" fill="none" stroke="rgb(115, 161, 191)" stroke-width="1" d="M485.5000036880374,688.5000069513917C493.5000036880374,688.5000069513917,493.5000036880374,688.5000069513917,501.5000036880374,688.5000069513917"></path><path id="kity_path_648" fill="none" stroke="rgb(115, 161, 191)" stroke-width="1" d="M488.5000036880374,651.5000069513917C496.5000036880374,651.5000069513917,496.5000036880374,651.5000069513917,504.5000036880374,651.5000069513917"></path><path id="kity_path_649" fill="none" stroke="rgb(115, 161, 191)" stroke-width="1" d="M484.5000036880374,779.5000069513917C492.5000036880374,779.5000069513917,492.5000036880374,721.5000069513917,500.5000036880374,721.5000069513917"></path><path id="kity_path_650" fill="none" stroke="rgb(115, 161, 191)" stroke-width="1" d="M559.5000036880374,747.5000069513917C567.5000036880374,747.5000069513917,567.5000036880374,747.5000069513917,575.5000036880374,747.5000069513917"></path><path id="kity_path_651" fill="none" stroke="rgb(115, 161, 191)" stroke-width="1" d="M484.5000036880374,779.5000069513917C492.5000036880374,779.5000069513917,492.5000036880374,747.5000069513917,500.5000036880374,747.5000069513917"></path><path id="kity_path_652" fill="none" stroke="rgb(115, 161, 191)" stroke-width="1" d="M607.5000036880374,773.5000069513917C615.5000036880374,773.5000069513917,615.5000036880374,773.5000069513917,623.5000036880374,773.5000069513917"></path><path id="kity_path_653" fill="none" stroke="rgb(115, 161, 191)" stroke-width="1" d="M484.5000036880374,779.5000069513917C492.5000036880374,779.5000069513917,492.5000036880374,773.5000069513917,500.5000036880374,773.5000069513917"></path><path id="kity_path_654" fill="none" stroke="rgb(115, 161, 191)" stroke-width="1" d="M716.5000036880374,838.5000069513917C724.5000036880374,838.5000069513917,724.5000036880374,799.5000069513917,732.5000036880374,799.5000069513917"></path><path id="kity_path_655" fill="none" stroke="rgb(115, 161, 191)" stroke-width="1" d="M716.5000036880374,838.5000069513917C724.5000036880374,838.5000069513917,724.5000036880374,825.5000069513917,732.5000036880374,825.5000069513917"></path><path id="kity_path_656" fill="none" stroke="rgb(115, 161, 191)" stroke-width="1" d="M716.5000036880374,838.5000069513917C724.5000036880374,838.5000069513917,724.5000036880374,851.5000069513917,732.5000036880374,851.5000069513917"></path><path id="kity_path_657" fill="none" stroke="rgb(115, 161, 191)" stroke-width="1" d="M716.5000036880374,838.5000069513917C724.5000036880374,838.5000069513917,724.5000036880374,877.5000069513917,732.5000036880374,877.5000069513917"></path><path id="kity_path_658" fill="none" stroke="rgb(115, 161, 191)" stroke-width="1" d="M580.5000036880374,838.5000069513917C588.5000036880374,838.5000069513917,588.5000036880374,838.5000069513917,596.5000036880374,838.5000069513917"></path><path id="kity_path_659" fill="none" stroke="rgb(115, 161, 191)" stroke-width="1" d="M484.5000036880374,779.5000069513917C492.5000036880374,779.5000069513917,492.5000036880374,838.5000069513917,500.5000036880374,838.5000069513917"></path><path id="kity_path_660" fill="none" stroke="rgb(115, 161, 191)" stroke-width="1" d="M426.5000036880374,906.5000069513917C434.5000036880374,906.5000069513917,434.5000036880374,779.5000069513917,442.5000036880374,779.5000069513917"></path><path id="kity_path_661" fill="none" stroke="rgb(115, 161, 191)" stroke-width="1" d="M503.5000036880374,904.5000069513917C511.5000036880374,904.5000069513917,511.5000036880374,865.5000069513917,519.5000036880374,865.5000069513917"></path><path id="kity_path_662" fill="none" stroke="rgb(115, 161, 191)" stroke-width="1" d="M503.5000036880374,904.5000069513917C511.5000036880374,904.5000069513917,511.5000036880374,891.5000069513917,519.5000036880374,891.5000069513917"></path><path id="kity_path_663" fill="none" stroke="rgb(115, 161, 191)" stroke-width="1" d="M503.5000036880374,904.5000069513917C511.5000036880374,904.5000069513917,511.5000036880374,917.5000069513917,519.5000036880374,917.5000069513917"></path><path id="kity_path_664" fill="none" stroke="rgb(115, 161, 191)" stroke-width="1" d="M503.5000036880374,904.5000069513917C511.5000036880374,904.5000069513917,511.5000036880374,943.5000069513917,519.5000036880374,943.5000069513917"></path><path id="kity_path_665" fill="none" stroke="rgb(115, 161, 191)" stroke-width="1" d="M426.5000036880374,906.5000069513917C437.5000036880374,906.5000069513917,437.5000036880374,904.5000069513917,448.5000036880374,904.5000069513917"></path><path id="kity_path_666" fill="none" stroke="rgb(115, 161, 191)" stroke-width="1" d="M426.5000036880374,906.5000069513917C436.5000036880374,906.5000069513917,436.5000036880374,974.5000069513917,446.5000036880374,974.5000069513917"></path><path id="kity_path_667" fill="none" stroke="rgb(115, 161, 191)" stroke-width="1" d="M426.5000036880374,906.5000069513917C436.5000036880374,906.5000069513917,436.5000036880374,1000.5000069513917,446.5000036880374,1000.5000069513917"></path><path id="kity_path_679" fill="none" stroke="rgb(115, 161, 191)" stroke-width="1" d="M355.5000036880374,418.5000069513917C363.5000036880374,418.5000069513917,363.5000036880374,373.5000069513917,371.5000036880374,373.5000069513917"></path><path id="kity_path_680" fill="none" stroke="rgb(115, 161, 191)" stroke-width="1" d="M355.5000036880374,418.5000069513917C363.5000036880374,418.5000069513917,363.5000036880374,399.5000069513917,371.5000036880374,399.5000069513917"></path><path id="kity_path_681" fill="none" stroke="rgb(115, 161, 191)" stroke-width="1" d="M551.5000036880374,425.5000069513917C559.5000036880374,425.5000069513917,559.5000036880374,425.5000069513917,567.5000036880374,425.5000069513917"></path><path id="kity_path_682" fill="none" stroke="rgb(115, 161, 191)" stroke-width="1" d="M475.5000036880374,464.5000069513917C483.5000036880374,464.5000069513917,483.5000036880374,425.5000069513917,491.5000036880374,425.5000069513917"></path><path id="kity_path_683" fill="none" stroke="rgb(115, 161, 191)" stroke-width="1" d="M551.5000036880374,451.5000069513917C559.5000036880374,451.5000069513917,559.5000036880374,451.5000069513917,567.5000036880374,451.5000069513917"></path><path id="kity_path_684" fill="none" stroke="rgb(115, 161, 191)" stroke-width="1" d="M475.5000036880374,464.5000069513917C483.5000036880374,464.5000069513917,483.5000036880374,451.5000069513917,491.5000036880374,451.5000069513917"></path><path id="kity_path_685" fill="none" stroke="rgb(115, 161, 191)" stroke-width="1" d="M573.5000036880374,477.5000069513917C581.5000036880374,477.5000069513917,581.5000036880374,477.5000069513917,589.5000036880374,477.5000069513917"></path><path id="kity_path_686" fill="none" stroke="rgb(115, 161, 191)" stroke-width="1" d="M475.5000036880374,464.5000069513917C483.5000036880374,464.5000069513917,483.5000036880374,477.5000069513917,491.5000036880374,477.5000069513917"></path><path id="kity_path_687" fill="none" stroke="rgb(115, 161, 191)" stroke-width="1" d="M568.5000036880374,503.5000069513917C576.5000036880374,503.5000069513917,576.5000036880374,503.5000069513917,584.5000036880374,503.5000069513917"></path><path id="kity_path_688" fill="none" stroke="rgb(115, 161, 191)" stroke-width="1" d="M475.5000036880374,464.5000069513917C483.5000036880374,464.5000069513917,483.5000036880374,503.5000069513917,491.5000036880374,503.5000069513917"></path><path id="kity_path_689" fill="none" stroke="rgb(115, 161, 191)" stroke-width="1" d="M355.5000036880374,418.5000069513917C363.5000036880374,418.5000069513917,363.5000036880374,464.5000069513917,371.5000036880374,464.5000069513917"></path></g><g id="minder_node1"><path id="node_outline1" fill="#f79646" stroke="rgb(115, 161, 191)" d="M25.500003688037395,552.5000069513917h22a5,5,0,0,1,5,5v18a5,5,0,0,1,-5,5h-22a5,5,0,0,1,-5,-5v-18a5,5,0,0,1,5,-5z" stroke-width="3"></path><g id="node_text1" fill="white"><text id="kity_text_22" text-rendering="inherit" font-size="16" dy=".8em" y="556.1000069156289" x="32.500003688037395">/</text></g></g><g id="kity_g_12" display="none"><path id="kity_path_13" fill="none" stroke="none" d="M32.500003688037395,566.5000069513917h0v0h0z"></path></g><g id="kity_g_14" display="none"><path id="kity_path_15" fill="none" stroke="none" d="M32.500003688037395,566.5000069513917h0v0h0z"></path><path id="kity_path_16" fill="none" stroke="none"></path></g><g id="minder_node2"><g id="node_expander39" style="cursor: pointer;"><path id="kity_path_490" fill="white" stroke="gray" d="M153.50000540167093,91.49999987334013A6,6,0,1,1,141.50000540167093,91.49999987334013A6,6,0,1,1,153.50000540167093,91.49999987334013"></path><path id="kity_path_491" fill="none" stroke="gray" d="M143.00000540167093,91.49999987334013L152.00000540167093,91.49999987334013"></path></g><path id="node_outline40" fill="#f79646" stroke="rgb(115, 161, 191)" d="M157.50000580400229,78.49999987334013h188a3,3,0,0,1,3,3v20a3,3,0,0,1,-3,3h-188a3,3,0,0,1,-3,-3v-20a3,3,0,0,1,3,-3z" stroke-width="1"></path><g id="node_text40" fill="black"><text id="kity_text_245" text-rendering="inherit" font-size="14" dy=".8em" y="82.39999984204769" x="174.50000580400229">/ci-cd/azure-pipelines/</text></g></g><g id="minder_node3"><g id="node_expander21" style="cursor: pointer;"><path id="kity_path_436" fill="white" stroke="gray" d="M428.50000949949026,59.49999939650297A6,6,0,1,1,416.50000949949026,59.49999939650297A6,6,0,1,1,428.50000949949026,59.49999939650297"></path><path id="kity_path_437" fill="none" stroke="gray" d="M418.00000949949026,59.49999939650297L427.00000949949026,59.49999939650297"></path></g><path id="node_outline22" fill="none" stroke="none" d="M433.50000966340303,50.49999939650297h67a5,5,0,0,1,5,5v8a5,5,0,0,1,-5,5h-67a5,5,0,0,1,-5,-5v-8a5,5,0,0,1,5,-5z"></path><g id="node_text22" fill="black"><text id="kity_text_209" text-rendering="inherit" font-size="12" dy=".8em" y="51.69999936968088" x="433.50000966340303">cli/train.yml</text></g></g><g id="minder_node4"><g id="node_expander4" style="cursor: pointer;"><path id="kity_path_385" fill="white" stroke="gray" d="M539.5000111535192,54.499999321997166A6,6,0,1,1,527.5000111535192,54.499999321997166A6,6,0,1,1,539.5000111535192,54.499999321997166"></path><path id="kity_path_386" fill="none" stroke="gray" d="M529.0000111535192,54.499999321997166L538.0000111535192,54.499999321997166"></path></g><path id="node_outline5" fill="#f79646" stroke="none" d="M544.5000113174319,45.499999321997166h11a5,5,0,0,1,5,5v8a5,5,0,0,1,-5,5h-11a5,5,0,0,1,-5,-5v-8a5,5,0,0,1,5,-5z"></path><g id="node_text5" fill="black"><text id="kity_text_175" text-rendering="inherit" font-size="12" dy=".8em" y="46.699999295175076" x="544.5000113174319">../</text></g></g><g id="minder_node5"><g id="node_expander1" display="none" style="cursor: pointer;"><path id="kity_path_376" fill="white" stroke="gray" d="M576.5000117048621,28.499998934566975A6,6,0,1,1,564.5000117048621,28.499998934566975A6,6,0,1,1,576.5000117048621,28.499998934566975"></path><path id="kity_path_377" fill="none" stroke="gray"></path></g><path id="node_outline2" fill="none" stroke="none" d="M581.5000118687749,19.499998934566975h120a5,5,0,0,1,5,5v8a5,5,0,0,1,-5,5h-120a5,5,0,0,1,-5,-5v-8a5,5,0,0,1,5,-5z"></path><g id="node_text2" fill="black"><text id="kity_text_169" text-rendering="inherit" font-size="12" dy=".8em" y="20.699998907744884" x="581.5000118687749">dev-requirements.txt</text></g></g><g id="minder_node6"><g id="node_expander2" display="none" style="cursor: pointer;"><path id="kity_path_379" fill="white" stroke="gray" d="M576.5000117048621,54.499999321997166A6,6,0,1,1,564.5000117048621,54.499999321997166A6,6,0,1,1,576.5000117048621,54.499999321997166"></path><path id="kity_path_380" fill="none" stroke="gray"></path></g><path id="node_outline3" fill="none" stroke="none" d="M581.5000118687749,45.499999321997166h73a5,5,0,0,1,5,5v8a5,5,0,0,1,-5,5h-73a5,5,0,0,1,-5,-5v-8a5,5,0,0,1,5,-5z"></path><g id="node_text3" fill="black"><text id="kity_text_171" text-rendering="inherit" font-size="12" dy=".8em" y="46.699999295175076" x="581.5000118687749">setup-sdk.sh</text></g></g><g id="minder_node7"><g id="node_expander3" display="none" style="cursor: pointer;"><path id="kity_path_382" fill="white" stroke="gray" d="M576.5000117048621,80.49999970942736A6,6,0,1,1,564.5000117048621,80.49999970942736A6,6,0,1,1,576.5000117048621,80.49999970942736"></path><path id="kity_path_383" fill="none" stroke="gray"></path></g><path id="node_outline4" fill="none" stroke="none" d="M581.5000118687749,71.49999970942736h65a5,5,0,0,1,5,5v8a5,5,0,0,1,-5,5h-65a5,5,0,0,1,-5,-5v-8a5,5,0,0,1,5,-5z"></path><g id="node_text4" fill="black"><text id="kity_text_173" text-rendering="inherit" font-size="12" dy=".8em" y="72.69999968260527" x="581.5000118687749">setup-cli.sh</text></g></g><g id="minder_node8"><g id="node_expander20" style="cursor: pointer;"><path id="kity_path_433" fill="white" stroke="gray" d="M152.50000538676977,252.50000227242708A6,6,0,1,1,140.50000538676977,252.50000227242708A6,6,0,1,1,152.50000538676977,252.50000227242708"></path><path id="kity_path_434" fill="none" stroke="gray" d="M142.00000538676977,252.50000227242708L151.00000538676977,252.50000227242708"></path></g><path id="node_outline21" fill="none" stroke="none" d="M157.50000555068254,243.50000227242708h141a5,5,0,0,1,5,5v8a5,5,0,0,1,-5,5h-141a5,5,0,0,1,-5,-5v-8a5,5,0,0,1,5,-5z"></path><g id="node_text21" fill="black"><text id="kity_text_207" text-rendering="inherit" font-size="12" dy=".8em" y="244.700002245605" x="157.50000555068254">/ml-pipelines/cli/train.sh</text></g></g><g id="minder_node9"><g id="node_expander19" style="cursor: pointer;"><path id="kity_path_430" fill="white" stroke="gray" d="M319.5000078752637,252.50000227242708A6,6,0,1,1,307.5000078752637,252.50000227242708A6,6,0,1,1,319.5000078752637,252.50000227242708"></path><path id="kity_path_431" fill="none" stroke="gray" d="M309.0000078752637,252.50000227242708L318.0000078752637,252.50000227242708"></path></g><path id="node_outline20" fill="#f79646" stroke="none" d="M324.50000803917646,243.50000227242708h32a5,5,0,0,1,5,5v8a5,5,0,0,1,-5,5h-32a5,5,0,0,1,-5,-5v-8a5,5,0,0,1,5,-5z"></path><g id="node_text20" fill="black"><text id="kity_text_205" text-rendering="inherit" font-size="12" dy=".8em" y="244.700002245605" x="324.50000803917646">train/</text></g></g><g id="minder_node10"><g id="node_expander6" style="cursor: pointer;"><path id="kity_path_391" fill="white" stroke="gray" d="M377.50000873953104,168.50000102072954A6,6,0,1,1,365.50000873953104,168.50000102072954A6,6,0,1,1,377.50000873953104,168.50000102072954"></path><path id="kity_path_392" fill="none" stroke="gray" d="M367.00000873953104,168.50000102072954L376.00000873953104,168.50000102072954"></path></g><path id="node_outline7" fill="none" stroke="none" d="M382.5000089034438,159.50000102072954h49a5,5,0,0,1,5,5v8a5,5,0,0,1,-5,5h-49a5,5,0,0,1,-5,-5v-8a5,5,0,0,1,5,-5z"></path><g id="node_text7" fill="black"><text id="kity_text_179" text-rendering="inherit" font-size="12" dy=".8em" y="160.70000099390745" x="382.5000089034438">data.yml</text></g></g><g id="minder_node11"><g id="node_expander5" display="none" style="cursor: pointer;"><path id="kity_path_388" fill="white" stroke="gray" d="M452.50000985711813,168.50000102072954A6,6,0,1,1,440.50000985711813,168.50000102072954A6,6,0,1,1,452.50000985711813,168.50000102072954"></path><path id="kity_path_389" fill="none" stroke="gray"></path></g><path id="node_outline6" fill="none" stroke="none" d="M457.5000100210309,159.50000102072954h135a5,5,0,0,1,5,5v8a5,5,0,0,1,-5,5h-135a5,5,0,0,1,-5,-5v-8a5,5,0,0,1,5,-5z"></path><g id="node_text6" fill="black"><text id="kity_text_177" text-rendering="inherit" font-size="12" dy=".8em" y="160.70000099390745" x="457.5000100210309">../../../data/taxi-data.csv</text></g></g><g id="minder_node12"><g id="node_expander8" style="cursor: pointer;"><path id="kity_path_397" fill="white" stroke="gray" d="M377.50000873953104,194.50000140815973A6,6,0,1,1,365.50000873953104,194.50000140815973A6,6,0,1,1,377.50000873953104,194.50000140815973"></path><path id="kity_path_398" fill="none" stroke="gray" d="M367.00000873953104,194.50000140815973L376.00000873953104,194.50000140815973"></path></g><path id="node_outline9" fill="none" stroke="none" d="M382.5000089034438,185.50000140815973h97a5,5,0,0,1,5,5v8a5,5,0,0,1,-5,5h-97a5,5,0,0,1,-5,-5v-8a5,5,0,0,1,5,-5z"></path><g id="node_text9" fill="black"><text id="kity_text_183" text-rendering="inherit" font-size="12" dy=".8em" y="186.70000138133764" x="382.5000089034438">environment.yml</text></g></g><g id="minder_node13"><g id="node_expander7" display="none" style="cursor: pointer;"><path id="kity_path_394" fill="white" stroke="gray" d="M500.50001057237387,194.50000140815973A6,6,0,1,1,488.50001057237387,194.50000140815973A6,6,0,1,1,500.50001057237387,194.50000140815973"></path><path id="kity_path_395" fill="none" stroke="gray"></path></g><path id="node_outline8" fill="none" stroke="none" d="M505.50001073628664,185.50000140815973h202a5,5,0,0,1,5,5v8a5,5,0,0,1,-5,5h-202a5,5,0,0,1,-5,-5v-8a5,5,0,0,1,5,-5z"></path><g id="node_text8" fill="black"><text id="kity_text_181" text-rendering="inherit" font-size="12" dy=".8em" y="186.70000138133764" x="505.50001073628664">../../../environment/train-conda.yml</text></g></g><g id="minder_node14"><g id="node_expander14" style="cursor: pointer;"><path id="kity_path_415" fill="white" stroke="gray" d="M377.50000873953104,259.5000023767352A6,6,0,1,1,365.50000873953104,259.5000023767352A6,6,0,1,1,377.50000873953104,259.5000023767352"></path><path id="kity_path_416" fill="none" stroke="gray" d="M367.00000873953104,259.5000023767352L376.00000873953104,259.5000023767352"></path></g><path id="node_outline15" fill="none" stroke="none" d="M382.5000089034438,250.5000023767352h70a5,5,0,0,1,5,5v8a5,5,0,0,1,-5,5h-70a5,5,0,0,1,-5,-5v-8a5,5,0,0,1,5,-5z"></path><g id="node_text15" fill="black"><text id="kity_text_195" text-rendering="inherit" font-size="12" dy=".8em" y="251.70000234991312" x="382.5000089034438">pipeline.yml</text></g></g><g id="minder_node15"><g id="node_expander13" style="cursor: pointer;"><path id="kity_path_412" fill="white" stroke="gray" d="M473.5000101700425,259.5000023767352A6,6,0,1,1,461.5000101700425,259.5000023767352A6,6,0,1,1,473.5000101700425,259.5000023767352"></path><path id="kity_path_413" fill="none" stroke="gray" d="M463.0000101700425,259.5000023767352L472.0000101700425,259.5000023767352"></path></g><path id="node_outline14" fill="#f79646" stroke="none" d="M478.5000103339553,250.5000023767352h110a5,5,0,0,1,5,5v8a5,5,0,0,1,-5,5h-110a5,5,0,0,1,-5,-5v-8a5,5,0,0,1,5,-5z"></path><g id="node_text14" fill="black"><text id="kity_text_193" text-rendering="inherit" font-size="12" dy=".8em" y="251.70000234991312" x="478.5000103339553">../../../components/</text></g></g><g id="minder_node16"><g id="node_expander9" display="none" style="cursor: pointer;"><path id="kity_path_400" fill="white" stroke="gray" d="M609.5000121966004,220.50000179558992A6,6,0,1,1,597.5000121966004,220.50000179558992A6,6,0,1,1,609.5000121966004,220.50000179558992"></path><path id="kity_path_401" fill="none" stroke="gray"></path></g><path id="node_outline10" fill="none" stroke="none" d="M614.5000123605132,211.50000179558992h76a5,5,0,0,1,5,5v8a5,5,0,0,1,-5,5h-76a5,5,0,0,1,-5,-5v-8a5,5,0,0,1,5,-5z"></path><g id="node_text10" fill="black"><text id="kity_text_185" text-rendering="inherit" font-size="12" dy=".8em" y="212.70000176876783" x="614.5000123605132">prep/prep.py</text></g></g><g id="minder_node17"><g id="node_expander10" display="none" style="cursor: pointer;"><path id="kity_path_403" fill="white" stroke="gray" d="M609.5000121966004,246.50000218302011A6,6,0,1,1,597.5000121966004,246.50000218302011A6,6,0,1,1,609.5000121966004,246.50000218302011"></path><path id="kity_path_404" fill="none" stroke="gray"></path></g><path id="node_outline11" fill="none" stroke="none" d="M614.5000123605132,237.50000218302011h75a5,5,0,0,1,5,5v8a5,5,0,0,1,-5,5h-75a5,5,0,0,1,-5,-5v-8a5,5,0,0,1,5,-5z"></path><g id="node_text11" fill="black"><text id="kity_text_187" text-rendering="inherit" font-size="12" dy=".8em" y="238.70000215619802" x="614.5000123605132">train/train.py</text></g></g><g id="minder_node18"><g id="node_expander11" display="none" style="cursor: pointer;"><path id="kity_path_406" fill="white" stroke="gray" d="M609.5000121966004,272.5000025704503A6,6,0,1,1,597.5000121966004,272.5000025704503A6,6,0,1,1,609.5000121966004,272.5000025704503"></path><path id="kity_path_407" fill="none" stroke="gray"></path></g><path id="node_outline12" fill="none" stroke="none" d="M614.5000123605132,263.5000025704503h119a5,5,0,0,1,5,5v8a5,5,0,0,1,-5,5h-119a5,5,0,0,1,-5,-5v-8a5,5,0,0,1,5,-5z"></path><g id="node_text12" fill="black"><text id="kity_text_189" text-rendering="inherit" font-size="12" dy=".8em" y="264.7000025436282" x="614.5000123605132">evaluate/evaluate.py</text></g></g><g id="minder_node19"><g id="node_expander12" display="none" style="cursor: pointer;"><path id="kity_path_409" fill="white" stroke="gray" d="M609.5000121966004,298.5000029578805A6,6,0,1,1,597.5000121966004,298.5000029578805A6,6,0,1,1,609.5000121966004,298.5000029578805"></path><path id="kity_path_410" fill="none" stroke="gray"></path></g><path id="node_outline13" fill="none" stroke="none" d="M614.5000123605132,289.5000029578805h110a5,5,0,0,1,5,5v8a5,5,0,0,1,-5,5h-110a5,5,0,0,1,-5,-5v-8a5,5,0,0,1,5,-5z"></path><g id="node_text13" fill="black"><text id="kity_text_191" text-rendering="inherit" font-size="12" dy=".8em" y="290.7000029310584" x="614.5000123605132">register/register.py</text></g></g><g id="minder_node20"><g id="node_expander18" style="cursor: pointer;"><path id="kity_path_427" fill="white" stroke="gray" d="M377.50000873953104,337.5000035390258A6,6,0,1,1,365.50000873953104,337.5000035390258A6,6,0,1,1,377.50000873953104,337.5000035390258"></path><path id="kity_path_428" fill="none" stroke="gray" d="M367.00000873953104,337.5000035390258L376.00000873953104,337.5000035390258"></path></g><path id="node_outline19" fill="none" stroke="none" d="M382.5000089034438,328.5000035390258h116a5,5,0,0,1,5,5v8a5,5,0,0,1,-5,5h-116a5,5,0,0,1,-5,-5v-8a5,5,0,0,1,5,-5z"></path><g id="node_text19" fill="black"><text id="kity_text_203" text-rendering="inherit" font-size="12" dy=".8em" y="329.7000035122037" x="382.5000089034438">pipeline_automl.yml</text></g></g><g id="minder_node21"><g id="node_expander17" style="cursor: pointer;"><path id="kity_path_424" fill="white" stroke="gray" d="M519.5000108554959,337.5000035390258A6,6,0,1,1,507.50001085549593,337.5000035390258A6,6,0,1,1,519.5000108554959,337.5000035390258"></path><path id="kity_path_425" fill="none" stroke="gray" d="M509.00001085549593,337.5000035390258L518.0000108554959,337.5000035390258"></path></g><path id="node_outline18" fill="#f79646" stroke="none" d="M524.5000110194087,328.5000035390258h110a5,5,0,0,1,5,5v8a5,5,0,0,1,-5,5h-110a5,5,0,0,1,-5,-5v-8a5,5,0,0,1,5,-5z"></path><g id="node_text18" fill="black"><text id="kity_text_201" text-rendering="inherit" font-size="12" dy=".8em" y="329.7000035122037" x="524.5000110194087">../../../components/</text></g></g><g id="minder_node22"><g id="node_expander15" display="none" style="cursor: pointer;"><path id="kity_path_418" fill="white" stroke="gray" d="M655.5000128820539,324.5000033453107A6,6,0,1,1,643.5000128820539,324.5000033453107A6,6,0,1,1,655.5000128820539,324.5000033453107"></path><path id="kity_path_419" fill="none" stroke="gray"></path></g><path id="node_outline16" fill="none" stroke="none" d="M660.5000130459666,315.5000033453107h76a5,5,0,0,1,5,5v8a5,5,0,0,1,-5,5h-76a5,5,0,0,1,-5,-5v-8a5,5,0,0,1,5,-5z"></path><g id="node_text16" fill="black"><text id="kity_text_197" text-rendering="inherit" font-size="12" dy=".8em" y="316.7000033184886" x="660.5000130459666">prep/prep.py</text></g></g><g id="minder_node23"><g id="node_expander16" display="none" style="cursor: pointer;"><path id="kity_path_421" fill="white" stroke="gray" d="M655.5000128820539,350.5000037327409A6,6,0,1,1,643.5000128820539,350.5000037327409A6,6,0,1,1,655.5000128820539,350.5000037327409"></path><path id="kity_path_422" fill="none" stroke="gray"></path></g><path id="node_outline17" fill="none" stroke="none" d="M660.5000130459666,341.5000037327409h156a5,5,0,0,1,5,5v8a5,5,0,0,1,-5,5h-156a5,5,0,0,1,-5,-5v-8a5,5,0,0,1,5,-5z"></path><g id="node_text17" fill="black"><text id="kity_text_199" text-rendering="inherit" font-size="12" dy=".8em" y="342.7000037059188" x="660.5000130459666">register/register_automl.py</text></g></g><g id="minder_node24"><g id="node_expander38" style="cursor: pointer;"><path id="kity_path_487" fill="white" stroke="gray" d="M424.5000094398856,111.50000017136335A6,6,0,1,1,412.5000094398856,111.50000017136335A6,6,0,1,1,424.5000094398856,111.50000017136335"></path><path id="kity_path_488" fill="none" stroke="gray" d="M414.0000094398856,111.50000017136335L423.0000094398856,111.50000017136335"></path></g><path id="node_outline39" fill="none" stroke="none" d="M429.5000096037984,102.50000017136335h75a5,5,0,0,1,5,5v8a5,5,0,0,1,-5,5h-75a5,5,0,0,1,-5,-5v-8a5,5,0,0,1,5,-5z"></path><g id="node_text39" fill="black"><text id="kity_text_243" text-rendering="inherit" font-size="12" dy=".8em" y="103.70000014454126" x="429.5000096037984">sdk/train.yml</text></g></g><g id="minder_node25"><g id="node_expander25" style="cursor: pointer;"><path id="kity_path_448" fill="white" stroke="gray" d="M543.5000112131238,125.50000037997961A6,6,0,1,1,531.5000112131238,125.50000037997961A6,6,0,1,1,543.5000112131238,125.50000037997961"></path><path id="kity_path_449" fill="none" stroke="gray" d="M533.0000112131238,125.50000037997961L542.0000112131238,125.50000037997961"></path></g><path id="node_outline26" fill="#f79646" stroke="none" d="M548.5000113770366,116.50000037997961h11a5,5,0,0,1,5,5v8a5,5,0,0,1,-5,5h-11a5,5,0,0,1,-5,-5v-8a5,5,0,0,1,5,-5z"></path><g id="node_text26" fill="black"><text id="kity_text_217" text-rendering="inherit" font-size="12" dy=".8em" y="117.70000035315752" x="548.5000113770366">../</text></g></g><g id="minder_node26"><g id="node_expander22" display="none" style="cursor: pointer;"><path id="kity_path_439" fill="white" stroke="gray" d="M580.5000117644668,99.49999999254942A6,6,0,1,1,568.5000117644668,99.49999999254942A6,6,0,1,1,580.5000117644668,99.49999999254942"></path><path id="kity_path_440" fill="none" stroke="gray"></path></g><path id="node_outline23" fill="none" stroke="none" d="M585.5000119283795,90.49999999254942h120a5,5,0,0,1,5,5v8a5,5,0,0,1,-5,5h-120a5,5,0,0,1,-5,-5v-8a5,5,0,0,1,5,-5z"></path><g id="node_text23" fill="black"><text id="kity_text_211" text-rendering="inherit" font-size="12" dy=".8em" y="91.69999996572733" x="585.5000119283795">dev-requirements.txt</text></g></g><g id="minder_node27"><g id="node_expander23" display="none" style="cursor: pointer;"><path id="kity_path_442" fill="white" stroke="gray" d="M580.5000117644668,125.50000037997961A6,6,0,1,1,568.5000117644668,125.50000037997961A6,6,0,1,1,580.5000117644668,125.50000037997961"></path><path id="kity_path_443" fill="none" stroke="gray"></path></g><path id="node_outline24" fill="none" stroke="none" d="M585.5000119283795,116.50000037997961h73a5,5,0,0,1,5,5v8a5,5,0,0,1,-5,5h-73a5,5,0,0,1,-5,-5v-8a5,5,0,0,1,5,-5z"></path><g id="node_text24" fill="black"><text id="kity_text_213" text-rendering="inherit" font-size="12" dy=".8em" y="117.70000035315752" x="585.5000119283795">setup-sdk.sh</text></g></g><g id="minder_node28"><g id="node_expander24" display="none" style="cursor: pointer;"><path id="kity_path_445" fill="white" stroke="gray" d="M580.5000117644668,151.5000007674098A6,6,0,1,1,568.5000117644668,151.5000007674098A6,6,0,1,1,580.5000117644668,151.5000007674098"></path><path id="kity_path_446" fill="none" stroke="gray"></path></g><path id="node_outline25" fill="none" stroke="none" d="M585.5000119283795,142.5000007674098h65a5,5,0,0,1,5,5v8a5,5,0,0,1,-5,5h-65a5,5,0,0,1,-5,-5v-8a5,5,0,0,1,5,-5z"></path><g id="node_text25" fill="black"><text id="kity_text_215" text-rendering="inherit" font-size="12" dy=".8em" y="143.7000007405877" x="585.5000119283795">setup-cli.sh</text></g></g><g id="minder_node29" opacity="1"><g id="node_expander37" style="cursor: pointer;"><path id="kity_path_484" fill="white" stroke="gray" d="M139.50000519305468,418.50000474601984A6,6,0,1,1,127.50000519305468,418.50000474601984A6,6,0,1,1,139.50000519305468,418.50000474601984"></path><path id="kity_path_485" fill="none" stroke="gray" d="M129.00000519305468,418.50000474601984L138.00000519305468,418.50000474601984"></path></g><path id="node_outline38" fill="none" stroke="none" d="M144.50000535696745,409.50000474601984h206a5,5,0,0,1,5,5v8a5,5,0,0,1,-5,5h-206a5,5,0,0,1,-5,-5v-8a5,5,0,0,1,5,-5z" stroke-width="3"></path><g id="node_text38" fill="black"><text id="kity_text_241" text-rendering="inherit" font-size="12" dy=".8em" y="410.70000471919775" x="144.50000535696745">/ml-pipelines/sdk/train-sdkv2.ipynb</text></g></g><g id="minder_node41" opacity="1"><g id="node_expander41" style="cursor: pointer;"><path id="kity_path_496" fill="white" stroke="gray" d="M129.50000504404306,651.5000082179904A6,6,0,1,1,117.50000504404306,651.5000082179904A6,6,0,1,1,129.50000504404306,651.5000082179904"></path><path id="kity_path_497" fill="none" stroke="gray" d="M119.00000504404306,651.5000082179904L128.00000504404306,651.5000082179904"></path></g><path id="node_outline42" fill="none" stroke="rgb(115, 161, 191)" d="M133.50000544637442,639.5000082179904h352a3,3,0,0,1,3,3v18a3,3,0,0,1,-3,3h-352a3,3,0,0,1,-3,-3v-18a3,3,0,0,1,3,-3z" stroke-width="1"></path><g id="node_text42" fill="black"><text id="kity_text_249" text-rendering="inherit" font-size="12" dy=".8em" y="643.7000081911683" x="150.50000544637442">/ml-pipelines/sdk/deploy-online-endpoint-sdkv2.ipynb</text></g></g><g id="minder_node43" opacity="1"><g id="node_expander43" style="cursor: pointer;"><path id="kity_path_502" fill="white" stroke="gray" d="M130.50000505894423,688.5000087693334A6,6,0,1,1,118.50000505894423,688.5000087693334A6,6,0,1,1,130.50000505894423,688.5000087693334"></path><path id="kity_path_503" fill="none" stroke="gray" d="M120.00000505894423,688.5000087693334L129.00000505894423,688.5000087693334"></path></g><path id="node_outline44" fill="none" stroke="rgb(115, 161, 191)" d="M134.50000546127558,676.5000087693334h348a3,3,0,0,1,3,3v18a3,3,0,0,1,-3,3h-348a3,3,0,0,1,-3,-3v-18a3,3,0,0,1,3,-3z" stroke-width="1"></path><g id="node_text44" fill="black"><text id="kity_text_253" text-rendering="inherit" font-size="12" dy=".8em" y="680.7000087425113" x="151.50000546127558">/ml-pipelines/sdk/deploy-batch-endpoint-sdkv2.ipynb</text></g></g><g id="minder_node45" opacity="1"><g id="node_expander46" style="cursor: pointer;"><path id="kity_path_511" fill="white" stroke="gray" d="M131.5000050738454,599.50000744313A6,6,0,1,1,119.50000507384539,599.50000744313A6,6,0,1,1,131.5000050738454,599.50000744313"></path><path id="kity_path_512" fill="none" stroke="gray" d="M121.00000507384539,599.50000744313L130.0000050738454,599.50000744313"></path></g><path id="node_outline47" fill="rgb(238, 243, 246)" stroke="rgb(115, 161, 191)" d="M135.50000547617674,586.50000744313h316a3,3,0,0,1,3,3v20a3,3,0,0,1,-3,3h-316a3,3,0,0,1,-3,-3v-20a3,3,0,0,1,3,-3z" stroke-width="1"></path><g id="node_text47" fill="black"><text id="kity_text_259" text-rendering="inherit" font-size="14" dy=".8em" y="590.4000074118376" x="152.50000547617674">/ml-pipelines/cli/deploy-batch-endpint.sh</text></g></g><g id="minder_node48" opacity="1"><g id="node_expander49" style="cursor: pointer;"><path id="kity_path_520" fill="white" stroke="gray" d="M132.50000508874655,552.5000067427754A6,6,0,1,1,120.50000508874655,552.5000067427754A6,6,0,1,1,132.50000508874655,552.5000067427754"></path><path id="kity_path_521" fill="none" stroke="gray" d="M122.00000508874655,552.5000067427754L131.00000508874655,552.5000067427754"></path></g><path id="node_outline50" fill="rgb(238, 243, 246)" stroke="rgb(115, 161, 191)" d="M136.5000054910779,539.5000067427754h320a3,3,0,0,1,3,3v20a3,3,0,0,1,-3,3h-320a3,3,0,0,1,-3,-3v-20a3,3,0,0,1,3,-3z" stroke-width="1"></path><g id="node_text50" fill="black"><text id="kity_text_265" text-rendering="inherit" font-size="14" dy=".8em" y="543.400006711483" x="153.5000054910779">/ml-pipelines/cli/deploy-online-endpint.sh</text></g></g><g id="minder_node51" opacity="1"><g id="node_expander69" style="cursor: pointer;"><path id="kity_path_580" fill="white" stroke="gray" d="M139.50000519305468,906.5000120177865A6,6,0,1,1,127.50000519305468,906.5000120177865A6,6,0,1,1,139.50000519305468,906.5000120177865"></path><path id="kity_path_581" fill="none" stroke="gray" d="M129.00000519305468,906.5000120177865L138.00000519305468,906.5000120177865"></path></g><path id="node_outline70" fill="rgb(238, 243, 246)" stroke="rgb(115, 161, 191)" d="M143.50000559538603,893.5000120177865h280a3,3,0,0,1,3,3v20a3,3,0,0,1,-3,3h-280a3,3,0,0,1,-3,-3v-20a3,3,0,0,1,3,-3z" stroke-width="1"></path><g id="node_text70" fill="black"><text id="kity_text_305" text-rendering="inherit" font-size="14" dy=".8em" y="897.4000119864941" x="160.50000559538603">/ml-pipelines/cli/azureml-cliv2.ipynb</text></g></g><g id="minder_node49"><g id="node_expander47" style="cursor: pointer;" display="none"><path id="kity_path_514" fill="white" stroke="gray" d="M475.50001019984484,539.5000065490603A6,6,0,1,1,463.50001019984484,539.5000065490603A6,6,0,1,1,475.50001019984484,539.5000065490603"></path><path id="kity_path_515" fill="none" stroke="gray"></path></g><path id="node_outline48" fill="none" stroke="none" d="M480.5000103637576,530.5000065490603h202a5,5,0,0,1,5,5v8a5,5,0,0,1,-5,5h-202a5,5,0,0,1,-5,-5v-8a5,5,0,0,1,5,-5z" stroke-width="3"></path><g id="node_text48" fill="black"><text id="kity_text_261" text-rendering="inherit" font-size="12" dy=".8em" y="531.7000065222383" x="480.5000103637576">deploy/online/online-endpoint.yml</text></g></g><g id="minder_node50"><g id="node_expander48" style="cursor: pointer;" display="none"><path id="kity_path_517" fill="white" stroke="gray" d="M475.50001019984484,565.5000069364905A6,6,0,1,1,463.50001019984484,565.5000069364905A6,6,0,1,1,475.50001019984484,565.5000069364905"></path><path id="kity_path_518" fill="none" stroke="gray"></path></g><path id="node_outline49" fill="none" stroke="none" d="M480.5000103637576,556.5000069364905h219a5,5,0,0,1,5,5v8a5,5,0,0,1,-5,5h-219a5,5,0,0,1,-5,-5v-8a5,5,0,0,1,5,-5z" stroke-width="3"></path><g id="node_text49" fill="black"><text id="kity_text_263" text-rendering="inherit" font-size="12" dy=".8em" y="557.7000069096684" x="480.5000103637576">deploy/online/online-deployment.yml</text></g></g><g id="minder_node46"><g id="node_expander44" style="cursor: pointer;" display="none"><path id="kity_path_505" fill="white" stroke="gray" d="M470.50001012533903,586.5000072494149A6,6,0,1,1,458.50001012533903,586.5000072494149A6,6,0,1,1,470.50001012533903,586.5000072494149"></path><path id="kity_path_506" fill="none" stroke="gray"></path></g><path id="node_outline45" fill="none" stroke="none" d="M475.5000102892518,577.5000072494149h195a5,5,0,0,1,5,5v8a5,5,0,0,1,-5,5h-195a5,5,0,0,1,-5,-5v-8a5,5,0,0,1,5,-5z" stroke-width="3"></path><g id="node_text45" fill="black"><text id="kity_text_255" text-rendering="inherit" font-size="12" dy=".8em" y="578.7000072225928" x="475.5000102892518">deploy/batch/batch-endpoint.yml</text></g></g><g id="minder_node47"><g id="node_expander45" style="cursor: pointer;" display="none"><path id="kity_path_508" fill="white" stroke="gray" d="M470.50001012533903,612.5000076368451A6,6,0,1,1,458.50001012533903,612.5000076368451A6,6,0,1,1,470.50001012533903,612.5000076368451"></path><path id="kity_path_509" fill="none" stroke="gray"></path></g><path id="node_outline46" fill="none" stroke="none" d="M475.5000102892518,603.5000076368451h212a5,5,0,0,1,5,5v8a5,5,0,0,1,-5,5h-212a5,5,0,0,1,-5,-5v-8a5,5,0,0,1,5,-5z" stroke-width="3"></path><g id="node_text46" fill="black"><text id="kity_text_257" text-rendering="inherit" font-size="12" dy=".8em" y="604.700007610023" x="475.5000102892518">deploy/batch/batch-deployment.yml</text></g></g><g id="minder_node44"><g id="node_expander42" style="cursor: pointer;" display="none"><path id="kity_path_499" fill="white" stroke="gray" d="M501.500010587275,688.5000087693334A6,6,0,1,1,489.500010587275,688.5000087693334A6,6,0,1,1,501.500010587275,688.5000087693334"></path><path id="kity_path_500" fill="none" stroke="gray"></path></g><path id="node_outline43" fill="none" stroke="none" d="M506.5000107511878,679.5000087693334h131a5,5,0,0,1,5,5v8a5,5,0,0,1,-5,5h-131a5,5,0,0,1,-5,-5v-8a5,5,0,0,1,5,-5z" stroke-width="3"></path><g id="node_text43" fill="black"><text id="kity_text_251" text-rendering="inherit" font-size="12" dy=".8em" y="680.7000087425113" x="506.5000107511878">../../data/taxi-batch.csv</text></g></g><g id="minder_node42"><g id="node_expander40" style="cursor: pointer;" display="none"><path id="kity_path_493" fill="white" stroke="gray" d="M504.5000106319785,651.5000082179904A6,6,0,1,1,492.5000106319785,651.5000082179904A6,6,0,1,1,504.5000106319785,651.5000082179904"></path><path id="kity_path_494" fill="none" stroke="gray"></path></g><path id="node_outline41" fill="none" stroke="none" d="M509.5000107958913,642.5000082179904h148a5,5,0,0,1,5,5v8a5,5,0,0,1,-5,5h-148a5,5,0,0,1,-5,-5v-8a5,5,0,0,1,5,-5z" stroke-width="3"></path><g id="node_text41" fill="black"><text id="kity_text_247" text-rendering="inherit" font-size="12" dy=".8em" y="643.7000081911683" x="509.5000107958913">../../data/taxi-request.json</text></g></g><g id="minder_node53"><g id="node_expander50" style="cursor: pointer;" display="none"><path id="kity_path_523" fill="white" stroke="gray" d="M500.50001057237387,721.5000092610717A6,6,0,1,1,488.50001057237387,721.5000092610717A6,6,0,1,1,500.50001057237387,721.5000092610717"></path><path id="kity_path_524" fill="none" stroke="gray"></path></g><path id="node_outline51" fill="none" stroke="none" d="M505.50001073628664,712.5000092610717h75a5,5,0,0,1,5,5v8a5,5,0,0,1,-5,5h-75a5,5,0,0,1,-5,-5v-8a5,5,0,0,1,5,-5z" stroke-width="3"></path><g id="node_text51" fill="black"><text id="kity_text_267" text-rendering="inherit" font-size="12" dy=".8em" y="713.7000092342496" x="505.50001073628664">compute.yml</text></g></g><g id="minder_node55"><g id="node_expander51" style="cursor: pointer;" display="none"><path id="kity_path_526" fill="white" stroke="gray" d="M575.500011689961,747.5000096485019A6,6,0,1,1,563.500011689961,747.5000096485019A6,6,0,1,1,575.500011689961,747.5000096485019"></path><path id="kity_path_527" fill="none" stroke="gray"></path></g><path id="node_outline52" fill="none" stroke="none" d="M580.5000118538737,738.5000096485019h135a5,5,0,0,1,5,5v8a5,5,0,0,1,-5,5h-135a5,5,0,0,1,-5,-5v-8a5,5,0,0,1,5,-5z" stroke-width="3"></path><g id="node_text52" fill="black"><text id="kity_text_269" text-rendering="inherit" font-size="12" dy=".8em" y="739.7000096216798" x="580.5000118538737">../../../data/taxi-data.csv</text></g></g><g id="minder_node54"><g id="node_expander52" style="cursor: pointer;"><path id="kity_path_529" fill="white" stroke="gray" d="M500.50001057237387,747.5000096485019A6,6,0,1,1,488.50001057237387,747.5000096485019A6,6,0,1,1,500.50001057237387,747.5000096485019"></path><path id="kity_path_530" fill="none" stroke="gray" d="M490.00001057237387,747.5000096485019L499.00001057237387,747.5000096485019"></path></g><path id="node_outline53" fill="none" stroke="none" d="M505.50001073628664,738.5000096485019h49a5,5,0,0,1,5,5v8a5,5,0,0,1,-5,5h-49a5,5,0,0,1,-5,-5v-8a5,5,0,0,1,5,-5z" stroke-width="3"></path><g id="node_text53" fill="black"><text id="kity_text_271" text-rendering="inherit" font-size="12" dy=".8em" y="739.7000096216798" x="505.50001073628664">data.yml</text></g></g><g id="minder_node57"><g id="node_expander53" style="cursor: pointer;" display="none"><path id="kity_path_532" fill="white" stroke="gray" d="M623.5000124052167,773.5000100359321A6,6,0,1,1,611.5000124052167,773.5000100359321A6,6,0,1,1,623.5000124052167,773.5000100359321"></path><path id="kity_path_533" fill="none" stroke="gray"></path></g><path id="node_outline54" fill="none" stroke="none" d="M628.5000125691295,764.5000100359321h202a5,5,0,0,1,5,5v8a5,5,0,0,1,-5,5h-202a5,5,0,0,1,-5,-5v-8a5,5,0,0,1,5,-5z" stroke-width="3"></path><g id="node_text54" fill="black"><text id="kity_text_273" text-rendering="inherit" font-size="12" dy=".8em" y="765.70001000911" x="628.5000125691295">../../../environment/train-conda.yml</text></g></g><g id="minder_node56"><g id="node_expander54" style="cursor: pointer;"><path id="kity_path_535" fill="white" stroke="gray" d="M500.50001057237387,773.5000100359321A6,6,0,1,1,488.50001057237387,773.5000100359321A6,6,0,1,1,500.50001057237387,773.5000100359321"></path><path id="kity_path_536" fill="none" stroke="gray" d="M490.00001057237387,773.5000100359321L499.00001057237387,773.5000100359321"></path></g><path id="node_outline55" fill="none" stroke="none" d="M505.50001073628664,764.5000100359321h97a5,5,0,0,1,5,5v8a5,5,0,0,1,-5,5h-97a5,5,0,0,1,-5,-5v-8a5,5,0,0,1,5,-5z" stroke-width="3"></path><g id="node_text55" fill="black"><text id="kity_text_275" text-rendering="inherit" font-size="12" dy=".8em" y="765.70001000911" x="505.50001073628664">environment.yml</text></g></g><g id="minder_node60"><g id="node_expander55" style="cursor: pointer;" display="none"><path id="kity_path_538" fill="white" stroke="gray" d="M732.5000140294433,799.5000104233623A6,6,0,1,1,720.5000140294433,799.5000104233623A6,6,0,1,1,732.5000140294433,799.5000104233623"></path><path id="kity_path_539" fill="none" stroke="gray"></path></g><path id="node_outline56" fill="none" stroke="none" d="M737.500014193356,790.5000104233623h76a5,5,0,0,1,5,5v8a5,5,0,0,1,-5,5h-76a5,5,0,0,1,-5,-5v-8a5,5,0,0,1,5,-5z" stroke-width="3"></path><g id="node_text56" fill="black"><text id="kity_text_277" text-rendering="inherit" font-size="12" dy=".8em" y="791.7000103965402" x="737.500014193356">prep/prep.py</text></g></g><g id="minder_node61"><g id="node_expander56" style="cursor: pointer;" display="none"><path id="kity_path_541" fill="white" stroke="gray" d="M732.5000140294433,825.5000108107924A6,6,0,1,1,720.5000140294433,825.5000108107924A6,6,0,1,1,732.5000140294433,825.5000108107924"></path><path id="kity_path_542" fill="none" stroke="gray"></path></g><path id="node_outline57" fill="none" stroke="none" d="M737.500014193356,816.5000108107924h75a5,5,0,0,1,5,5v8a5,5,0,0,1,-5,5h-75a5,5,0,0,1,-5,-5v-8a5,5,0,0,1,5,-5z" stroke-width="3"></path><g id="node_text57" fill="black"><text id="kity_text_279" text-rendering="inherit" font-size="12" dy=".8em" y="817.7000107839704" x="737.500014193356">train/train.py</text></g></g><g id="minder_node62"><g id="node_expander57" style="cursor: pointer;" display="none"><path id="kity_path_544" fill="white" stroke="gray" d="M732.5000140294433,851.5000111982226A6,6,0,1,1,720.5000140294433,851.5000111982226A6,6,0,1,1,732.5000140294433,851.5000111982226"></path><path id="kity_path_545" fill="none" stroke="gray"></path></g><path id="node_outline58" fill="none" stroke="none" d="M737.500014193356,842.5000111982226h119a5,5,0,0,1,5,5v8a5,5,0,0,1,-5,5h-119a5,5,0,0,1,-5,-5v-8a5,5,0,0,1,5,-5z" stroke-width="3"></path><g id="node_text58" fill="black"><text id="kity_text_281" text-rendering="inherit" font-size="12" dy=".8em" y="843.7000111714005" x="737.500014193356">evaluate/evaluate.py</text></g></g><g id="minder_node63"><g id="node_expander58" style="cursor: pointer;" display="none"><path id="kity_path_547" fill="white" stroke="gray" d="M732.5000140294433,877.5000115856528A6,6,0,1,1,720.5000140294433,877.5000115856528A6,6,0,1,1,732.5000140294433,877.5000115856528"></path><path id="kity_path_548" fill="none" stroke="gray"></path></g><path id="node_outline59" fill="none" stroke="none" d="M737.500014193356,868.5000115856528h110a5,5,0,0,1,5,5v8a5,5,0,0,1,-5,5h-110a5,5,0,0,1,-5,-5v-8a5,5,0,0,1,5,-5z" stroke-width="3"></path><g id="node_text59" fill="black"><text id="kity_text_283" text-rendering="inherit" font-size="12" dy=".8em" y="869.7000115588307" x="737.500014193356">register/register.py</text></g></g><g id="minder_node59"><g id="node_expander59" style="cursor: pointer;"><path id="kity_path_550" fill="white" stroke="gray" d="M596.5000120028853,838.5000110045075A6,6,0,1,1,584.5000120028853,838.5000110045075A6,6,0,1,1,596.5000120028853,838.5000110045075"></path><path id="kity_path_551" fill="none" stroke="gray" d="M586.0000120028853,838.5000110045075L595.0000120028853,838.5000110045075"></path></g><path id="node_outline60" fill="#f79646" stroke="none" d="M601.5000121667981,829.5000110045075h110a5,5,0,0,1,5,5v8a5,5,0,0,1,-5,5h-110a5,5,0,0,1,-5,-5v-8a5,5,0,0,1,5,-5z" stroke-width="3"></path><g id="node_text60" fill="black"><text id="kity_text_285" text-rendering="inherit" font-size="12" dy=".8em" y="830.7000109776855" x="601.5000121667981">../../../components/</text></g></g><g id="minder_node58"><g id="node_expander60" style="cursor: pointer;"><path id="kity_path_553" fill="white" stroke="gray" d="M500.50001057237387,838.5000110045075A6,6,0,1,1,488.50001057237387,838.5000110045075A6,6,0,1,1,500.50001057237387,838.5000110045075"></path><path id="kity_path_554" fill="none" stroke="gray" d="M490.00001057237387,838.5000110045075L499.00001057237387,838.5000110045075"></path></g><path id="node_outline61" fill="none" stroke="none" d="M505.50001073628664,829.5000110045075h70a5,5,0,0,1,5,5v8a5,5,0,0,1,-5,5h-70a5,5,0,0,1,-5,-5v-8a5,5,0,0,1,5,-5z" stroke-width="3"></path><g id="node_text61" fill="black"><text id="kity_text_287" text-rendering="inherit" font-size="12" dy=".8em" y="830.7000109776855" x="505.50001073628664">pipeline.yml</text></g></g><g id="minder_node52"><g id="node_expander61" style="cursor: pointer;"><path id="kity_path_556" fill="white" stroke="gray" d="M442.5000097081065,779.500010125339A6,6,0,1,1,430.5000097081065,779.500010125339A6,6,0,1,1,442.5000097081065,779.500010125339"></path><path id="kity_path_557" fill="none" stroke="gray" d="M432.0000097081065,779.500010125339L441.0000097081065,779.500010125339"></path></g><path id="node_outline62" fill="#f79646" stroke="none" d="M447.5000098720193,770.500010125339h32a5,5,0,0,1,5,5v8a5,5,0,0,1,-5,5h-32a5,5,0,0,1,-5,-5v-8a5,5,0,0,1,5,-5z" stroke-width="3"></path><g id="node_text62" fill="black"><text id="kity_text_289" text-rendering="inherit" font-size="12" dy=".8em" y="771.7000100985169" x="447.5000098720193">train/</text></g></g><g id="minder_node65"><g id="node_expander62" style="cursor: pointer;" display="none"><path id="kity_path_559" fill="white" stroke="gray" d="M519.5000108554959,865.5000114068389A6,6,0,1,1,507.50001085549593,865.5000114068389A6,6,0,1,1,519.5000108554959,865.5000114068389"></path><path id="kity_path_560" fill="none" stroke="gray"></path></g><path id="node_outline63" fill="none" stroke="none" d="M524.5000110194087,856.5000114068389h157a5,5,0,0,1,5,5v8a5,5,0,0,1,-5,5h-157a5,5,0,0,1,-5,-5v-8a5,5,0,0,1,5,-5z" stroke-width="3"></path><g id="node_text63" fill="black"><text id="kity_text_291" text-rendering="inherit" font-size="12" dy=".8em" y="857.7000113800168" x="524.5000110194087">online/online-endpoint.yml</text></g></g><g id="minder_node66"><g id="node_expander63" style="cursor: pointer;" display="none"><path id="kity_path_562" fill="white" stroke="gray" d="M519.5000108554959,891.5000117942691A6,6,0,1,1,507.50001085549593,891.5000117942691A6,6,0,1,1,519.5000108554959,891.5000117942691"></path><path id="kity_path_563" fill="none" stroke="gray"></path></g><path id="node_outline64" fill="none" stroke="none" d="M524.5000110194087,882.5000117942691h174a5,5,0,0,1,5,5v8a5,5,0,0,1,-5,5h-174a5,5,0,0,1,-5,-5v-8a5,5,0,0,1,5,-5z" stroke-width="3"></path><g id="node_text64" fill="black"><text id="kity_text_293" text-rendering="inherit" font-size="12" dy=".8em" y="883.700011767447" x="524.5000110194087">online/online-deployment.yml</text></g></g><g id="minder_node67"><g id="node_expander64" style="cursor: pointer;" display="none"><path id="kity_path_565" fill="white" stroke="gray" d="M519.5000108554959,917.5000121816993A6,6,0,1,1,507.50001085549593,917.5000121816993A6,6,0,1,1,519.5000108554959,917.5000121816993"></path><path id="kity_path_566" fill="none" stroke="gray"></path></g><path id="node_outline65" fill="none" stroke="none" d="M524.5000110194087,908.5000121816993h151a5,5,0,0,1,5,5v8a5,5,0,0,1,-5,5h-151a5,5,0,0,1,-5,-5v-8a5,5,0,0,1,5,-5z" stroke-width="3"></path><g id="node_text65" fill="black"><text id="kity_text_295" text-rendering="inherit" font-size="12" dy=".8em" y="909.7000121548772" x="524.5000110194087">batch/batch-endpoint.yml</text></g></g><g id="minder_node68"><g id="node_expander65" style="cursor: pointer;" display="none"><path id="kity_path_568" fill="white" stroke="gray" d="M519.5000108554959,943.5000125691295A6,6,0,1,1,507.50001085549593,943.5000125691295A6,6,0,1,1,519.5000108554959,943.5000125691295"></path><path id="kity_path_569" fill="none" stroke="gray"></path></g><path id="node_outline66" fill="none" stroke="none" d="M524.5000110194087,934.5000125691295h168a5,5,0,0,1,5,5v8a5,5,0,0,1,-5,5h-168a5,5,0,0,1,-5,-5v-8a5,5,0,0,1,5,-5z" stroke-width="3"></path><g id="node_text66" fill="black"><text id="kity_text_297" text-rendering="inherit" font-size="12" dy=".8em" y="935.7000125423074" x="524.5000110194087">batch/batch-deployment.yml</text></g></g><g id="minder_node64" opacity="1"><g id="node_expander66" style="cursor: pointer;"><path id="kity_path_571" fill="white" stroke="gray" d="M448.5000097975135,904.5000119879842A6,6,0,1,1,436.5000097975135,904.5000119879842A6,6,0,1,1,448.5000097975135,904.5000119879842"></path><path id="kity_path_572" fill="none" stroke="gray" d="M438.0000097975135,904.5000119879842L447.0000097975135,904.5000119879842"></path></g><path id="node_outline67" fill="#f79646" stroke="none" d="M453.50000996142626,895.5000119879842h45a5,5,0,0,1,5,5v8a5,5,0,0,1,-5,5h-45a5,5,0,0,1,-5,-5v-8a5,5,0,0,1,5,-5z" stroke-width="3"></path><g id="node_text67" fill="black"><text id="kity_text_299" text-rendering="inherit" font-size="12" dy=".8em" y="896.7000119611621" x="453.50000996142626">deploy/</text></g></g><g id="minder_node69" opacity="1"><g id="node_expander67" style="cursor: pointer;" display="none"><path id="kity_path_574" fill="white" stroke="gray" d="M446.50000976771116,974.5000130310655A6,6,0,1,1,434.50000976771116,974.5000130310655A6,6,0,1,1,446.50000976771116,974.5000130310655"></path><path id="kity_path_575" fill="none" stroke="gray"></path></g><path id="node_outline68" fill="none" stroke="none" d="M451.50000993162394,965.5000130310655h148a5,5,0,0,1,5,5v8a5,5,0,0,1,-5,5h-148a5,5,0,0,1,-5,-5v-8a5,5,0,0,1,5,-5z" stroke-width="3"></path><g id="node_text68" fill="black"><text id="kity_text_301" text-rendering="inherit" font-size="12" dy=".8em" y="966.7000130042434" x="451.50000993162394">../../data/taxi-request.json</text></g></g><g id="minder_node70" opacity="1"><g id="node_expander68" style="cursor: pointer;" display="none"><path id="kity_path_577" fill="white" stroke="gray" d="M446.50000976771116,1000.5000134184957A6,6,0,1,1,434.50000976771116,1000.5000134184957A6,6,0,1,1,446.50000976771116,1000.5000134184957"></path><path id="kity_path_578" fill="none" stroke="gray"></path></g><path id="node_outline69" fill="none" stroke="none" d="M451.50000993162394,991.5000134184957h131a5,5,0,0,1,5,5v8a5,5,0,0,1,-5,5h-131a5,5,0,0,1,-5,-5v-8a5,5,0,0,1,5,-5z" stroke-width="3"></path><g id="node_text69" fill="black"><text id="kity_text_303" text-rendering="inherit" font-size="12" dy=".8em" y="992.7000133916736" x="451.50000993162394">../../data/taxi-batch.csv</text></g></g><g id="minder_node30"><g id="node_expander26" display="none" style="cursor: pointer;"><path id="kity_path_451" fill="white" stroke="gray" d="M371.5000086501241,373.5000040754676A6,6,0,1,1,359.5000086501241,373.5000040754676A6,6,0,1,1,371.5000086501241,373.5000040754676"></path><path id="kity_path_452" fill="none" stroke="gray"></path></g><path id="node_outline27" fill="none" stroke="none" d="M376.50000881403685,364.5000040754676h124a5,5,0,0,1,5,5v8a5,5,0,0,1,-5,5h-124a5,5,0,0,1,-5,-5v-8a5,5,0,0,1,5,-5z"></path><g id="node_text27" fill="black"><text id="kity_text_219" text-rendering="inherit" font-size="12" dy=".8em" y="365.7000040486455" x="376.50000881403685">../../data/taxi-data.csv</text></g></g><g id="minder_node31"><g id="node_expander27" display="none" style="cursor: pointer;"><path id="kity_path_454" fill="white" stroke="gray" d="M371.5000086501241,399.5000044628978A6,6,0,1,1,359.5000086501241,399.5000044628978A6,6,0,1,1,371.5000086501241,399.5000044628978"></path><path id="kity_path_455" fill="none" stroke="gray"></path></g><path id="node_outline28" fill="none" stroke="none" d="M376.50000881403685,390.5000044628978h191a5,5,0,0,1,5,5v8a5,5,0,0,1,-5,5h-191a5,5,0,0,1,-5,-5v-8a5,5,0,0,1,5,-5z"></path><g id="node_text28" fill="black"><text id="kity_text_221" text-rendering="inherit" font-size="12" dy=".8em" y="391.7000044360757" x="376.50000881403685">../../environment/train-conda.yml</text></g></g><g id="minder_node34"><g id="node_expander28" display="none" style="cursor: pointer;"><path id="kity_path_457" fill="white" stroke="gray" d="M567.5000115707517,425.50000485032797A6,6,0,1,1,555.5000115707517,425.50000485032797A6,6,0,1,1,567.5000115707517,425.50000485032797"></path><path id="kity_path_458" fill="none" stroke="gray"></path></g><path id="node_outline29" fill="none" stroke="none" d="M572.5000117346644,416.50000485032797h76a5,5,0,0,1,5,5v8a5,5,0,0,1,-5,5h-76a5,5,0,0,1,-5,-5v-8a5,5,0,0,1,5,-5z"></path><g id="node_text29" fill="black"><text id="kity_text_223" text-rendering="inherit" font-size="12" dy=".8em" y="417.7000048235059" x="572.5000117346644">prep/prep.py</text></g></g><g id="minder_node33"><g id="node_expander29" style="cursor: pointer;"><path id="kity_path_460" fill="white" stroke="gray" d="M491.5000104382634,425.50000485032797A6,6,0,1,1,479.5000104382634,425.50000485032797A6,6,0,1,1,491.5000104382634,425.50000485032797"></path><path id="kity_path_461" fill="none" stroke="gray" d="M481.0000104382634,425.50000485032797L490.0000104382634,425.50000485032797"></path></g><path id="node_outline30" fill="none" stroke="none" d="M496.5000106021762,416.50000485032797h50a5,5,0,0,1,5,5v8a5,5,0,0,1,-5,5h-50a5,5,0,0,1,-5,-5v-8a5,5,0,0,1,5,-5z"></path><g id="node_text30" fill="black"><text id="kity_text_225" text-rendering="inherit" font-size="12" dy=".8em" y="417.7000048235059" x="496.5000106021762">prep.yml</text></g></g><g id="minder_node36"><g id="node_expander30" display="none" style="cursor: pointer;"><path id="kity_path_463" fill="white" stroke="gray" d="M567.5000115707517,451.50000523775816A6,6,0,1,1,555.5000115707517,451.50000523775816A6,6,0,1,1,567.5000115707517,451.50000523775816"></path><path id="kity_path_464" fill="none" stroke="gray"></path></g><path id="node_outline31" fill="none" stroke="none" d="M572.5000117346644,442.50000523775816h75a5,5,0,0,1,5,5v8a5,5,0,0,1,-5,5h-75a5,5,0,0,1,-5,-5v-8a5,5,0,0,1,5,-5z"></path><g id="node_text31" fill="black"><text id="kity_text_227" text-rendering="inherit" font-size="12" dy=".8em" y="443.70000521093607" x="572.5000117346644">train/train.py</text></g></g><g id="minder_node35"><g id="node_expander31" style="cursor: pointer;"><path id="kity_path_466" fill="white" stroke="gray" d="M491.5000104382634,451.50000523775816A6,6,0,1,1,479.5000104382634,451.50000523775816A6,6,0,1,1,491.5000104382634,451.50000523775816"></path><path id="kity_path_467" fill="none" stroke="gray" d="M481.0000104382634,451.50000523775816L490.0000104382634,451.50000523775816"></path></g><path id="node_outline32" fill="none" stroke="none" d="M496.5000106021762,442.50000523775816h50a5,5,0,0,1,5,5v8a5,5,0,0,1,-5,5h-50a5,5,0,0,1,-5,-5v-8a5,5,0,0,1,5,-5z"></path><g id="node_text32" fill="black"><text id="kity_text_229" text-rendering="inherit" font-size="12" dy=".8em" y="443.70000521093607" x="496.5000106021762">train.yml</text></g></g><g id="minder_node38"><g id="node_expander32" style="cursor: pointer;" display="none"><path id="kity_path_469" fill="white" stroke="gray" d="M589.5000118985772,477.50000562518835A6,6,0,1,1,577.5000118985772,477.50000562518835A6,6,0,1,1,589.5000118985772,477.50000562518835"></path><path id="kity_path_470" fill="none" stroke="gray"></path></g><path id="node_outline33" fill="none" stroke="none" d="M594.50001206249,468.50000562518835h119a5,5,0,0,1,5,5v8a5,5,0,0,1,-5,5h-119a5,5,0,0,1,-5,-5v-8a5,5,0,0,1,5,-5z" stroke-width="3"></path><g id="node_text33" fill="black"><text id="kity_text_231" text-rendering="inherit" font-size="12" dy=".8em" y="469.70000559836626" x="594.50001206249">evaluate/evaluate.py</text></g></g><g id="minder_node37"><g id="node_expander33" style="cursor: pointer;"><path id="kity_path_472" fill="white" stroke="gray" d="M491.5000104382634,477.50000562518835A6,6,0,1,1,479.5000104382634,477.50000562518835A6,6,0,1,1,491.5000104382634,477.50000562518835"></path><path id="kity_path_473" fill="none" stroke="gray" d="M481.0000104382634,477.50000562518835L490.0000104382634,477.50000562518835"></path></g><path id="node_outline34" fill="none" stroke="none" d="M496.5000106021762,468.50000562518835h72a5,5,0,0,1,5,5v8a5,5,0,0,1,-5,5h-72a5,5,0,0,1,-5,-5v-8a5,5,0,0,1,5,-5z" stroke-width="3"></path><g id="node_text34" fill="black"><text id="kity_text_233" text-rendering="inherit" font-size="12" dy=".8em" y="469.70000559836626" x="496.5000106021762">evaluate.yml</text></g></g><g id="minder_node40"><g id="node_expander34" style="cursor: pointer;" display="none"><path id="kity_path_475" fill="white" stroke="gray" d="M584.5000118240714,503.50000601261854A6,6,0,1,1,572.5000118240714,503.50000601261854A6,6,0,1,1,584.5000118240714,503.50000601261854"></path><path id="kity_path_476" fill="none" stroke="gray"></path></g><path id="node_outline35" fill="none" stroke="none" d="M589.5000119879842,494.50000601261854h110a5,5,0,0,1,5,5v8a5,5,0,0,1,-5,5h-110a5,5,0,0,1,-5,-5v-8a5,5,0,0,1,5,-5z" stroke-width="3"></path><g id="node_text35" fill="black"><text id="kity_text_235" text-rendering="inherit" font-size="12" dy=".8em" y="495.70000598579645" x="589.5000119879842">register/register.py</text></g></g><g id="minder_node39"><g id="node_expander35" style="cursor: pointer;"><path id="kity_path_478" fill="white" stroke="gray" d="M491.5000104382634,503.50000601261854A6,6,0,1,1,479.5000104382634,503.50000601261854A6,6,0,1,1,491.5000104382634,503.50000601261854"></path><path id="kity_path_479" fill="none" stroke="gray" d="M481.0000104382634,503.50000601261854L490.0000104382634,503.50000601261854"></path></g><path id="node_outline36" fill="none" stroke="none" d="M496.5000106021762,494.50000601261854h67a5,5,0,0,1,5,5v8a5,5,0,0,1,-5,5h-67a5,5,0,0,1,-5,-5v-8a5,5,0,0,1,5,-5z" stroke-width="3"></path><g id="node_text36" fill="black"><text id="kity_text_237" text-rendering="inherit" font-size="12" dy=".8em" y="495.70000598579645" x="496.5000106021762">register.yml</text></g></g><g id="minder_node32"><g id="node_expander36" style="cursor: pointer;"><path id="kity_path_481" fill="white" stroke="gray" d="M371.5000086501241,464.50000543147326A6,6,0,1,1,359.5000086501241,464.50000543147326A6,6,0,1,1,371.5000086501241,464.50000543147326"></path><path id="kity_path_482" fill="none" stroke="gray" d="M361.0000086501241,464.50000543147326L370.0000086501241,464.50000543147326"></path></g><path id="node_outline37" fill="#f79646" stroke="none" d="M376.50000881403685,455.50000543147326h94a5,5,0,0,1,5,5v8a5,5,0,0,1,-5,5h-94a5,5,0,0,1,-5,-5v-8a5,5,0,0,1,5,-5z"></path><g id="node_text37" fill="black"><text id="kity_text_239" text-rendering="inherit" font-size="12" dy=".8em" y="456.70000540465117" x="376.50000881403685">../../components</text></g></g></g></g></svg>