<svg id="kity_svg_6" xmlns="http://www.w3.org/2000/svg" xmlns:xlink="http://www.w3.org/1999/xlink" version="1.1" width="908" height="426" style="background: rgb(251, 251, 251); visibility: visible;" viewBox="0 0 908 426"><defs id="kity_defs_7"><linearGradient id="kity_linearGradient_17" x1="0" y1="0" x2="0" y2="1"><stop id="kity_stop_18" offset="0" stop-color="rgb(255, 255, 255)"></stop><stop id="kity_stop_19" offset="1" stop-color="rgb(204, 204, 204)"></stop></linearGradient><marker id="kity_marker_2" orient="auto" refX="6" refY="0" viewBox="-7 -7 14 14" markerWidth="7" markerHeight="7" markerUnits="userSpaceOnUse"><path id="kity_path_3" fill="rgb(115, 161, 191)" stroke="none" d="M6,0A6,6,0,1,1,-6,0A6,6,0,1,1,6,0"></path></marker></defs><g id="kity_g_8"><g id="minder1" text-rendering="optimize-speed"><g id="minder_connect_group1"><path id="kity_path_31" fill="none" stroke="rgb(115, 161, 191)" stroke-width="1" d="M36.500002823770046,253.5000064894557A32,140,0,0,1,68.50000282377005,113.5000064894557"></path><path id="kity_path_33" fill="none" stroke="rgb(115, 161, 191)" stroke-width="1" d="M264.50000282377005,113.5000064894557C272.50000282377005,113.5000064894557,272.50000282377005,133.5000064894557,280.50000282377005,133.5000064894557"></path><path id="kity_path_37" fill="none" stroke="rgb(115, 161, 191)" stroke-width="1" d="M264.50000282377005,113.5000064894557C272.50000282377005,113.5000064894557,272.50000282377005,68.5000064894557,280.50000282377005,68.5000064894557"></path><path id="kity_path_71" fill="none" stroke="rgb(115, 161, 191)" stroke-width="1" d="M357.50000282377005,133.5000064894557C365.50000282377005,133.5000064894557,365.50000282377005,133.5000064894557,373.50000282377005,133.5000064894557"></path><path id="kity_path_73" fill="none" stroke="rgb(115, 161, 191)" stroke-width="1" d="M264.50000282377005,113.5000064894557C272.50000282377005,113.5000064894557,272.50000282377005,159.5000064894557,280.50000282377005,159.5000064894557"></path><path id="kity_path_107" fill="none" stroke="rgb(115, 161, 191)" stroke-width="1" d="M365.50000282377005,159.5000064894557C373.50000282377005,159.5000064894557,373.50000282377005,159.5000064894557,381.50000282377005,159.5000064894557"></path><path id="kity_path_109" fill="none" stroke="rgb(115, 161, 191)" stroke-width="1" d="M36.500002823770046,253.5000064894557A32,34,0,0,1,68.50000282377005,219.5000064894557"></path><path id="kity_path_111" fill="none" stroke="rgb(115, 161, 191)" stroke-width="1" d="M428.50000282377005,219.5000064894557C436.50000282377005,219.5000064894557,436.50000282377005,193.5000064894557,444.50000282377005,193.5000064894557"></path><path id="kity_path_113" fill="none" stroke="rgb(115, 161, 191)" stroke-width="1" d="M428.50000282377005,219.5000064894557C436.50000282377005,219.5000064894557,436.50000282377005,219.5000064894557,444.50000282377005,219.5000064894557"></path><path id="kity_path_115" fill="none" stroke="rgb(115, 161, 191)" stroke-width="1" d="M428.50000282377005,219.5000064894557C436.50000282377005,219.5000064894557,436.50000282377005,245.5000064894557,444.50000282377005,245.5000064894557"></path><path id="kity_path_117" fill="none" stroke="rgb(115, 161, 191)" stroke-width="1" d="M36.500002823770046,253.5000064894557A32,65,0,0,0,68.50000282377005,318.5000064894557"></path><path id="kity_path_119" fill="none" stroke="rgb(115, 161, 191)" stroke-width="1" d="M424.50000282377005,318.5000064894557C432.50000282377005,318.5000064894557,432.50000282377005,279.5000064894557,440.50000282377005,279.5000064894557"></path><path id="kity_path_121" fill="none" stroke="rgb(115, 161, 191)" stroke-width="1" d="M424.50000282377005,318.5000064894557C432.50000282377005,318.5000064894557,432.50000282377005,305.5000064894557,440.50000282377005,305.5000064894557"></path><path id="kity_path_123" fill="none" stroke="rgb(115, 161, 191)" stroke-width="1" d="M424.50000282377005,318.5000064894557C432.50000282377005,318.5000064894557,432.50000282377005,331.5000064894557,440.50000282377005,331.5000064894557"></path><path id="kity_path_125" fill="none" stroke="rgb(115, 161, 191)" stroke-width="1" d="M424.50000282377005,318.5000064894557C432.50000282377005,318.5000064894557,432.50000282377005,357.5000064894557,440.50000282377005,357.5000064894557"></path><path id="kity_path_127" fill="none" stroke="rgb(115, 161, 191)" stroke-width="1" d="M36.500002823770046,253.5000064894557A32,141,0,0,0,68.50000282377005,394.5000064894557"></path><path id="kity_path_550" fill="none" stroke="rgb(115, 161, 191)" stroke-width="1" d="M355.50000282377005,68.5000064894557C363.50000282377005,68.5000064894557,363.50000282377005,29.5000064894557,371.50000282377005,29.5000064894557"></path><path id="kity_path_551" fill="none" stroke="rgb(115, 161, 191)" stroke-width="1" d="M355.50000282377005,68.5000064894557C363.50000282377005,68.5000064894557,363.50000282377005,55.5000064894557,371.50000282377005,55.5000064894557"></path><path id="kity_path_552" fill="none" stroke="rgb(115, 161, 191)" stroke-width="1" d="M355.50000282377005,68.5000064894557C363.50000282377005,68.5000064894557,363.50000282377005,81.5000064894557,371.50000282377005,81.5000064894557"></path><path id="kity_path_553" fill="none" stroke="rgb(115, 161, 191)" stroke-width="1" d="M355.50000282377005,68.5000064894557C363.50000282377005,68.5000064894557,363.50000282377005,107.5000064894557,371.50000282377005,107.5000064894557"></path><path id="kity_path_554" fill="none" stroke="rgb(115, 161, 191)" stroke-width="1" d="M316.50000282377005,394.5000064894557C324.50000282377005,394.5000064894557,324.50000282377005,394.5000064894557,332.50000282377005,394.5000064894557"></path></g><g id="minder_node1"><path id="node_outline1" fill="#f79646" stroke="rgb(115, 161, 191)" d="M25.500002823770046,239.5000064894557h22a5,5,0,0,1,5,5v18a5,5,0,0,1,-5,5h-22a5,5,0,0,1,-5,-5v-18a5,5,0,0,1,5,-5z" stroke-width="3"></path><g id="node_text1" fill="white"><text id="kity_text_22" text-rendering="inherit" font-size="16" dy=".8em" y="243.1000064536929" x="32.500002823770046">/</text></g></g><g id="kity_g_14" display="none"><path id="kity_path_15" fill="rgba(0, 92, 153, 0.5)" stroke="none" d="M280.50000282377005,30.5000064894557h77v4h-77z"></path><path id="kity_path_16" fill="none" stroke="rgb(0, 76, 128)" d="M280.50000282377005,34.5000064894557L357.50000282377005,34.5000064894557" stroke-width="1"></path></g><g id="minder_node2"><g id="node_expander39" style="cursor: pointer;"><path id="kity_path_435" fill="white" stroke="gray" d="M69.50000328570604,113.50000440329313A6,6,0,1,1,57.50000328570604,113.50000440329313A6,6,0,1,1,69.50000328570604,113.50000440329313"></path><path id="kity_path_436" fill="none" stroke="gray" d="M59.00000328570604,113.50000440329313L68.00000328570604,113.50000440329313"></path></g><path id="node_outline40" fill="#f79646" stroke="rgb(115, 161, 191)" d="M73.5000036880374,100.50000440329313h188a3,3,0,0,1,3,3v20a3,3,0,0,1,-3,3h-188a3,3,0,0,1,-3,-3v-20a3,3,0,0,1,3,-3z" stroke-width="1"></path><g id="node_text40" fill="black"><text id="kity_text_223" text-rendering="inherit" font-size="14" dy=".8em" y="104.4000043720007" x="90.5000036880374">/ci-cd/azure-pipelines/</text></g></g><g id="minder_node3"><g id="node_expander20" style="cursor: pointer;"><path id="kity_path_378" fill="white" stroke="gray" d="M280.50000642985106,133.50000470131636A6,6,0,1,1,268.50000642985106,133.50000470131636A6,6,0,1,1,280.50000642985106,133.50000470131636"></path><path id="kity_path_379" fill="none" stroke="gray" d="M270.00000642985106,133.50000470131636L279.00000642985106,133.50000470131636"></path></g><path id="node_outline21" fill="none" stroke="none" d="M285.5000065937638,124.50000470131636h67a5,5,0,0,1,5,5v8a5,5,0,0,1,-5,5h-67a5,5,0,0,1,-5,-5v-8a5,5,0,0,1,5,-5z" stroke-width="3"></path><g id="node_text21" fill="black"><text id="kity_text_185" text-rendering="inherit" font-size="12" dy=".8em" y="125.70000467449427" x="285.5000065937638">cli/train.yml</text></g></g><g id="minder_node5" opacity="1"><g id="node_expander5" style="cursor: pointer;"><path id="kity_path_333" fill="white" stroke="gray" d="M280.50000642985106,68.50000373274088A6,6,0,1,1,268.50000642985106,68.50000373274088A6,6,0,1,1,280.50000642985106,68.50000373274088"></path><path id="kity_path_334" fill="none" stroke="gray" d="M270.00000642985106,68.50000373274088L279.00000642985106,68.50000373274088"></path></g><path id="node_outline6" fill="none" stroke="none" d="M285.5000065937638,59.50000373274088h65a5,5,0,0,1,5,5v8a5,5,0,0,1,-5,5h-65a5,5,0,0,1,-5,-5v-8a5,5,0,0,1,5,-5z" stroke-width="3"></path><g id="node_text6" fill="black"><text id="kity_text_155" text-rendering="inherit" font-size="12" dy=".8em" y="60.70000370591879" x="285.5000065937638">setup-cli.sh</text></g></g><g id="minder_node22"><g id="node_expander19" style="cursor: pointer;" display="none"><path id="kity_path_375" fill="white" stroke="gray" d="M373.50000781565905,133.50000470131636A6,6,0,1,1,361.50000781565905,133.50000470131636A6,6,0,1,1,373.50000781565905,133.50000470131636"></path><path id="kity_path_376" fill="none" stroke="gray"></path></g><path id="node_outline20" fill="#f2dbdb" stroke="none" d="M378.5000079795718,124.50000470131636h497a5,5,0,0,1,5,5v8a5,5,0,0,1,-5,5h-497a5,5,0,0,1,-5,-5v-8a5,5,0,0,1,5,-5z" stroke-width="3"></path><g id="node_text20" fill="black"><text id="kity_text_183" text-rendering="inherit" font-size="12" dy=".8em" y="125.70000467449427" x="378.5000079795718">azureml-mldemo #name of the AzureML service connection defined in Azure Pipelines</text></g></g><g id="minder_node23"><g id="node_expander38" style="cursor: pointer;"><path id="kity_path_432" fill="white" stroke="gray" d="M280.50000642985106,159.50000508874655A6,6,0,1,1,268.50000642985106,159.50000508874655A6,6,0,1,1,280.50000642985106,159.50000508874655"></path><path id="kity_path_433" fill="none" stroke="gray" d="M270.00000642985106,159.50000508874655L279.00000642985106,159.50000508874655"></path></g><path id="node_outline39" fill="none" stroke="none" d="M285.5000065937638,150.50000508874655h75a5,5,0,0,1,5,5v8a5,5,0,0,1,-5,5h-75a5,5,0,0,1,-5,-5v-8a5,5,0,0,1,5,-5z" stroke-width="3"></path><g id="node_text39" fill="black"><text id="kity_text_221" text-rendering="inherit" font-size="12" dy=".8em" y="151.70000506192446" x="285.5000065937638">sdk/train.yml</text></g></g><g id="minder_node40"><g id="node_expander37" style="cursor: pointer;" display="none"><path id="kity_path_429" fill="white" stroke="gray" d="M381.50000793486834,159.50000508874655A6,6,0,1,1,369.50000793486834,159.50000508874655A6,6,0,1,1,381.50000793486834,159.50000508874655"></path><path id="kity_path_430" fill="none" stroke="gray"></path></g><path id="node_outline38" fill="#f2dbdb" stroke="none" d="M386.5000080987811,150.50000508874655h497a5,5,0,0,1,5,5v8a5,5,0,0,1,-5,5h-497a5,5,0,0,1,-5,-5v-8a5,5,0,0,1,5,-5z" stroke-width="3"></path><g id="node_text38" fill="black"><text id="kity_text_219" text-rendering="inherit" font-size="12" dy=".8em" y="151.70000506192446" x="386.5000080987811">azureml-mldemo #name of the AzureML service connection defined in Azure Pipelines</text></g></g><g id="minder_node41"><g id="node_expander43" style="cursor: pointer;"><path id="kity_path_447" fill="white" stroke="gray" d="M69.50000328570604,219.50000598281622A6,6,0,1,1,57.50000328570604,219.50000598281622A6,6,0,1,1,69.50000328570604,219.50000598281622"></path><path id="kity_path_448" fill="none" stroke="gray" d="M59.00000328570604,219.50000598281622L68.00000328570604,219.50000598281622"></path></g><path id="node_outline44" fill="none" stroke="rgb(115, 161, 191)" d="M73.5000036880374,207.50000598281622h352a3,3,0,0,1,3,3v18a3,3,0,0,1,-3,3h-352a3,3,0,0,1,-3,-3v-18a3,3,0,0,1,3,-3z" stroke-width="1"></path><g id="node_text44" fill="black"><text id="kity_text_231" text-rendering="inherit" font-size="12" dy=".8em" y="211.70000595599413" x="90.5000036880374">/ml-pipelines/sdk/deploy-online-endpoint-sdkv2.ipynb</text></g></g><g id="minder_node42"><g id="node_expander40" style="cursor: pointer;" display="none"><path id="kity_path_438" fill="white" stroke="gray" d="M444.5000088736415,193.50000559538603A6,6,0,1,1,432.5000088736415,193.50000559538603A6,6,0,1,1,444.5000088736415,193.50000559538603"></path><path id="kity_path_439" fill="none" stroke="gray"></path></g><path id="node_outline41" fill="#f2dbdb" stroke="none" d="M449.50000903755426,184.50000559538603h87a5,5,0,0,1,5,5v8a5,5,0,0,1,-5,5h-87a5,5,0,0,1,-5,-5v-8a5,5,0,0,1,5,-5z"></path><g id="node_text41" fill="black"><text id="kity_text_225" text-rendering="inherit" font-size="12" dy=".8em" y="185.70000556856394" x="449.50000903755426">subscription_id</text></g></g><g id="minder_node43"><g id="node_expander41" style="cursor: pointer;" display="none"><path id="kity_path_441" fill="white" stroke="gray" d="M444.5000088736415,219.50000598281622A6,6,0,1,1,432.5000088736415,219.50000598281622A6,6,0,1,1,444.5000088736415,219.50000598281622"></path><path id="kity_path_442" fill="none" stroke="gray"></path></g><path id="node_outline42" fill="#f2dbdb" stroke="none" d="M449.50000903755426,210.50000598281622h90a5,5,0,0,1,5,5v8a5,5,0,0,1,-5,5h-90a5,5,0,0,1,-5,-5v-8a5,5,0,0,1,5,-5z"></path><g id="node_text42" fill="black"><text id="kity_text_227" text-rendering="inherit" font-size="12" dy=".8em" y="211.70000595599413" x="449.50000903755426">resource_group</text></g></g><g id="minder_node44"><g id="node_expander42" style="cursor: pointer;" display="none"><path id="kity_path_444" fill="white" stroke="gray" d="M444.5000088736415,245.5000063702464A6,6,0,1,1,432.5000088736415,245.5000063702464A6,6,0,1,1,444.5000088736415,245.5000063702464"></path><path id="kity_path_445" fill="none" stroke="gray"></path></g><path id="node_outline43" fill="#f2dbdb" stroke="none" d="M449.50000903755426,236.5000063702464h61a5,5,0,0,1,5,5v8a5,5,0,0,1,-5,5h-61a5,5,0,0,1,-5,-5v-8a5,5,0,0,1,5,-5z"></path><g id="node_text43" fill="black"><text id="kity_text_229" text-rendering="inherit" font-size="12" dy=".8em" y="237.70000634342432" x="449.50000903755426">workspace</text></g></g><g id="minder_node45"><g id="node_expander48" style="cursor: pointer;"><path id="kity_path_462" fill="white" stroke="gray" d="M69.50000328570604,318.5000074580312A6,6,0,1,1,57.50000328570604,318.5000074580312A6,6,0,1,1,69.50000328570604,318.5000074580312"></path><path id="kity_path_463" fill="none" stroke="gray" d="M59.00000328570604,318.5000074580312L68.00000328570604,318.5000074580312"></path></g><path id="node_outline49" fill="none" stroke="rgb(115, 161, 191)" d="M73.5000036880374,306.5000074580312h348a3,3,0,0,1,3,3v18a3,3,0,0,1,-3,3h-348a3,3,0,0,1,-3,-3v-18a3,3,0,0,1,3,-3z" stroke-width="1"></path><g id="node_text49" fill="black"><text id="kity_text_241" text-rendering="inherit" font-size="12" dy=".8em" y="310.7000074312091" x="90.5000036880374">/ml-pipelines/sdk/deploy-batch-endpoint-sdkv2.ipynb</text></g></g><g id="minder_node46"><g id="node_expander44" style="cursor: pointer;" display="none"><path id="kity_path_450" fill="white" stroke="gray" d="M440.50000881403685,279.5000068768859A6,6,0,1,1,428.50000881403685,279.5000068768859A6,6,0,1,1,440.50000881403685,279.5000068768859"></path><path id="kity_path_451" fill="none" stroke="gray"></path></g><path id="node_outline45" fill="#f2dbdb" stroke="none" d="M445.5000089779496,270.5000068768859h87a5,5,0,0,1,5,5v8a5,5,0,0,1,-5,5h-87a5,5,0,0,1,-5,-5v-8a5,5,0,0,1,5,-5z"></path><g id="node_text45" fill="black"><text id="kity_text_233" text-rendering="inherit" font-size="12" dy=".8em" y="271.7000068500638" x="445.5000089779496">subscription_id</text></g></g><g id="minder_node47"><g id="node_expander45" style="cursor: pointer;" display="none"><path id="kity_path_453" fill="white" stroke="gray" d="M440.50000881403685,305.5000072643161A6,6,0,1,1,428.50000881403685,305.5000072643161A6,6,0,1,1,440.50000881403685,305.5000072643161"></path><path id="kity_path_454" fill="none" stroke="gray"></path></g><path id="node_outline46" fill="#f2dbdb" stroke="none" d="M445.5000089779496,296.5000072643161h90a5,5,0,0,1,5,5v8a5,5,0,0,1,-5,5h-90a5,5,0,0,1,-5,-5v-8a5,5,0,0,1,5,-5z"></path><g id="node_text46" fill="black"><text id="kity_text_235" text-rendering="inherit" font-size="12" dy=".8em" y="297.700007237494" x="445.5000089779496">resource_group</text></g></g><g id="minder_node48"><g id="node_expander46" style="cursor: pointer;" display="none"><path id="kity_path_456" fill="white" stroke="gray" d="M440.50000881403685,331.5000076517463A6,6,0,1,1,428.50000881403685,331.5000076517463A6,6,0,1,1,440.50000881403685,331.5000076517463"></path><path id="kity_path_457" fill="none" stroke="gray"></path></g><path id="node_outline47" fill="#f2dbdb" stroke="none" d="M445.5000089779496,322.5000076517463h61a5,5,0,0,1,5,5v8a5,5,0,0,1,-5,5h-61a5,5,0,0,1,-5,-5v-8a5,5,0,0,1,5,-5z"></path><g id="node_text47" fill="black"><text id="kity_text_237" text-rendering="inherit" font-size="12" dy=".8em" y="323.7000076249242" x="445.5000089779496">workspace</text></g></g><g id="minder_node49"><g id="node_expander47" style="cursor: pointer;" display="none"><path id="kity_path_459" fill="white" stroke="gray" d="M440.50000881403685,357.50000803917646A6,6,0,1,1,428.50000881403685,357.50000803917646A6,6,0,1,1,440.50000881403685,357.50000803917646"></path><path id="kity_path_460" fill="none" stroke="gray"></path></g><path id="node_outline48" fill="#d6e3bc" stroke="none" d="M445.5000089779496,348.50000803917646h46a5,5,0,0,1,5,5v8a5,5,0,0,1,-5,5h-46a5,5,0,0,1,-5,-5v-8a5,5,0,0,1,5,-5z"></path><g id="node_text48" fill="black"><text id="kity_text_239" text-rendering="inherit" font-size="12" dy=".8em" y="349.7000080123544" x="445.5000089779496">location</text></g></g><g id="minder_node50"><g id="node_expander58" style="cursor: pointer;"><path id="kity_path_492" fill="white" stroke="gray" d="M69.50000328570604,394.5000085905194A6,6,0,1,1,57.50000328570604,394.5000085905194A6,6,0,1,1,69.50000328570604,394.5000085905194"></path><path id="kity_path_493" fill="none" stroke="gray" d="M59.00000328570604,394.5000085905194L68.00000328570604,394.5000085905194"></path></g><path id="node_outline59" fill="none" stroke="rgb(115, 161, 191)" d="M73.5000036880374,382.5000085905194h240a3,3,0,0,1,3,3v18a3,3,0,0,1,-3,3h-240a3,3,0,0,1,-3,-3v-18a3,3,0,0,1,3,-3z" stroke-width="1"></path><g id="node_text59" fill="black"><text id="kity_text_261" text-rendering="inherit" font-size="12" dy=".8em" y="386.70000856369734" x="90.5000036880374">/ml-pipelines/cli/train/compute.yml</text></g></g><g id="minder_node6"><g id="node_expander1" style="cursor: pointer;" display="none"><path id="kity_path_321" fill="white" stroke="gray" d="M371.5000077858567,29.500003151595592A6,6,0,1,1,359.5000077858567,29.500003151595592A6,6,0,1,1,371.5000077858567,29.500003151595592"></path><path id="kity_path_322" fill="none" stroke="gray"></path></g><path id="node_outline2" fill="#f2dbdb" stroke="none" d="M376.5000079497695,20.500003151595592h489a5,5,0,0,1,5,5v8a5,5,0,0,1,-5,5h-489a5,5,0,0,1,-5,-5v-8a5,5,0,0,1,5,-5z"></path><g id="node_text2" fill="black"><text id="kity_text_147" text-rendering="inherit" font-size="12" dy=".8em" y="21.700003124773502" x="376.5000079497695">RESOURCE_GROUP_NAME #name of the AzureML variable defined in Azure Pipelines</text></g></g><g id="minder_node7"><g id="node_expander2" style="cursor: pointer;" display="none"><path id="kity_path_324" fill="white" stroke="gray" d="M371.5000077858567,55.50000353902578A6,6,0,1,1,359.5000077858567,55.50000353902578A6,6,0,1,1,371.5000077858567,55.50000353902578"></path><path id="kity_path_325" fill="none" stroke="gray"></path></g><path id="node_outline3" fill="#f2dbdb" stroke="none" d="M376.5000079497695,46.50000353902578h43a5,5,0,0,1,5,5v8a5,5,0,0,1,-5,5h-43a5,5,0,0,1,-5,-5v-8a5,5,0,0,1,5,-5z"></path><g id="node_text3" fill="black"><text id="kity_text_149" text-rendering="inherit" font-size="12" dy=".8em" y="47.70000351220369" x="376.5000079497695">GROUP</text></g></g><g id="minder_node8"><g id="node_expander3" style="cursor: pointer;" display="none"><path id="kity_path_327" fill="white" stroke="gray" d="M371.5000077858567,81.50000392645597A6,6,0,1,1,359.5000077858567,81.50000392645597A6,6,0,1,1,371.5000077858567,81.50000392645597"></path><path id="kity_path_328" fill="none" stroke="gray"></path></g><path id="node_outline4" fill="#f2dbdb" stroke="none" d="M376.5000079497695,72.50000392645597h62a5,5,0,0,1,5,5v8a5,5,0,0,1,-5,5h-62a5,5,0,0,1,-5,-5v-8a5,5,0,0,1,5,-5z"></path><g id="node_text4" fill="black"><text id="kity_text_151" text-rendering="inherit" font-size="12" dy=".8em" y="73.70000389963388" x="376.5000079497695">LOCATION</text></g></g><g id="minder_node9"><g id="node_expander4" style="cursor: pointer;" display="none"><path id="kity_path_330" fill="white" stroke="gray" d="M371.5000077858567,107.50000431388617A6,6,0,1,1,359.5000077858567,107.50000431388617A6,6,0,1,1,371.5000077858567,107.50000431388617"></path><path id="kity_path_331" fill="none" stroke="gray"></path></g><path id="node_outline5" fill="#f2dbdb" stroke="none" d="M376.5000079497695,98.50000431388617h75a5,5,0,0,1,5,5v8a5,5,0,0,1,-5,5h-75a5,5,0,0,1,-5,-5v-8a5,5,0,0,1,5,-5z"></path><g id="node_text5" fill="black"><text id="kity_text_153" text-rendering="inherit" font-size="12" dy=".8em" y="99.70000428706408" x="376.5000079497695">WORKSPACE</text></g></g><g id="minder_node53" opacity="1"><g id="node_expander49" style="cursor: pointer;" display="none"><path id="kity_path_465" fill="white" stroke="gray" d="M332.50000720471144,394.5000085905194A6,6,0,1,1,320.50000720471144,394.5000085905194A6,6,0,1,1,332.50000720471144,394.5000085905194"></path><path id="kity_path_466" fill="none" stroke="gray"></path></g><path id="node_outline50" fill="#d6e3bc" stroke="none" d="M337.5000073686242,385.5000085905194h46a5,5,0,0,1,5,5v8a5,5,0,0,1,-5,5h-46a5,5,0,0,1,-5,-5v-8a5,5,0,0,1,5,-5z" stroke-width="3"></path><g id="node_text50" fill="black"><text id="kity_text_243" text-rendering="inherit" font-size="12" dy=".8em" y="386.70000856369734" x="337.5000073686242">location</text></g></g><g id="kity_g_12" display="none"><path id="kity_path_13" fill="none" stroke="rgb(66, 94, 112)" d="M73.50000282377005,381.5000064894557h274a3,3,0,0,1,3,3v20a3,3,0,0,1,-3,3h-274a3,3,0,0,1,-3,-3v-20a3,3,0,0,1,3,-3z" stroke-width="5"></path></g></g></g></svg>