<svg id="kity_svg_6" xmlns="http://www.w3.org/2000/svg" xmlns:xlink="http://www.w3.org/1999/xlink" version="1.1" width="908" height="511" style="background: rgb(251, 251, 251); visibility: visible;" viewBox="0 0 908 511"><defs id="kity_defs_7"><linearGradient id="kity_linearGradient_17" x1="0" y1="0" x2="0" y2="1"><stop id="kity_stop_18" offset="0" stop-color="rgb(255, 255, 255)"></stop><stop id="kity_stop_19" offset="1" stop-color="rgb(204, 204, 204)"></stop></linearGradient><marker id="kity_marker_2" orient="auto" refX="6" refY="0" viewBox="-7 -7 14 14" markerWidth="7" markerHeight="7" markerUnits="userSpaceOnUse"><path id="kity_path_3" fill="rgb(115, 161, 191)" stroke="none" d="M6,0A6,6,0,1,1,-6,0A6,6,0,1,1,6,0"></path></marker></defs><g id="kity_g_8"><g id="minder1" text-rendering="optimize-speed"><g id="minder_connect_group1"><path id="kity_path_31" fill="none" stroke="rgb(115, 161, 191)" stroke-width="1" d="M36.500005550682545,284.5000060275197A32,171,0,0,1,68.50000555068254,113.5000060275197"></path><path id="kity_path_33" fill="none" stroke="rgb(115, 161, 191)" stroke-width="1" d="M264.50000555068254,113.5000060275197C272.50000555068254,113.5000060275197,272.50000555068254,68.5000060275197,280.50000555068254,68.5000060275197"></path><path id="kity_path_35" fill="none" stroke="rgb(115, 161, 191)" stroke-width="1" d="M355.50000555068254,68.5000060275197C363.50000555068254,68.5000060275197,363.50000555068254,29.500006027519703,371.50000555068254,29.500006027519703"></path><path id="kity_path_37" fill="none" stroke="rgb(115, 161, 191)" stroke-width="1" d="M355.50000555068254,68.5000060275197C363.50000555068254,68.5000060275197,363.50000555068254,55.5000060275197,371.50000555068254,55.5000060275197"></path><path id="kity_path_39" fill="none" stroke="rgb(115, 161, 191)" stroke-width="1" d="M355.50000555068254,68.5000060275197C363.50000555068254,68.5000060275197,363.50000555068254,81.5000060275197,371.50000555068254,81.5000060275197"></path><path id="kity_path_41" fill="none" stroke="rgb(115, 161, 191)" stroke-width="1" d="M355.50000555068254,68.5000060275197C363.50000555068254,68.5000060275197,363.50000555068254,107.5000060275197,371.50000555068254,107.5000060275197"></path><path id="kity_path_43" fill="none" stroke="rgb(115, 161, 191)" stroke-width="1" d="M264.50000555068254,113.5000060275197C272.50000555068254,113.5000060275197,272.50000555068254,133.5000060275197,280.50000555068254,133.5000060275197"></path><path id="kity_path_45" fill="none" stroke="rgb(115, 161, 191)" stroke-width="1" d="M357.50000555068254,133.5000060275197C365.50000555068254,133.5000060275197,365.50000555068254,133.5000060275197,373.50000555068254,133.5000060275197"></path><path id="kity_path_47" fill="none" stroke="rgb(115, 161, 191)" stroke-width="1" d="M264.50000555068254,113.5000060275197C272.50000555068254,113.5000060275197,272.50000555068254,159.5000060275197,280.50000555068254,159.5000060275197"></path><path id="kity_path_49" fill="none" stroke="rgb(115, 161, 191)" stroke-width="1" d="M365.50000555068254,159.5000060275197C373.50000555068254,159.5000060275197,373.50000555068254,159.5000060275197,381.50000555068254,159.5000060275197"></path><path id="kity_path_51" fill="none" stroke="rgb(115, 161, 191)" stroke-width="1" d="M36.500005550682545,284.5000060275197A32,66,0,0,1,68.50000555068254,218.5000060275197"></path><path id="kity_path_55" fill="none" stroke="rgb(115, 161, 191)" stroke-width="1" d="M428.50000555068254,218.5000060275197C441.50000555068254,218.5000060275197,441.50000555068254,193.5000060275197,454.50000555068254,193.5000060275197"></path><path id="kity_path_57" fill="none" stroke="rgb(115, 161, 191)" stroke-width="1" d="M428.50000555068254,218.5000060275197C441.50000555068254,218.5000060275197,441.50000555068254,219.5000060275197,454.50000555068254,219.5000060275197"></path><path id="kity_path_59" fill="none" stroke="rgb(115, 161, 191)" stroke-width="1" d="M36.500005550682545,284.5000060275197A32,33,0,0,0,68.50000555068254,317.5000060275197"></path><path id="kity_path_61" fill="none" stroke="rgb(115, 161, 191)" stroke-width="1" d="M424.50000555068254,317.5000060275197C432.50000555068254,317.5000060275197,432.50000555068254,278.5000060275197,440.50000555068254,278.5000060275197"></path><path id="kity_path_63" fill="none" stroke="rgb(115, 161, 191)" stroke-width="1" d="M424.50000555068254,317.5000060275197C432.50000555068254,317.5000060275197,432.50000555068254,304.5000060275197,440.50000555068254,304.5000060275197"></path><path id="kity_path_65" fill="none" stroke="rgb(115, 161, 191)" stroke-width="1" d="M424.50000555068254,317.5000060275197C432.50000555068254,317.5000060275197,432.50000555068254,330.5000060275197,440.50000555068254,330.5000060275197"></path><path id="kity_path_67" fill="none" stroke="rgb(115, 161, 191)" stroke-width="1" d="M424.50000555068254,317.5000060275197C432.50000555068254,317.5000060275197,432.50000555068254,356.5000060275197,440.50000555068254,356.5000060275197"></path><path id="kity_path_69" fill="none" stroke="rgb(115, 161, 191)" stroke-width="1" d="M36.500005550682545,284.5000060275197A32,109,0,0,0,68.50000555068254,393.5000060275197"></path><path id="kity_path_71" fill="none" stroke="rgb(115, 161, 191)" stroke-width="1" d="M316.50000555068254,393.5000060275197C324.50000555068254,393.5000060275197,324.50000555068254,393.5000060275197,332.50000555068254,393.5000060275197"></path><path id="kity_path_199" fill="none" stroke="rgb(115, 161, 191)" stroke-width="1" d="M36.500005550682545,284.5000060275197A32,172,0,0,0,68.50000555068254,456.5000060275197"></path><path id="kity_path_279" fill="none" stroke="rgb(115, 161, 191)" stroke-width="1" d="M428.50000555068254,218.5000060275197C441.50000555068254,218.5000060275197,441.50000555068254,245.5000060275197,454.50000555068254,245.5000060275197"></path><path id="kity_path_287" fill="none" stroke="rgb(115, 161, 191)" stroke-width="1" d="M316.50000555068254,456.5000060275197C324.50000555068254,456.5000060275197,324.50000555068254,430.5000060275197,332.50000555068254,430.5000060275197"></path><path id="kity_path_295" fill="none" stroke="rgb(115, 161, 191)" stroke-width="1" d="M316.50000555068254,456.5000060275197C324.50000555068254,456.5000060275197,324.50000555068254,456.5000060275197,332.50000555068254,456.5000060275197"></path><path id="kity_path_303" fill="none" stroke="rgb(115, 161, 191)" stroke-width="1" d="M316.50000555068254,456.5000060275197C324.50000555068254,456.5000060275197,324.50000555068254,482.5000060275197,332.50000555068254,482.5000060275197"></path></g><g id="minder_node1"><path id="node_outline1" fill="#f79646" stroke="rgb(57, 80, 96)" d="M25.500005550682545,270.5000060275197h22a5,5,0,0,1,5,5v18a5,5,0,0,1,-5,5h-22a5,5,0,0,1,-5,-5v-18a5,5,0,0,1,5,-5z" stroke-width="3"></path><g id="node_text1" fill="white"><text id="kity_text_22" text-rendering="inherit" font-size="16" dy=".8em" y="274.1000059917569" x="32.500005550682545">/</text></g></g><g id="kity_g_14" display="none"><path id="kity_path_15" fill="rgba(0, 92, 153, 0.5)" stroke="none" d="M454.50000555068254,213.5000060275197h100v4h-100z"></path><path id="kity_path_16" fill="none" stroke="rgb(0, 76, 128)" d="M454.50000555068254,217.5000060275197L554.5000055506825,217.5000060275197" stroke-width="1"></path></g><g id="minder_node2"><g id="node_expander10" style="cursor: pointer;"><path id="kity_path_163" fill="white" stroke="gray" d="M69.50000601261854,113.50000347942114A6,6,0,1,1,57.50000601261854,113.50000347942114A6,6,0,1,1,69.50000601261854,113.50000347942114"></path><path id="kity_path_164" fill="none" stroke="gray" d="M59.00000601261854,113.50000347942114L68.00000601261854,113.50000347942114"></path></g><path id="node_outline11" fill="#f79646" stroke="rgb(115, 161, 191)" d="M73.5000064149499,100.50000347942114h188a3,3,0,0,1,3,3v20a3,3,0,0,1,-3,3h-188a3,3,0,0,1,-3,-3v-20a3,3,0,0,1,3,-3z" stroke-width="1"></path><g id="node_text11" fill="black"><text id="kity_text_91" text-rendering="inherit" font-size="14" dy=".8em" y="104.4000034481287" x="90.5000064149499">/ci-cd/azure-pipelines/</text></g></g><g id="minder_node3"><g id="node_expander5" style="cursor: pointer;"><path id="kity_path_148" fill="white" stroke="gray" d="M280.50000915676355,68.50000280886889A6,6,0,1,1,268.50000915676355,68.50000280886889A6,6,0,1,1,280.50000915676355,68.50000280886889"></path><path id="kity_path_149" fill="none" stroke="gray" d="M270.00000915676355,68.50000280886889L279.00000915676355,68.50000280886889"></path></g><path id="node_outline6" fill="none" stroke="none" d="M285.5000093206763,59.500002808868885h65a5,5,0,0,1,5,5v8a5,5,0,0,1,-5,5h-65a5,5,0,0,1,-5,-5v-8a5,5,0,0,1,5,-5z"></path><g id="node_text6" fill="black"><text id="kity_text_81" text-rendering="inherit" font-size="12" dy=".8em" y="60.700002782046795" x="285.5000093206763">setup-cli.sh</text></g></g><g id="minder_node4"><g id="node_expander1" style="cursor: pointer;" display="none"><path id="kity_path_136" fill="white" stroke="gray" d="M371.5000105127692,29.5000022277236A6,6,0,1,1,359.5000105127692,29.5000022277236A6,6,0,1,1,371.5000105127692,29.5000022277236"></path><path id="kity_path_137" fill="none" stroke="gray"></path></g><path id="node_outline2" fill="#f2dbdb" stroke="none" d="M376.500010676682,20.5000022277236h489a5,5,0,0,1,5,5v8a5,5,0,0,1,-5,5h-489a5,5,0,0,1,-5,-5v-8a5,5,0,0,1,5,-5z"></path><g id="node_text2" fill="black"><text id="kity_text_73" text-rendering="inherit" font-size="12" dy=".8em" y="21.70000220090151" x="376.500010676682">RESOURCE_GROUP_NAME #name of the AzureML variable defined in Azure Pipelines</text></g></g><g id="minder_node5"><g id="node_expander2" style="cursor: pointer;" display="none"><path id="kity_path_139" fill="white" stroke="gray" d="M371.5000105127692,55.50000261515379A6,6,0,1,1,359.5000105127692,55.50000261515379A6,6,0,1,1,371.5000105127692,55.50000261515379"></path><path id="kity_path_140" fill="none" stroke="gray"></path></g><path id="node_outline3" fill="#f2dbdb" stroke="none" d="M376.500010676682,46.50000261515379h43a5,5,0,0,1,5,5v8a5,5,0,0,1,-5,5h-43a5,5,0,0,1,-5,-5v-8a5,5,0,0,1,5,-5z"></path><g id="node_text3" fill="black"><text id="kity_text_75" text-rendering="inherit" font-size="12" dy=".8em" y="47.7000025883317" x="376.500010676682">GROUP</text></g></g><g id="minder_node6"><g id="node_expander3" style="cursor: pointer;" display="none"><path id="kity_path_142" fill="white" stroke="gray" d="M371.5000105127692,81.50000300258398A6,6,0,1,1,359.5000105127692,81.50000300258398A6,6,0,1,1,371.5000105127692,81.50000300258398"></path><path id="kity_path_143" fill="none" stroke="gray"></path></g><path id="node_outline4" fill="#f2dbdb" stroke="none" d="M376.500010676682,72.50000300258398h62a5,5,0,0,1,5,5v8a5,5,0,0,1,-5,5h-62a5,5,0,0,1,-5,-5v-8a5,5,0,0,1,5,-5z"></path><g id="node_text4" fill="black"><text id="kity_text_77" text-rendering="inherit" font-size="12" dy=".8em" y="73.70000297576189" x="376.500010676682">LOCATION</text></g></g><g id="minder_node7"><g id="node_expander4" style="cursor: pointer;" display="none"><path id="kity_path_145" fill="white" stroke="gray" d="M371.5000105127692,107.50000339001417A6,6,0,1,1,359.5000105127692,107.50000339001417A6,6,0,1,1,371.5000105127692,107.50000339001417"></path><path id="kity_path_146" fill="none" stroke="gray"></path></g><path id="node_outline5" fill="#f2dbdb" stroke="none" d="M376.500010676682,98.50000339001417h75a5,5,0,0,1,5,5v8a5,5,0,0,1,-5,5h-75a5,5,0,0,1,-5,-5v-8a5,5,0,0,1,5,-5z"></path><g id="node_text5" fill="black"><text id="kity_text_79" text-rendering="inherit" font-size="12" dy=".8em" y="99.70000336319208" x="376.500010676682">WORKSPACE</text></g></g><g id="minder_node8"><g id="node_expander7" style="cursor: pointer;"><path id="kity_path_154" fill="white" stroke="gray" d="M280.50000915676355,133.50000377744436A6,6,0,1,1,268.50000915676355,133.50000377744436A6,6,0,1,1,280.50000915676355,133.50000377744436"></path><path id="kity_path_155" fill="none" stroke="gray" d="M270.00000915676355,133.50000377744436L279.00000915676355,133.50000377744436"></path></g><path id="node_outline8" fill="none" stroke="none" d="M285.5000093206763,124.50000377744436h67a5,5,0,0,1,5,5v8a5,5,0,0,1,-5,5h-67a5,5,0,0,1,-5,-5v-8a5,5,0,0,1,5,-5z"></path><g id="node_text8" fill="black"><text id="kity_text_85" text-rendering="inherit" font-size="12" dy=".8em" y="125.70000375062227" x="285.5000093206763">cli/train.yml</text></g></g><g id="minder_node9"><g id="node_expander6" style="cursor: pointer;" display="none"><path id="kity_path_151" fill="white" stroke="gray" d="M373.50001054257154,133.50000377744436A6,6,0,1,1,361.50001054257154,133.50000377744436A6,6,0,1,1,373.50001054257154,133.50000377744436"></path><path id="kity_path_152" fill="none" stroke="gray"></path></g><path id="node_outline7" fill="#f2dbdb" stroke="none" d="M378.5000107064843,124.50000377744436h497a5,5,0,0,1,5,5v8a5,5,0,0,1,-5,5h-497a5,5,0,0,1,-5,-5v-8a5,5,0,0,1,5,-5z"></path><g id="node_text7" fill="black"><text id="kity_text_83" text-rendering="inherit" font-size="12" dy=".8em" y="125.70000375062227" x="378.5000107064843">azureml-mldemo #name of the AzureML service connection defined in Azure Pipelines</text></g></g><g id="minder_node10"><g id="node_expander9" style="cursor: pointer;"><path id="kity_path_160" fill="white" stroke="gray" d="M280.50000915676355,159.50000416487455A6,6,0,1,1,268.50000915676355,159.50000416487455A6,6,0,1,1,280.50000915676355,159.50000416487455"></path><path id="kity_path_161" fill="none" stroke="gray" d="M270.00000915676355,159.50000416487455L279.00000915676355,159.50000416487455"></path></g><path id="node_outline10" fill="none" stroke="none" d="M285.5000093206763,150.50000416487455h75a5,5,0,0,1,5,5v8a5,5,0,0,1,-5,5h-75a5,5,0,0,1,-5,-5v-8a5,5,0,0,1,5,-5z"></path><g id="node_text10" fill="black"><text id="kity_text_89" text-rendering="inherit" font-size="12" dy=".8em" y="151.70000413805246" x="285.5000093206763">sdk/train.yml</text></g></g><g id="minder_node11"><g id="node_expander8" style="cursor: pointer;" display="none"><path id="kity_path_157" fill="white" stroke="gray" d="M381.50001066178083,159.50000416487455A6,6,0,1,1,369.50001066178083,159.50000416487455A6,6,0,1,1,381.50001066178083,159.50000416487455"></path><path id="kity_path_158" fill="none" stroke="gray"></path></g><path id="node_outline9" fill="#f2dbdb" stroke="none" d="M386.5000108256936,150.50000416487455h497a5,5,0,0,1,5,5v8a5,5,0,0,1,-5,5h-497a5,5,0,0,1,-5,-5v-8a5,5,0,0,1,5,-5z"></path><g id="node_text9" fill="black"><text id="kity_text_87" text-rendering="inherit" font-size="12" dy=".8em" y="151.70000413805246" x="386.5000108256936">azureml-mldemo #name of the AzureML service connection defined in Azure Pipelines</text></g></g><g id="minder_node12"><g id="node_expander14" style="cursor: pointer;"><path id="kity_path_175" fill="white" stroke="gray" d="M69.50000601261854,218.50000504404306A6,6,0,1,1,57.50000601261854,218.50000504404306A6,6,0,1,1,69.50000601261854,218.50000504404306"></path><path id="kity_path_176" fill="none" stroke="gray" d="M59.00000601261854,218.50000504404306L68.00000601261854,218.50000504404306"></path></g><path id="node_outline15" fill="none" stroke="rgb(115, 161, 191)" d="M73.5000064149499,206.50000504404306h352a3,3,0,0,1,3,3v18a3,3,0,0,1,-3,3h-352a3,3,0,0,1,-3,-3v-18a3,3,0,0,1,3,-3z" stroke-width="1"></path><g id="node_text15" fill="black"><text id="kity_text_99" text-rendering="inherit" font-size="12" dy=".8em" y="210.70000501722097" x="90.5000064149499">/ml-pipelines/sdk/deploy-online-endpoint-sdkv2.ipynb</text></g></g><g id="minder_node14" opacity="1"><g id="node_expander12" style="cursor: pointer;" display="none"><path id="kity_path_169" fill="white" stroke="gray" d="M454.5000117495656,193.50000467151403A6,6,0,1,1,442.5000117495656,193.50000467151403A6,6,0,1,1,454.5000117495656,193.50000467151403"></path><path id="kity_path_170" fill="none" stroke="gray" d="M444.0000117495656,193.50000467151403L453.0000117495656,193.50000467151403"></path></g><path id="node_outline13" fill="#f2dbdb" stroke="none" d="M459.5000119134784,184.50000467151403h87a5,5,0,0,1,5,5v8a5,5,0,0,1,-5,5h-87a5,5,0,0,1,-5,-5v-8a5,5,0,0,1,5,-5z" stroke-width="3"></path><g id="node_text13" fill="black"><text id="kity_text_95" text-rendering="inherit" font-size="12" dy=".8em" y="185.70000464469194" x="459.5000119134784">subscription_id</text></g></g><g id="minder_node15" opacity="1"><g id="node_expander13" style="cursor: pointer;" display="none"><path id="kity_path_172" fill="white" stroke="gray" d="M454.5000117495656,219.50000505894423A6,6,0,1,1,442.5000117495656,219.50000505894423A6,6,0,1,1,454.5000117495656,219.50000505894423"></path><path id="kity_path_173" fill="none" stroke="gray" d="M444.0000117495656,219.50000505894423L453.0000117495656,219.50000505894423"></path></g><path id="node_outline14" fill="#f2dbdb" stroke="none" d="M459.5000119134784,210.50000505894423h90a5,5,0,0,1,5,5v8a5,5,0,0,1,-5,5h-90a5,5,0,0,1,-5,-5v-8a5,5,0,0,1,5,-5z" stroke-width="3"></path><g id="node_text14" fill="black"><text id="kity_text_97" text-rendering="inherit" font-size="12" dy=".8em" y="211.70000503212214" x="459.5000119134784">resource_group</text></g></g><g id="minder_node16"><g id="node_expander19" style="cursor: pointer;"><path id="kity_path_190" fill="white" stroke="gray" d="M69.50000601261854,317.500006519258A6,6,0,1,1,57.50000601261854,317.500006519258A6,6,0,1,1,69.50000601261854,317.500006519258"></path><path id="kity_path_191" fill="none" stroke="gray" d="M59.00000601261854,317.500006519258L68.00000601261854,317.500006519258"></path></g><path id="node_outline20" fill="none" stroke="rgb(115, 161, 191)" d="M73.5000064149499,305.500006519258h348a3,3,0,0,1,3,3v18a3,3,0,0,1,-3,3h-348a3,3,0,0,1,-3,-3v-18a3,3,0,0,1,3,-3z" stroke-width="1"></path><g id="node_text20" fill="black"><text id="kity_text_109" text-rendering="inherit" font-size="12" dy=".8em" y="309.70000649243593" x="90.5000064149499">/ml-pipelines/sdk/deploy-batch-endpoint-sdkv2.ipynb</text></g></g><g id="minder_node17"><g id="node_expander15" style="cursor: pointer;" display="none"><path id="kity_path_178" fill="white" stroke="gray" d="M440.50001154094934,278.50000593811274A6,6,0,1,1,428.50001154094934,278.50000593811274A6,6,0,1,1,440.50001154094934,278.50000593811274"></path><path id="kity_path_179" fill="none" stroke="gray"></path></g><path id="node_outline16" fill="#f2dbdb" stroke="none" d="M445.5000117048621,269.50000593811274h87a5,5,0,0,1,5,5v8a5,5,0,0,1,-5,5h-87a5,5,0,0,1,-5,-5v-8a5,5,0,0,1,5,-5z"></path><g id="node_text16" fill="black"><text id="kity_text_101" text-rendering="inherit" font-size="12" dy=".8em" y="270.70000591129065" x="445.5000117048621">subscription_id</text></g></g><g id="minder_node18"><g id="node_expander16" style="cursor: pointer;" display="none"><path id="kity_path_181" fill="white" stroke="gray" d="M440.50001154094934,304.5000063255429A6,6,0,1,1,428.50001154094934,304.5000063255429A6,6,0,1,1,440.50001154094934,304.5000063255429"></path><path id="kity_path_182" fill="none" stroke="gray"></path></g><path id="node_outline17" fill="#f2dbdb" stroke="none" d="M445.5000117048621,295.5000063255429h90a5,5,0,0,1,5,5v8a5,5,0,0,1,-5,5h-90a5,5,0,0,1,-5,-5v-8a5,5,0,0,1,5,-5z"></path><g id="node_text17" fill="black"><text id="kity_text_103" text-rendering="inherit" font-size="12" dy=".8em" y="296.70000629872084" x="445.5000117048621">resource_group</text></g></g><g id="minder_node19"><g id="node_expander17" style="cursor: pointer;" display="none"><path id="kity_path_184" fill="white" stroke="gray" d="M440.50001154094934,330.5000067129731A6,6,0,1,1,428.50001154094934,330.5000067129731A6,6,0,1,1,440.50001154094934,330.5000067129731"></path><path id="kity_path_185" fill="none" stroke="gray"></path></g><path id="node_outline18" fill="#f2dbdb" stroke="none" d="M445.5000117048621,321.5000067129731h61a5,5,0,0,1,5,5v8a5,5,0,0,1,-5,5h-61a5,5,0,0,1,-5,-5v-8a5,5,0,0,1,5,-5z"></path><g id="node_text18" fill="black"><text id="kity_text_105" text-rendering="inherit" font-size="12" dy=".8em" y="322.700006686151" x="445.5000117048621">workspace</text></g></g><g id="minder_node20"><g id="node_expander18" style="cursor: pointer;" display="none"><path id="kity_path_187" fill="white" stroke="gray" d="M440.50001154094934,356.5000071004033A6,6,0,1,1,428.50001154094934,356.5000071004033A6,6,0,1,1,440.50001154094934,356.5000071004033"></path><path id="kity_path_188" fill="none" stroke="gray"></path></g><path id="node_outline19" fill="#d6e3bc" stroke="none" d="M445.5000117048621,347.5000071004033h46a5,5,0,0,1,5,5v8a5,5,0,0,1,-5,5h-46a5,5,0,0,1,-5,-5v-8a5,5,0,0,1,5,-5z"></path><g id="node_text19" fill="black"><text id="kity_text_107" text-rendering="inherit" font-size="12" dy=".8em" y="348.7000070735812" x="445.5000117048621">location</text></g></g><g id="minder_node21"><g id="node_expander21" style="cursor: pointer;"><path id="kity_path_196" fill="white" stroke="gray" d="M69.50000601261854,393.5000076517463A6,6,0,1,1,57.50000601261854,393.5000076517463A6,6,0,1,1,69.50000601261854,393.5000076517463"></path><path id="kity_path_197" fill="none" stroke="gray" d="M59.00000601261854,393.5000076517463L68.00000601261854,393.5000076517463"></path></g><path id="node_outline22" fill="none" stroke="rgb(115, 161, 191)" d="M73.5000064149499,381.5000076517463h240a3,3,0,0,1,3,3v18a3,3,0,0,1,-3,3h-240a3,3,0,0,1,-3,-3v-18a3,3,0,0,1,3,-3z" stroke-width="1"></path><g id="node_text22" fill="black"><text id="kity_text_113" text-rendering="inherit" font-size="12" dy=".8em" y="385.7000076249242" x="90.5000064149499">/ml-pipelines/cli/train/compute.yml</text></g></g><g id="minder_node22"><g id="node_expander20" style="cursor: pointer;" display="none"><path id="kity_path_193" fill="white" stroke="gray" d="M332.50000993162394,393.5000076517463A6,6,0,1,1,320.50000993162394,393.5000076517463A6,6,0,1,1,332.50000993162394,393.5000076517463"></path><path id="kity_path_194" fill="none" stroke="gray"></path></g><path id="node_outline21" fill="#d6e3bc" stroke="none" d="M337.5000100955367,384.5000076517463h46a5,5,0,0,1,5,5v8a5,5,0,0,1,-5,5h-46a5,5,0,0,1,-5,-5v-8a5,5,0,0,1,5,-5z"></path><g id="node_text21" fill="black"><text id="kity_text_111" text-rendering="inherit" font-size="12" dy=".8em" y="385.7000076249242" x="337.5000100955367">location</text></g></g><g id="minder_node23"><g id="node_expander22" style="cursor: pointer;"><path id="kity_path_204" fill="white" stroke="gray" d="M69.50000601261854,456.5000085905194A6,6,0,1,1,57.50000601261854,456.5000085905194A6,6,0,1,1,69.50000601261854,456.5000085905194"></path><path id="kity_path_205" fill="none" stroke="gray" d="M59.00000601261854,456.5000085905194L68.00000601261854,456.5000085905194"></path></g><path id="node_outline23" fill="none" stroke="rgb(115, 161, 191)" d="M73.5000064149499,444.5000085905194h240a3,3,0,0,1,3,3v18a3,3,0,0,1,-3,3h-240a3,3,0,0,1,-3,-3v-18a3,3,0,0,1,3,-3z" stroke-width="1"></path><g id="node_text23" fill="black"><text id="kity_text_201" text-rendering="inherit" font-size="12" dy=".8em" y="448.70000856369734" x="90.5000064149499">/ml-pipelines/sdk/train-sdkv2.ipynb</text></g></g><g id="minder_node33"><g id="node_expander32" style="cursor: pointer;" display="none"><path id="kity_path_284" fill="white" stroke="gray" d="M454.5000117495656,245.50000544637442A6,6,0,1,1,442.5000117495656,245.50000544637442A6,6,0,1,1,454.5000117495656,245.50000544637442"></path><path id="kity_path_285" fill="none" stroke="gray" d="M444.0000117495656,245.50000544637442L453.0000117495656,245.50000544637442"></path></g><path id="node_outline33" fill="#f2dbdb" stroke="none" d="M459.5000119134784,236.50000544637442h61a5,5,0,0,1,5,5v8a5,5,0,0,1,-5,5h-61a5,5,0,0,1,-5,-5v-8a5,5,0,0,1,5,-5z" stroke-width="3"></path><g id="node_text33" fill="black"><text id="kity_text_281" text-rendering="inherit" font-size="12" dy=".8em" y="237.70000541955233" x="459.5000119134784">workspace</text></g></g><g id="minder_node34" opacity="1"><g id="node_expander33" style="cursor: pointer;" display="none"><path id="kity_path_292" fill="white" stroke="gray" d="M332.50000993162394,430.50000820308924A6,6,0,1,1,320.50000993162394,430.50000820308924A6,6,0,1,1,332.50000993162394,430.50000820308924"></path><path id="kity_path_293" fill="none" stroke="gray"></path></g><path id="node_outline34" fill="#f2dbdb" stroke="none" d="M337.5000100955367,421.50000820308924h87a5,5,0,0,1,5,5v8a5,5,0,0,1,-5,5h-87a5,5,0,0,1,-5,-5v-8a5,5,0,0,1,5,-5z" stroke-width="3"></path><g id="node_text34" fill="black"><text id="kity_text_289" text-rendering="inherit" font-size="12" dy=".8em" y="422.70000817626715" x="337.5000100955367">subscription_id</text></g></g><g id="minder_node35" opacity="1"><g id="node_expander34" style="cursor: pointer;" display="none"><path id="kity_path_300" fill="white" stroke="gray" d="M332.50000993162394,456.5000085905194A6,6,0,1,1,320.50000993162394,456.5000085905194A6,6,0,1,1,332.50000993162394,456.5000085905194"></path><path id="kity_path_301" fill="none" stroke="gray"></path></g><path id="node_outline35" fill="#f2dbdb" stroke="none" d="M337.5000100955367,447.5000085905194h90a5,5,0,0,1,5,5v8a5,5,0,0,1,-5,5h-90a5,5,0,0,1,-5,-5v-8a5,5,0,0,1,5,-5z" stroke-width="3"></path><g id="node_text35" fill="black"><text id="kity_text_297" text-rendering="inherit" font-size="12" dy=".8em" y="448.70000856369734" x="337.5000100955367">resource_group</text></g></g><g id="minder_node36" opacity="1"><g id="node_expander35" style="cursor: pointer;" display="none"><path id="kity_path_308" fill="white" stroke="gray" d="M332.50000993162394,482.5000089779496A6,6,0,1,1,320.50000993162394,482.5000089779496A6,6,0,1,1,332.50000993162394,482.5000089779496"></path><path id="kity_path_309" fill="none" stroke="gray"></path></g><path id="node_outline36" fill="#f2dbdb" stroke="none" d="M337.5000100955367,473.5000089779496h61a5,5,0,0,1,5,5v8a5,5,0,0,1,-5,5h-61a5,5,0,0,1,-5,-5v-8a5,5,0,0,1,5,-5z" stroke-width="3"></path><g id="node_text36" fill="black"><text id="kity_text_305" text-rendering="inherit" font-size="12" dy=".8em" y="474.70000895112753" x="337.5000100955367">workspace</text></g></g><g id="kity_g_12" display="none"><path id="kity_path_13" fill="none" stroke="rgb(66, 94, 112)" d="M73.50000555068254,438.5000060275197h240a3,3,0,0,1,3,3v18a3,3,0,0,1,-3,3h-240a3,3,0,0,1,-3,-3v-18a3,3,0,0,1,3,-3z" stroke-width="5"></path></g></g></g></svg>